<mxfile host="Electron" agent="Mozilla/5.0 (Macintosh; Intel Mac OS X 10_15_7) AppleWebKit/537.36 (KHTML, like Gecko) draw.io/24.7.17 Chrome/128.0.6613.36 Electron/32.0.1 Safari/537.36" version="24.7.17">
  <diagram name="Page-1" id="4ao0GG0Q0kt4zrLhG0ES">
    <mxGraphModel dx="1137" dy="896" grid="1" gridSize="10" guides="1" tooltips="1" connect="1" arrows="1" fold="1" page="1" pageScale="1" pageWidth="827" pageHeight="1169" math="0" shadow="0">
      <root>
        <mxCell id="0" />
        <mxCell id="1" parent="0" />
        <mxCell id="wV0cXMbHBrXEj62ok93t-1" value="" style="shape=image;verticalLabelPosition=bottom;labelBackgroundColor=default;verticalAlign=top;aspect=fixed;imageAspect=0;image=data:image/svg+xml,PHN2ZyB4bWxuczp4bGluaz0iaHR0cDovL3d3dy53My5vcmcvMTk5OS94bGluayIgeG1sbnM9Imh0dHA6Ly93d3cudzMub3JnLzIwMDAvc3ZnIiBvdmVyZmxvdz0iaGlkZGVuIiB4bWw6c3BhY2U9InByZXNlcnZlIiBoZWlnaHQ9IjIzNzAiIHdpZHRoPSIzMDU3IiB2aWV3Qm94PSIwIDAgMzA1NyAyMzcwIj48ZyB0cmFuc2Zvcm09InRyYW5zbGF0ZSgtNjg3IC03NykiPjxnPjxwYXRoIHRyYW5zZm9ybT0ibWF0cml4KC0xIDAgMCAxIDIxODYuODUgODIzKSIgZmlsbC1vcGFjaXR5PSIxIiBmaWxsLXJ1bGU9Im5vbnplcm8iIGZpbGw9IiMwMDcwQzAiIGQ9Ik0xLjM3NDQ5ZS0wNi0xLjE0NTgzIDI3Ny45MzgtMS4xNDU1IDI3Ny45MzggMS4xNDYxNy0xLjM3NDQ5ZS0wNiAxLjE0NTgzWk0yNzMuMzU1LTkuMTY2MzQgMzAwLjg1NSAwLjAwMDM2MDg5MiAyNzMuMzU1IDkuMTY2OTlaIi8+PHRleHQgdHJhbnNmb3JtPSJtYXRyaXgoMSAwIDAgMSAyMDIyLjIxIDY1NykiIHRleHQtZGVjb3JhdGlvbj0ibm9uZSIgd3JpdGluZy1tb2RlPSJsci10YiIgZGlyZWN0aW9uPSJsdHIiIHRleHQtYW5jaG9yPSJzdGFydCIgZm9udC1zaXplPSIzMiIgZm9udC1zdHJldGNoPSJub3JtYWwiIGZvbnQtd2VpZ2h0PSI3MDAiIGZvbnQtdmFyaWFudD0ibm9ybWFsIiBmb250LXN0eWxlPSJub3JtYWwiIGZvbnQtZmFtaWx5PSJDaXNjb1NhbnNUVCBFeHRyYUxpZ2h0LENpc2NvU2Fuc1RUIEV4dHJhTGlnaHRfTVNGb250U2VydmljZSxzYW5zLXNlcmlmIiBmaWxsLW9wYWNpdHk9IjEiIGZpbGw9IiMwMDcwQzAiPigzKTwvdGV4dD48dGV4dCB0cmFuc2Zvcm09Im1hdHJpeCgxIDAgMCAxIDE5MjQuMjQgNzEzKSIgdGV4dC1kZWNvcmF0aW9uPSJub25lIiB3cml0aW5nLW1vZGU9ImxyLXRiIiBkaXJlY3Rpb249Imx0ciIgdGV4dC1hbmNob3I9InN0YXJ0IiBmb250LXNpemU9IjMyIiBmb250LXN0cmV0Y2g9Im5vcm1hbCIgZm9udC13ZWlnaHQ9IjMwMCIgZm9udC12YXJpYW50PSJub3JtYWwiIGZvbnQtc3R5bGU9Im5vcm1hbCIgZm9udC1mYW1pbHk9IkNpc2NvU2Fuc1RUIEV4dHJhTGlnaHQsQ2lzY29TYW5zVFQgRXh0cmFMaWdodF9NU0ZvbnRTZXJ2aWNlLHNhbnMtc2VyaWYiIGZpbGwtb3BhY2l0eT0iMSIgZmlsbD0iIzAwNzBDMCI+TGlzdCBvZiBjYW5kaWRhdGUgPC90ZXh0Pjx0ZXh0IHRyYW5zZm9ybT0ibWF0cml4KDEgMCAwIDEgMTk1OC42MSA3NTIpIiB0ZXh0LWRlY29yYXRpb249Im5vbmUiIHdyaXRpbmctbW9kZT0ibHItdGIiIGRpcmVjdGlvbj0ibHRyIiB0ZXh0LWFuY2hvcj0ic3RhcnQiIGZvbnQtc2l6ZT0iMzIiIGZvbnQtc3RyZXRjaD0ibm9ybWFsIiBmb250LXdlaWdodD0iMzAwIiBmb250LXZhcmlhbnQ9Im5vcm1hbCIgZm9udC1zdHlsZT0ibm9ybWFsIiBmb250LWZhbWlseT0iQ2lzY29TYW5zVFQgRXh0cmFMaWdodCxDaXNjb1NhbnNUVCBFeHRyYUxpZ2h0X01TRm9udFNlcnZpY2Usc2Fucy1zZXJpZiIgZmlsbC1vcGFjaXR5PSIxIiBmaWxsPSIjMDA3MEMwIj5BZ2VudHMgd2l0aCA8L3RleHQ+PHRleHQgdHJhbnNmb3JtPSJtYXRyaXgoMSAwIDAgMSAxOTU3LjQ3IDc5MCkiIHRleHQtZGVjb3JhdGlvbj0ibm9uZSIgd3JpdGluZy1tb2RlPSJsci10YiIgZGlyZWN0aW9uPSJsdHIiIHRleHQtYW5jaG9yPSJzdGFydCIgZm9udC1zaXplPSIzMiIgZm9udC1zdHJldGNoPSJub3JtYWwiIGZvbnQtd2VpZ2h0PSIzMDAiIGZvbnQtdmFyaWFudD0ibm9ybWFsIiBmb250LXN0eWxlPSJub3JtYWwiIGZvbnQtZmFtaWx5PSJDaXNjb1NhbnNUVCBFeHRyYUxpZ2h0LENpc2NvU2Fuc1RUIEV4dHJhTGlnaHRfTVNGb250U2VydmljZSxzYW5zLXNlcmlmIiBmaWxsLW9wYWNpdHk9IjEiIGZpbGw9IiMwMDcwQzAiPkNhdGFsb2c8L3RleHQ+PHRleHQgdHJhbnNmb3JtPSJtYXRyaXgoMSAwIDAgMSAyMDY4LjA0IDc5MCkiIHRleHQtZGVjb3JhdGlvbj0ibm9uZSIgd3JpdGluZy1tb2RlPSJsci10YiIgZGlyZWN0aW9uPSJsdHIiIHRleHQtYW5jaG9yPSJzdGFydCIgZm9udC1zaXplPSIzMiIgZm9udC1zdHJldGNoPSJub3JtYWwiIGZvbnQtd2VpZ2h0PSIzMDAiIGZvbnQtdmFyaWFudD0ibm9ybWFsIiBmb250LXN0eWxlPSJub3JtYWwiIGZvbnQtZmFtaWx5PSJDaXNjb1NhbnNUVCBFeHRyYUxpZ2h0LENpc2NvU2Fuc1RUIEV4dHJhTGlnaHRfTVNGb250U2VydmljZSxzYW5zLXNlcmlmIiBmaWxsLW9wYWNpdHk9IjEiIGZpbGw9IiMwMDcwQzAiPi08L3RleHQ+PHRleHQgdHJhbnNmb3JtPSJtYXRyaXgoMSAwIDAgMSAyMDg1LjIzIDc5MCkiIHRleHQtZGVjb3JhdGlvbj0ibm9uZSIgd3JpdGluZy1tb2RlPSJsci10YiIgZGlyZWN0aW9uPSJsdHIiIHRleHQtYW5jaG9yPSJzdGFydCIgZm9udC1zaXplPSIzMiIgZm9udC1zdHJldGNoPSJub3JtYWwiIGZvbnQtd2VpZ2h0PSIzMDAiIGZvbnQtdmFyaWFudD0ibm9ybWFsIiBmb250LXN0eWxlPSJub3JtYWwiIGZvbnQtZmFtaWx5PSJDaXNjb1NhbnNUVCBFeHRyYUxpZ2h0LENpc2NvU2Fuc1RUIEV4dHJhTGlnaHRfTVNGb250U2VydmljZSxzYW5zLXNlcmlmIiBmaWxsLW9wYWNpdHk9IjEiIGZpbGw9IiMwMDcwQzAiPklEczwvdGV4dD48dGV4dCB0cmFuc2Zvcm09Im1hdHJpeCgxIDAgMCAxIDIwMjIuMjEgODkzKSIgdGV4dC1kZWNvcmF0aW9uPSJub25lIiB3cml0aW5nLW1vZGU9ImxyLXRiIiBkaXJlY3Rpb249Imx0ciIgdGV4dC1hbmNob3I9InN0YXJ0IiBmb250LXNpemU9IjMyIiBmb250LXN0cmV0Y2g9Im5vcm1hbCIgZm9udC13ZWlnaHQ9IjcwMCIgZm9udC12YXJpYW50PSJub3JtYWwiIGZvbnQtc3R5bGU9Im5vcm1hbCIgZm9udC1mYW1pbHk9IkNpc2NvU2Fuc1RUIEV4dHJhTGlnaHQsQ2lzY29TYW5zVFQgRXh0cmFMaWdodF9NU0ZvbnRTZXJ2aWNlLHNhbnMtc2VyaWYiIGZpbGwtb3BhY2l0eT0iMSIgZmlsbD0iI0Q5ODcwNCI+KDQpPC90ZXh0PjxwYXRoIGZpbGwtb3BhY2l0eT0iMSIgZmlsbC1ydWxlPSJub256ZXJvIiBmaWxsPSIjRDk4NzA0IiBkPSJNMTg4NiAxMTIxLjg1IDIxNjMuOTQgMTEyMS44NSAyMTYzLjk0IDExMjQuMTUgMTg4NiAxMTI0LjE1Wk0yMTU5LjM1IDExMTMuODMgMjE4Ni44NSAxMTIzIDIxNTkuMzUgMTEzMi4xN1oiLz48dGV4dCB0cmFuc2Zvcm09Im1hdHJpeCgxIDAgMCAxIDE5NjYuNjIgOTQyKSIgdGV4dC1kZWNvcmF0aW9uPSJub25lIiB3cml0aW5nLW1vZGU9ImxyLXRiIiBkaXJlY3Rpb249Imx0ciIgdGV4dC1hbmNob3I9InN0YXJ0IiBmb250LXNpemU9IjMyIiBmb250LXN0cmV0Y2g9Im5vcm1hbCIgZm9udC13ZWlnaHQ9IjMwMCIgZm9udC12YXJpYW50PSJub3JtYWwiIGZvbnQtc3R5bGU9Im5vcm1hbCIgZm9udC1mYW1pbHk9IkNpc2NvU2Fuc1RUIEV4dHJhTGlnaHQsQ2lzY29TYW5zVFQgRXh0cmFMaWdodF9NU0ZvbnRTZXJ2aWNlLHNhbnMtc2VyaWYiIGZpbGwtb3BhY2l0eT0iMSIgZmlsbD0iI0Q5ODcwNCI+U2VsZWN0IGFuZCA8L3RleHQ+PHRleHQgdHJhbnNmb3JtPSJtYXRyaXgoMSAwIDAgMSAxOTI1LjY3IDk4MSkiIHRleHQtZGVjb3JhdGlvbj0ibm9uZSIgd3JpdGluZy1tb2RlPSJsci10YiIgZGlyZWN0aW9uPSJsdHIiIHRleHQtYW5jaG9yPSJzdGFydCIgZm9udC1zaXplPSIzMiIgZm9udC1zdHJldGNoPSJub3JtYWwiIGZvbnQtd2VpZ2h0PSIzMDAiIGZvbnQtdmFyaWFudD0ibm9ybWFsIiBmb250LXN0eWxlPSJub3JtYWwiIGZvbnQtZmFtaWx5PSJDaXNjb1NhbnNUVCBFeHRyYUxpZ2h0LENpc2NvU2Fuc1RUIEV4dHJhTGlnaHRfTVNGb250U2VydmljZSxzYW5zLXNlcmlmIiBmaWxsLW9wYWNpdHk9IjEiIGZpbGw9IiNEOTg3MDQiPnRyaWdnZXIgYSBzZWNvbmQgPC90ZXh0Pjx0ZXh0IHRyYW5zZm9ybT0ibWF0cml4KDEgMCAwIDEgMTk1OC4zMyAxMDE5KSIgdGV4dC1kZWNvcmF0aW9uPSJub25lIiB3cml0aW5nLW1vZGU9ImxyLXRiIiBkaXJlY3Rpb249Imx0ciIgdGV4dC1hbmNob3I9InN0YXJ0IiBmb250LXNpemU9IjMyIiBmb250LXN0cmV0Y2g9Im5vcm1hbCIgZm9udC13ZWlnaHQ9IjMwMCIgZm9udC12YXJpYW50PSJub3JtYWwiIGZvbnQtc3R5bGU9Im5vcm1hbCIgZm9udC1mYW1pbHk9IkNpc2NvU2Fuc1RUIEV4dHJhTGlnaHQsQ2lzY29TYW5zVFQgRXh0cmFMaWdodF9NU0ZvbnRTZXJ2aWNlLHNhbnMtc2VyaWYiIGZpbGwtb3BhY2l0eT0iMSIgZmlsbD0iI0Q5ODcwNCI+bG9va3VwIGZvciBhIDwvdGV4dD48dGV4dCB0cmFuc2Zvcm09Im1hdHJpeCgxIDAgMCAxIDE5ODguMzkgMTA1OCkiIHRleHQtZGVjb3JhdGlvbj0ibm9uZSIgd3JpdGluZy1tb2RlPSJsci10YiIgZGlyZWN0aW9uPSJsdHIiIHRleHQtYW5jaG9yPSJzdGFydCIgZm9udC1zaXplPSIzMiIgZm9udC1zdHJldGNoPSJub3JtYWwiIGZvbnQtd2VpZ2h0PSIzMDAiIGZvbnQtdmFyaWFudD0ibm9ybWFsIiBmb250LXN0eWxlPSJub3JtYWwiIGZvbnQtZmFtaWx5PSJDaXNjb1NhbnNUVCBFeHRyYUxpZ2h0LENpc2NvU2Fuc1RUIEV4dHJhTGlnaHRfTVNGb250U2VydmljZSxzYW5zLXNlcmlmIiBmaWxsLW9wYWNpdHk9IjEiIGZpbGw9IiNEOTg3MDQiPnNwZWNpZmljIDwvdGV4dD48dGV4dCB0cmFuc2Zvcm09Im1hdHJpeCgxIDAgMCAxIDE5NjUuNDggMTA5NikiIHRleHQtZGVjb3JhdGlvbj0ibm9uZSIgd3JpdGluZy1tb2RlPSJsci10YiIgZGlyZWN0aW9uPSJsdHIiIHRleHQtYW5jaG9yPSJzdGFydCIgZm9udC1zaXplPSIzMiIgZm9udC1zdHJldGNoPSJub3JtYWwiIGZvbnQtd2VpZ2h0PSIzMDAiIGZvbnQtdmFyaWFudD0ibm9ybWFsIiBmb250LXN0eWxlPSJub3JtYWwiIGZvbnQtZmFtaWx5PSJDaXNjb1NhbnNUVCBFeHRyYUxpZ2h0LENpc2NvU2Fuc1RUIEV4dHJhTGlnaHRfTVNGb250U2VydmljZSxzYW5zLXNlcmlmIiBmaWxsLW9wYWNpdHk9IjEiIGZpbGw9IiNEOTg3MDQiPkNhdGFsb2c8L3RleHQ+PHRleHQgdHJhbnNmb3JtPSJtYXRyaXgoMSAwIDAgMSAyMDc2LjA1IDEwOTYpIiB0ZXh0LWRlY29yYXRpb249Im5vbmUiIHdyaXRpbmctbW9kZT0ibHItdGIiIGRpcmVjdGlvbj0ibHRyIiB0ZXh0LWFuY2hvcj0ic3RhcnQiIGZvbnQtc2l6ZT0iMzIiIGZvbnQtc3RyZXRjaD0ibm9ybWFsIiBmb250LXdlaWdodD0iMzAwIiBmb250LXZhcmlhbnQ9Im5vcm1hbCIgZm9udC1zdHlsZT0ibm9ybWFsIiBmb250LWZhbWlseT0iQ2lzY29TYW5zVFQgRXh0cmFMaWdodCxDaXNjb1NhbnNUVCBFeHRyYUxpZ2h0X01TRm9udFNlcnZpY2Usc2Fucy1zZXJpZiIgZmlsbC1vcGFjaXR5PSIxIiBmaWxsPSIjRDk4NzA0Ij4tPC90ZXh0Pjx0ZXh0IHRyYW5zZm9ybT0ibWF0cml4KDEgMCAwIDEgMjA5My4yNCAxMDk2KSIgdGV4dC1kZWNvcmF0aW9uPSJub25lIiB3cml0aW5nLW1vZGU9ImxyLXRiIiBkaXJlY3Rpb249Imx0ciIgdGV4dC1hbmNob3I9InN0YXJ0IiBmb250LXNpemU9IjMyIiBmb250LXN0cmV0Y2g9Im5vcm1hbCIgZm9udC13ZWlnaHQ9IjMwMCIgZm9udC12YXJpYW50PSJub3JtYWwiIGZvbnQtc3R5bGU9Im5vcm1hbCIgZm9udC1mYW1pbHk9IkNpc2NvU2Fuc1RUIEV4dHJhTGlnaHQsQ2lzY29TYW5zVFQgRXh0cmFMaWdodF9NU0ZvbnRTZXJ2aWNlLHNhbnMtc2VyaWYiIGZpbGwtb3BhY2l0eT0iMSIgZmlsbD0iI0Q5ODcwNCI+SUQ8L3RleHQ+PHBhdGggdHJhbnNmb3JtPSJtYXRyaXgoLTEgMCAwIDEgMjE4Ny41MiAxNTYwKSIgZmlsbC1vcGFjaXR5PSIxIiBmaWxsLXJ1bGU9Im5vbnplcm8iIGZpbGw9IiM1NjkzMzQiIGQ9Ik02LjU1ODRlLTA3LTEuMTQ1ODMgNjA3LjYwNy0xLjE0NTQ5IDYwNy42MDcgMS4xNDYxOC02LjU1ODRlLTA3IDEuMTQ1ODNaTTYwMy4wMjMtOS4xNjYzMiA2MzAuNTIzIDAuMDAwMzYwODkyIDYwMy4wMjMgOS4xNjcwMVoiLz48dGV4dCB0cmFuc2Zvcm09Im1hdHJpeCgxIDAgMCAxIDIwMjIuMDggMTQzNikiIHRleHQtZGVjb3JhdGlvbj0ibm9uZSIgd3JpdGluZy1tb2RlPSJsci10YiIgZGlyZWN0aW9uPSJsdHIiIHRleHQtYW5jaG9yPSJzdGFydCIgZm9udC1zaXplPSIzMiIgZm9udC1zdHJldGNoPSJub3JtYWwiIGZvbnQtd2VpZ2h0PSI3MDAiIGZvbnQtdmFyaWFudD0ibm9ybWFsIiBmb250LXN0eWxlPSJub3JtYWwiIGZvbnQtZmFtaWx5PSJDaXNjb1NhbnNUVCBFeHRyYUxpZ2h0LENpc2NvU2Fuc1RUIEV4dHJhTGlnaHRfTVNGb250U2VydmljZSxzYW5zLXNlcmlmIiBmaWxsLW9wYWNpdHk9IjEiIGZpbGw9IiM1NjkzMzQiPig2KTwvdGV4dD48dGV4dCB0cmFuc2Zvcm09Im1hdHJpeCgxIDAgMCAxIDE5ODcuOTkgMTQ4NSkiIHRleHQtZGVjb3JhdGlvbj0ibm9uZSIgd3JpdGluZy1tb2RlPSJsci10YiIgZGlyZWN0aW9uPSJsdHIiIHRleHQtYW5jaG9yPSJzdGFydCIgZm9udC1zaXplPSIzMiIgZm9udC1zdHJldGNoPSJub3JtYWwiIGZvbnQtd2VpZ2h0PSIzMDAiIGZvbnQtdmFyaWFudD0ibm9ybWFsIiBmb250LXN0eWxlPSJub3JtYWwiIGZvbnQtZmFtaWx5PSJDaXNjb1NhbnNUVCBFeHRyYUxpZ2h0LENpc2NvU2Fuc1RUIEV4dHJhTGlnaHRfTVNGb250U2VydmljZSxzYW5zLXNlcmlmIiBmaWxsLW9wYWNpdHk9IjEiIGZpbGw9IiM1NjkzMzQiPlByZXNlbnQgPC90ZXh0Pjx0ZXh0IHRyYW5zZm9ybT0ibWF0cml4KDEgMCAwIDEgMTk0OS42MSAxNTI0KSIgdGV4dC1kZWNvcmF0aW9uPSJub25lIiB3cml0aW5nLW1vZGU9ImxyLXRiIiBkaXJlY3Rpb249Imx0ciIgdGV4dC1hbmNob3I9InN0YXJ0IiBmb250LXNpemU9IjMyIiBmb250LXN0cmV0Y2g9Im5vcm1hbCIgZm9udC13ZWlnaHQ9IjMwMCIgZm9udC12YXJpYW50PSJub3JtYWwiIGZvbnQtc3R5bGU9Im5vcm1hbCIgZm9udC1mYW1pbHk9IkNpc2NvU2Fuc1RUIEV4dHJhTGlnaHQsQ2lzY29TYW5zVFQgRXh0cmFMaWdodF9NU0ZvbnRTZXJ2aWNlLHNhbnMtc2VyaWYiIGZpbGwtb3BhY2l0eT0iMSIgZmlsbD0iIzU2OTMzNCI+QWdlbnQgQmFkZ2U8L3RleHQ+PHBhdGggZmlsbC1vcGFjaXR5PSIxIiBmaWxsLXJ1bGU9Im5vbnplcm8iIGZpbGw9IiMwMDcwQzAiIGQ9Ik0yNDY4LjkyIDUzOS44NTQgMjYxNC4xIDUzOS44NTUgMjYxNC4xIDU0Mi4xNDYgMjQ2OC45MiA1NDIuMTQ2Wk0yNDczLjUgNTUwLjE2NyAyNDQ2IDU0MSAyNDczLjUgNTMxLjgzM1pNMjYwOS41MiA1MzEuODM0IDI2MzcuMDIgNTQxIDI2MDkuNTIgNTUwLjE2N1oiLz48dGV4dCB0cmFuc2Zvcm09Im1hdHJpeCgxIDAgMCAxIDI0ODkuNjYgNDY0KSIgdGV4dC1kZWNvcmF0aW9uPSJub25lIiB3cml0aW5nLW1vZGU9ImxyLXRiIiBkaXJlY3Rpb249Imx0ciIgdGV4dC1hbmNob3I9InN0YXJ0IiBmb250LXNpemU9IjMyIiBmb250LXN0cmV0Y2g9Im5vcm1hbCIgZm9udC13ZWlnaHQ9IjMwMCIgZm9udC12YXJpYW50PSJub3JtYWwiIGZvbnQtc3R5bGU9Im5vcm1hbCIgZm9udC1mYW1pbHk9IkNpc2NvU2Fuc1RUIEV4dHJhTGlnaHQsQ2lzY29TYW5zVFQgRXh0cmFMaWdodF9NU0ZvbnRTZXJ2aWNlLHNhbnMtc2VyaWYiIGZpbGwtb3BhY2l0eT0iMSIgZmlsbD0iIzAwNzBDMCI+TG9va3VwIDwvdGV4dD48dGV4dCB0cmFuc2Zvcm09Im1hdHJpeCgxIDAgMCAxIDI0ODQuMjEgNTAzKSIgdGV4dC1kZWNvcmF0aW9uPSJub25lIiB3cml0aW5nLW1vZGU9ImxyLXRiIiBkaXJlY3Rpb249Imx0ciIgdGV4dC1hbmNob3I9InN0YXJ0IiBmb250LXNpemU9IjMyIiBmb250LXN0cmV0Y2g9Im5vcm1hbCIgZm9udC13ZWlnaHQ9IjMwMCIgZm9udC12YXJpYW50PSJub3JtYWwiIGZvbnQtc3R5bGU9Im5vcm1hbCIgZm9udC1mYW1pbHk9IkNpc2NvU2Fuc1RUIEV4dHJhTGlnaHQsQ2lzY29TYW5zVFQgRXh0cmFMaWdodF9NU0ZvbnRTZXJ2aWNlLHNhbnMtc2VyaWYiIGZpbGwtb3BhY2l0eT0iMSIgZmlsbD0iIzAwNzBDMCI+Zm9yIDwvdGV4dD48dGV4dCB0cmFuc2Zvcm09Im1hdHJpeCgxIDAgMCAxIDI1MzIuOSA1MDMpIiB0ZXh0LWRlY29yYXRpb249Im5vbmUiIHdyaXRpbmctbW9kZT0ibHItdGIiIGRpcmVjdGlvbj0ibHRyIiB0ZXh0LWFuY2hvcj0ic3RhcnQiIGZvbnQtc2l6ZT0iMzIiIGZvbnQtc3RyZXRjaD0ibm9ybWFsIiBmb250LXdlaWdodD0iMzAwIiBmb250LXZhcmlhbnQ9Im5vcm1hbCIgZm9udC1zdHlsZT0ibm9ybWFsIiBmb250LWZhbWlseT0iQ2lzY29TYW5zVFQgRXh0cmFMaWdodCxDaXNjb1NhbnNUVCBFeHRyYUxpZ2h0X01TRm9udFNlcnZpY2Usc2Fucy1zZXJpZiIgZmlsbC1vcGFjaXR5PSIxIiBmaWxsPSIjMDA3MEMwIj5za2lsbHM8L3RleHQ+PHRleHQgdHJhbnNmb3JtPSJtYXRyaXgoMSAwIDAgMSAyNTIzLjY0IDQxNSkiIHRleHQtZGVjb3JhdGlvbj0ibm9uZSIgd3JpdGluZy1tb2RlPSJsci10YiIgZGlyZWN0aW9uPSJsdHIiIHRleHQtYW5jaG9yPSJzdGFydCIgZm9udC1zaXplPSIzMiIgZm9udC1zdHJldGNoPSJub3JtYWwiIGZvbnQtd2VpZ2h0PSI3MDAiIGZvbnQtdmFyaWFudD0ibm9ybWFsIiBmb250LXN0eWxlPSJub3JtYWwiIGZvbnQtZmFtaWx5PSJDaXNjb1NhbnNUVCBFeHRyYUxpZ2h0LENpc2NvU2Fuc1RUIEV4dHJhTGlnaHRfTVNGb250U2VydmljZSxzYW5zLXNlcmlmIiBmaWxsLW9wYWNpdHk9IjEiIGZpbGw9IiMwMDcwQzAiPigyKTwvdGV4dD48cGF0aCBmaWxsLW9wYWNpdHk9IjEiIGZpbGwtcnVsZT0ibm9uemVybyIgZmlsbD0iI0Q5ODcwNCIgZD0iTTI0NzEuOTIgNjAzLjg1NCAyNjE0LjEzIDYwMy44NTQgMjYxNC4xMyA2MDYuMTQ2IDI0NzEuOTIgNjA2LjE0NlpNMjQ3Ni41IDYxNC4xNjcgMjQ0OSA2MDUgMjQ3Ni41IDU5NS44MzNaTTI2MDkuNTQgNTk1LjgzNCAyNjM3LjA0IDYwNSAyNjA5LjU0IDYxNC4xNjdaIi8+PHRleHQgdHJhbnNmb3JtPSJtYXRyaXgoMSAwIDAgMSAyNDcxLjAxIDcxMikiIHRleHQtZGVjb3JhdGlvbj0ibm9uZSIgd3JpdGluZy1tb2RlPSJsci10YiIgZGlyZWN0aW9uPSJsdHIiIHRleHQtYW5jaG9yPSJzdGFydCIgZm9udC1zaXplPSIzMiIgZm9udC1zdHJldGNoPSJub3JtYWwiIGZvbnQtd2VpZ2h0PSIzMDAiIGZvbnQtdmFyaWFudD0ibm9ybWFsIiBmb250LXN0eWxlPSJub3JtYWwiIGZvbnQtZmFtaWx5PSJDaXNjb1NhbnNUVCBFeHRyYUxpZ2h0LENpc2NvU2Fuc1RUIEV4dHJhTGlnaHRfTVNGb250U2VydmljZSxzYW5zLXNlcmlmIiBmaWxsLW9wYWNpdHk9IjEiIGZpbGw9IiNEOTg3MDQiPkxvb2t1cCBmb3IgPC90ZXh0Pjx0ZXh0IHRyYW5zZm9ybT0ibWF0cml4KDEgMCAwIDEgMjQ3MC4xNiA3NTEpIiB0ZXh0LWRlY29yYXRpb249Im5vbmUiIHdyaXRpbmctbW9kZT0ibHItdGIiIGRpcmVjdGlvbj0ibHRyIiB0ZXh0LWFuY2hvcj0ic3RhcnQiIGZvbnQtc2l6ZT0iMzIiIGZvbnQtc3RyZXRjaD0ibm9ybWFsIiBmb250LXdlaWdodD0iMzAwIiBmb250LXZhcmlhbnQ9Im5vcm1hbCIgZm9udC1zdHlsZT0ibm9ybWFsIiBmb250LWZhbWlseT0iQ2lzY29TYW5zVFQgRXh0cmFMaWdodCxDaXNjb1NhbnNUVCBFeHRyYUxpZ2h0X01TRm9udFNlcnZpY2Usc2Fucy1zZXJpZiIgZmlsbC1vcGFjaXR5PSIxIiBmaWxsPSIjRDk4NzA0Ij5DYXRhbG9nPC90ZXh0Pjx0ZXh0IHRyYW5zZm9ybT0ibWF0cml4KDEgMCAwIDEgMjU4MC43MyA3NTEpIiB0ZXh0LWRlY29yYXRpb249Im5vbmUiIHdyaXRpbmctbW9kZT0ibHItdGIiIGRpcmVjdGlvbj0ibHRyIiB0ZXh0LWFuY2hvcj0ic3RhcnQiIGZvbnQtc2l6ZT0iMzIiIGZvbnQtc3RyZXRjaD0ibm9ybWFsIiBmb250LXdlaWdodD0iMzAwIiBmb250LXZhcmlhbnQ9Im5vcm1hbCIgZm9udC1zdHlsZT0ibm9ybWFsIiBmb250LWZhbWlseT0iQ2lzY29TYW5zVFQgRXh0cmFMaWdodCxDaXNjb1NhbnNUVCBFeHRyYUxpZ2h0X01TRm9udFNlcnZpY2Usc2Fucy1zZXJpZiIgZmlsbC1vcGFjaXR5PSIxIiBmaWxsPSIjRDk4NzA0Ij4tPC90ZXh0Pjx0ZXh0IHRyYW5zZm9ybT0ibWF0cml4KDEgMCAwIDEgMjU5Ny45MiA3NTEpIiB0ZXh0LWRlY29yYXRpb249Im5vbmUiIHdyaXRpbmctbW9kZT0ibHItdGIiIGRpcmVjdGlvbj0ibHRyIiB0ZXh0LWFuY2hvcj0ic3RhcnQiIGZvbnQtc2l6ZT0iMzIiIGZvbnQtc3RyZXRjaD0ibm9ybWFsIiBmb250LXdlaWdodD0iMzAwIiBmb250LXZhcmlhbnQ9Im5vcm1hbCIgZm9udC1zdHlsZT0ibm9ybWFsIiBmb250LWZhbWlseT0iQ2lzY29TYW5zVFQgRXh0cmFMaWdodCxDaXNjb1NhbnNUVCBFeHRyYUxpZ2h0X01TRm9udFNlcnZpY2Usc2Fucy1zZXJpZiIgZmlsbC1vcGFjaXR5PSIxIiBmaWxsPSIjRDk4NzA0Ij5JRDwvdGV4dD48dGV4dCB0cmFuc2Zvcm09Im1hdHJpeCgxIDAgMCAxIDI1MjkuMzYgNjYzKSIgdGV4dC1kZWNvcmF0aW9uPSJub25lIiB3cml0aW5nLW1vZGU9ImxyLXRiIiBkaXJlY3Rpb249Imx0ciIgdGV4dC1hbmNob3I9InN0YXJ0IiBmb250LXNpemU9IjMyIiBmb250LXN0cmV0Y2g9Im5vcm1hbCIgZm9udC13ZWlnaHQ9IjcwMCIgZm9udC12YXJpYW50PSJub3JtYWwiIGZvbnQtc3R5bGU9Im5vcm1hbCIgZm9udC1mYW1pbHk9IkNpc2NvU2Fuc1RUIEV4dHJhTGlnaHQsQ2lzY29TYW5zVFQgRXh0cmFMaWdodF9NU0ZvbnRTZXJ2aWNlLHNhbnMtc2VyaWYiIGZpbGwtb3BhY2l0eT0iMSIgZmlsbD0iI0Q5ODcwNCI+KDUpPC90ZXh0PjxwYXRoIGZpbGwtb3BhY2l0eT0iMSIgZmlsbC1ydWxlPSJldmVub2RkIiBmaWxsPSIjNTY5MzM0IiBzdHJva2Utb3BhY2l0eT0iMSIgc3Ryb2tlLW1pdGVybGltaXQ9IjEwIiBzdHJva2UtbGluZWpvaW49InJvdW5kIiBzdHJva2UtbGluZWNhcD0iYnV0dCIgc3Ryb2tlLXdpZHRoPSIyLjI5MTY3IiBzdHJva2U9IiM0MTQyNDQiIGQ9Ik0xMjY5IDc5MUMxMjY5IDc2Ni43IDEyODguNyA3NDcgMTMxMyA3NDdMMTQ4OSA3NDdDMTUxMy4zIDc0NyAxNTMzIDc2Ni43IDE1MzMgNzkxTDE1MzMgMTY1MUMxNTMzIDE2NzUuMyAxNTEzLjMgMTY5NSAxNDg5IDE2OTVMMTMxMyAxNjk1QzEyODguNyAxNjk1IDEyNjkgMTY3NS4zIDEyNjkgMTY1MVoiLz48dGV4dCB0cmFuc2Zvcm09Im1hdHJpeCgxIDAgMCAxIDEzMzQuNzYgMTIzMCkiIHRleHQtZGVjb3JhdGlvbj0ibm9uZSIgd3JpdGluZy1tb2RlPSJsci10YiIgZGlyZWN0aW9uPSJsdHIiIHRleHQtYW5jaG9yPSJzdGFydCIgZm9udC1zaXplPSIzMiIgZm9udC1zdHJldGNoPSJub3JtYWwiIGZvbnQtd2VpZ2h0PSI1MDAiIGZvbnQtdmFyaWFudD0ibm9ybWFsIiBmb250LXN0eWxlPSJub3JtYWwiIGZvbnQtZmFtaWx5PSJDaXNjb1NhbnNUVCBNZWRpdW0sQ2lzY29TYW5zVFQgTWVkaXVtX01TRm9udFNlcnZpY2Usc2Fucy1zZXJpZiIgZmlsbC1vcGFjaXR5PSIxIiBmaWxsPSIjRkZGRkZGIj5SZXNvbHZlcjwvdGV4dD48cGF0aCB0cmFuc2Zvcm09Im1hdHJpeCgxIC0xLjIyNDY1ZS0xNiAtMS4yMjQ2NWUtMTYgLTEgODQ4IDUxMS45NTMpIiBmaWxsLW9wYWNpdHk9IjEiIGZpbGwtcnVsZT0ibm9uemVybyIgZmlsbD0iIzU2OTMzNCIgZD0iTTAuMTUyNTk0IDEuMTM1NjMtMi43MjE4MSAxLjUyMTg2LTIuNDUzNjcgMS40NTIwMy01LjMwNTYgMi41Nzc4NS01LjEwMzg5IDIuNDc0MDktNy45MTA4NSA0LjI5MDIxLTcuNzY4MjIgNC4xODExNy0xMC41MDc3IDYuNjM4MjctMTMuMDU3NSA5LjU4NTY3LTE1LjUyMzYgMTMuMDg2NC0xNy44NzQgMTcuMDkwMy0yMC4wNzk5IDIxLjU0NjMtMjIuMTE0OCAyNi40MDMtMjMuOTUzNyAzMS42MDkzLTI2Ljk1NDggNDIuODk1NS0yOC44Nzk1IDU0Ljk0NDItMjkuNTU2MyA2Ny4zODI1LTI5LjA5NjkgNzMuNTM5MS0yNy43NzYzIDc5LjYzNTctMjUuNjQ5MiA4NS42NTA5LTIyLjc2ODkgOTEuNTM2LTE5LjE5MDQgOTcuMjQwNS0xNC45Njk2IDEwMi43MTMtMTAuMTYzOSAxMDcuOTAxLTQuODMxNTIgMTEyLjc1NSAwLjk2ODcxNiAxMTcuMjIyIDcuMTc3NTUgMTIxLjI1MyAxMy43MzU0IDEyNC43OTcgMjAuNTgyNiAxMjcuODA1IDI3LjY1OTMgMTMwLjIyNyAzNC45MDU3IDEzMi4wMTUgNDIuMjYyMSAxMzMuMTIgNDkuNjY5MyAxMzMuNDk1IDU3LjA4MDMgMTMzLjE2OSA2NC40NDU5IDEzMi4yMjkgNzEuNjk5NiAxMzAuNzE1IDc4Ljc4MTggMTI4LjY2NyA4NS42MzI3IDEyNi4xMjYgOTIuMTkyNiAxMjMuMTM0IDk4LjQwMTcgMTE5LjczMiAxMDQuMiAxMTUuOTY0IDEwOS41MjggMTExLjg3MSAxMTQuMzI3IDEwNy40OTcgMTE4LjUzNyAxMDIuODg2IDExOC4zMjggMTAzLjIxMiAxMjAuMjMgOTguNzMxOCAxMjIuMzM5IDk5LjYyNzMgMTIwLjQzNyAxMDQuMTA3QzEyMC4zODYgMTA0LjIyNyAxMjAuMzE2IDEwNC4zMzcgMTIwLjIyOCAxMDQuNDMzTDExNS44NyAxMDkuMTkyIDExMC45MjMgMTEzLjY4OSAxMDUuNDQ4IDExNy44ODYgOTkuNTAxOSAxMjEuNzQzIDkzLjE0MjggMTI1LjIxOSA4Ni40Mjg3IDEyOC4yNzUgNzkuNDE3NCAxMzAuODY5IDcyLjE2NjggMTMyLjk1OSA2NC43MzQ4IDEzNC41MDMgNTcuMTc5MyAxMzUuNDU5IDQ5LjU1MTcgMTM1Ljc4NCA0MS45MjAyIDEzNS4zODYgMzQuMzU1NSAxMzQuMjQgMjYuOTE2MSAxMzIuMzk1IDE5LjY1OTkgMTI5LjkwMyAxMi42NDQ5IDEyNi44MTMgNS45Mjg3MiAxMjMuMTc1LTAuNDMwNjMxIDExOS4wMzctNi4zNzUwOCAxMTQuNDQ5LTExLjg0NjIgMTA5LjQ1OC0xNi43ODUzIDEwNC4xMTEtMjEuMTMyOCA5OC40NTY1LTI0LjgyODUgOTIuNTQxLTI3LjgxMDggODYuNDExOC0zMC4wMTY5IDgwLjExNjktMzEuMzgyNSA3My43MDYyLTMxLjg0NDUgNjcuMjU2OC0zMS4xNDIzIDU0LjU4MTYtMjkuMTY5NCA0Mi4zMDU5LTI2LjExNDMgMzAuODQ1NC0yNC4yMjgxIDI1LjUxNjUtMjIuMTMzMSAyMC41Mjg0LTE5Ljg0OTQgMTUuOTI4NS0xNy4zOTUzIDExLjc2NC0xNC43ODcyIDguMDgyNDItMTIuMDM3OSA0LjkzMjI3LTkuMjk4MzUgMi40NzUxOEMtOS4yNTM3MSAyLjQzNTE0LTkuMjA2MDcgMi4zOTg3Mi05LjE1NTcyIDIuMzY2MTRMLTYuMzQ4NzcgMC41NTAwMjlDLTYuMjg1MTIgMC41MDg4NS02LjIxNzU3IDAuNDc0MDk5LTYuMTQ3MDYgMC40NDYyNjVMLTMuMjk1MTQtMC42Nzk1NjJDLTMuMjA4OTEtMC43MTM2MDMtMy4xMTg4OC0wLjczNzA0OC0zLjAyNy0wLjc0OTM5NUwtMC4xNTI1OTQtMS4xMzU2M1pNMTExLjA2NiA5OS45NzAxIDEyOS45MjEgNzcuOTUyOCAxMjguMDQ4IDEwNi44OFoiLz48dGV4dCB0cmFuc2Zvcm09Im1hdHJpeCgxIDAgMCAxIDg0MC43NiAzMjcpIiB0ZXh0LWRlY29yYXRpb249Im5vbmUiIHdyaXRpbmctbW9kZT0ibHItdGIiIGRpcmVjdGlvbj0ibHRyIiB0ZXh0LWFuY2hvcj0ic3RhcnQiIGZvbnQtc2l6ZT0iMzIiIGZvbnQtc3RyZXRjaD0ibm9ybWFsIiBmb250LXdlaWdodD0iMzAwIiBmb250LXZhcmlhbnQ9Im5vcm1hbCIgZm9udC1zdHlsZT0ibm9ybWFsIiBmb250LWZhbWlseT0iQ2lzY29TYW5zVFQgRXh0cmFMaWdodCxDaXNjb1NhbnNUVCBFeHRyYUxpZ2h0X01TRm9udFNlcnZpY2Usc2Fucy1zZXJpZiIgZmlsbC1vcGFjaXR5PSIxIiBmaWxsPSIjNTY5MzM0Ij5Mb29rdXA8L3RleHQ+PHBhdGggZmlsbC1ydWxlPSJldmVub2RkIiBmaWxsPSJub25lIiBzdHJva2Utb3BhY2l0eT0iMSIgc3Ryb2tlLW1pdGVybGltaXQ9IjEwIiBzdHJva2UtbGluZWpvaW49InJvdW5kIiBzdHJva2UtbGluZWNhcD0iYnV0dCIgc3Ryb2tlLXdpZHRoPSIxLjE0NTgzIiBzdHJva2U9IiM1NjkzMzQiIGQ9Ik0xNTg5LjgxIDE0Ni4zOTEgMTU4OS44MSAyMTIuNDk3Ii8+PHBhdGggZmlsbC1ydWxlPSJldmVub2RkIiBmaWxsPSJub25lIiBzdHJva2Utb3BhY2l0eT0iMSIgc3Ryb2tlLW1pdGVybGltaXQ9IjEwIiBzdHJva2UtbGluZWpvaW49InJvdW5kIiBzdHJva2UtbGluZWNhcD0iYnV0dCIgc3Ryb2tlLXdpZHRoPSIxLjE0NTgzIiBzdHJva2U9IiM1NjkzMzQiIGQ9Ik0xNzcyLjQ3IDgxLjY3NSAxNzcyLjQ3IDIxMi40OTciLz48cGF0aCBmaWxsLXJ1bGU9ImV2ZW5vZGQiIGZpbGw9Im5vbmUiIHN0cm9rZS1vcGFjaXR5PSIxIiBzdHJva2UtbWl0ZXJsaW1pdD0iMTAiIHN0cm9rZS1saW5lam9pbj0icm91bmQiIHN0cm9rZS1saW5lY2FwPSJidXR0IiBzdHJva2Utd2lkdGg9IjEuMTQ1ODMiIHN0cm9rZT0iIzU2OTMzNCIgZD0iTTE5NDAuNzYgMTQ2LjM5MSAxOTQwLjc2IDIxMi40OTciLz48cGF0aCBmaWxsLXJ1bGU9ImV2ZW5vZGQiIGZpbGw9Im5vbmUiIHN0cm9rZS1vcGFjaXR5PSIxIiBzdHJva2UtbWl0ZXJsaW1pdD0iMTAiIHN0cm9rZS1saW5lam9pbj0icm91bmQiIHN0cm9rZS1saW5lY2FwPSJidXR0IiBzdHJva2Utd2lkdGg9IjEuMTQ1ODMiIHN0cm9rZT0iIzU2OTMzNCIgZD0iTTI0MjQuMzUgMTQ2LjM5MSAyNDI0LjM1IDIxMi40OTciLz48cGF0aCBmaWxsLXJ1bGU9ImV2ZW5vZGQiIGZpbGw9Im5vbmUiIHN0cm9rZS1vcGFjaXR5PSIxIiBzdHJva2UtbWl0ZXJsaW1pdD0iMTAiIHN0cm9rZS1saW5lam9pbj0icm91bmQiIHN0cm9rZS1saW5lY2FwPSJidXR0IiBzdHJva2Utd2lkdGg9IjEuMTQ1ODMiIHN0cm9rZT0iIzU2OTMzNCIgZD0iTTI3MjkuODkgMTQ2LjM5MSAyNzI5Ljg5IDIxMi40OTciLz48cGF0aCBmaWxsLXJ1bGU9ImV2ZW5vZGQiIGZpbGw9Im5vbmUiIHN0cm9rZS1vcGFjaXR5PSIxIiBzdHJva2UtbWl0ZXJsaW1pdD0iMTAiIHN0cm9rZS1saW5lam9pbj0icm91bmQiIHN0cm9rZS1saW5lY2FwPSJidXR0IiBzdHJva2Utd2lkdGg9IjEuMTQ1ODMiIHN0cm9rZT0iIzU2OTMzNCIgZD0iTTEzMDIuODcgMTQ2Ljk2MyAzMDcxLjE4IDE0Ni45NjMiLz48cGF0aCBmaWxsLXJ1bGU9ImV2ZW5vZGQiIGZpbGw9Im5vbmUiIHN0cm9rZS1vcGFjaXR5PSIxIiBzdHJva2UtbWl0ZXJsaW1pdD0iMTAiIHN0cm9rZS1saW5lam9pbj0icm91bmQiIHN0cm9rZS1saW5lY2FwPSJidXR0IiBzdHJva2Utd2lkdGg9IjEuMTQ1ODMiIHN0cm9rZT0iIzU2OTMzNCIgZD0iTTEzMDMuNDQgMTQ2LjM5MSAxMzAzLjQ0IDIxMi40OTciLz48cGF0aCBmaWxsLXJ1bGU9ImV2ZW5vZGQiIGZpbGw9Im5vbmUiIHN0cm9rZS1vcGFjaXR5PSIxIiBzdHJva2UtbWl0ZXJsaW1pdD0iMTAiIHN0cm9rZS1saW5lam9pbj0icm91bmQiIHN0cm9rZS1saW5lY2FwPSJidXR0IiBzdHJva2Utd2lkdGg9IjEuMTQ1ODMiIHN0cm9rZT0iIzU2OTMzNCIgZD0iTTMwNzAuNiA4MS42NzUgMzA3MC42IDIxMi40OTciLz48cGF0aCBmaWxsLXJ1bGU9ImV2ZW5vZGQiIGZpbGw9Im5vbmUiIHN0cm9rZS1vcGFjaXR5PSIxIiBzdHJva2UtbWl0ZXJsaW1pdD0iMTAiIHN0cm9rZS1saW5lam9pbj0icm91bmQiIHN0cm9rZS1saW5lY2FwPSJidXR0IiBzdHJva2Utd2lkdGg9IjEuMTQ1ODMiIHN0cm9rZT0iIzU2OTMzNCIgZD0iTTE3NzEuOSA4Mi4yNDc3IDMwNzEuMTggODIuMjQ3NyIvPjxwYXRoIGZpbGwtcnVsZT0iZXZlbm9kZCIgZmlsbD0ibm9uZSIgc3Ryb2tlLW9wYWNpdHk9IjEiIHN0cm9rZS1taXRlcmxpbWl0PSIxMCIgc3Ryb2tlLWxpbmVqb2luPSJyb3VuZCIgc3Ryb2tlLWxpbmVjYXA9ImJ1dHQiIHN0cm9rZS13aWR0aD0iMS4xNDU4MyIgc3Ryb2tlPSIjNTY5MzM0IiBkPSJNMTMwMi44NyAyMTEuOTI0IDMwNzEuMTggMjExLjkyNCIvPjx0ZXh0IHRyYW5zZm9ybT0ibWF0cml4KDEgMCAwIDEgMjM3MC4yNiAxMjUpIiB0ZXh0LWRlY29yYXRpb249Im5vbmUiIHdyaXRpbmctbW9kZT0ibHItdGIiIGRpcmVjdGlvbj0ibHRyIiB0ZXh0LWFuY2hvcj0ic3RhcnQiIGZvbnQtc2l6ZT0iMzIiIGZvbnQtc3RyZXRjaD0ibm9ybWFsIiBmb250LXdlaWdodD0iMzAwIiBmb250LXZhcmlhbnQ9Im5vcm1hbCIgZm9udC1zdHlsZT0ibm9ybWFsIiBmb250LWZhbWlseT0iQ2lzY29TYW5zVFQgTGlnaHQsQ2lzY29TYW5zVFQgTGlnaHRfTVNGb250U2VydmljZSxzYW5zLXNlcmlmIiBmaWxsLW9wYWNpdHk9IjEiIGZpbGw9IiM1NjkzMzQiPkFnZW50czwvdGV4dD48dGV4dCB0cmFuc2Zvcm09Im1hdHJpeCgxIDAgMCAxIDI4MDMuNzEgMTkwKSIgdGV4dC1kZWNvcmF0aW9uPSJub25lIiB3cml0aW5nLW1vZGU9ImxyLXRiIiBkaXJlY3Rpb249Imx0ciIgdGV4dC1hbmNob3I9InN0YXJ0IiBmb250LXNpemU9IjMyIiBmb250LXN0cmV0Y2g9Im5vcm1hbCIgZm9udC13ZWlnaHQ9IjMwMCIgZm9udC12YXJpYW50PSJub3JtYWwiIGZvbnQtc3R5bGU9Im5vcm1hbCIgZm9udC1mYW1pbHk9IkNpc2NvU2Fuc1RUIExpZ2h0LENpc2NvU2Fuc1RUIExpZ2h0X01TRm9udFNlcnZpY2Usc2Fucy1zZXJpZiIgZmlsbC1vcGFjaXR5PSIxIiBmaWxsPSIjNTY5MzM0Ij5bVkNfeDEsIC4uLi4uLl08L3RleHQ+PHRleHQgdHJhbnNmb3JtPSJtYXRyaXgoMSAwIDAgMSAyNTEyLjEgMTkwKSIgdGV4dC1kZWNvcmF0aW9uPSJub25lIiB3cml0aW5nLW1vZGU9ImxyLXRiIiBkaXJlY3Rpb249Imx0ciIgdGV4dC1hbmNob3I9InN0YXJ0IiBmb250LXNpemU9IjMyIiBmb250LXN0cmV0Y2g9Im5vcm1hbCIgZm9udC13ZWlnaHQ9IjMwMCIgZm9udC12YXJpYW50PSJub3JtYWwiIGZvbnQtc3R5bGU9Im5vcm1hbCIgZm9udC1mYW1pbHk9IkNpc2NvU2Fuc1RUIExpZ2h0LENpc2NvU2Fuc1RUIExpZ2h0X01TRm9udFNlcnZpY2Usc2Fucy1zZXJpZiIgZmlsbC1vcGFjaXR5PSIxIiBmaWxsPSIjNTY5MzM0Ij5CYWRnZV88L3RleHQ+PHRleHQgdHJhbnNmb3JtPSJtYXRyaXgoMSAwIDAgMSAyNjI1LjUzIDE5MCkiIHRleHQtZGVjb3JhdGlvbj0ibm9uZSIgd3JpdGluZy1tb2RlPSJsci10YiIgZGlyZWN0aW9uPSJsdHIiIHRleHQtYW5jaG9yPSJzdGFydCIgZm9udC1zaXplPSIzMiIgZm9udC1zdHJldGNoPSJub3JtYWwiIGZvbnQtd2VpZ2h0PSIzMDAiIGZvbnQtdmFyaWFudD0ibm9ybWFsIiBmb250LXN0eWxlPSJub3JtYWwiIGZvbnQtZmFtaWx5PSJDaXNjb1NhbnNUVCBMaWdodCxDaXNjb1NhbnNUVCBMaWdodF9NU0ZvbnRTZXJ2aWNlLHNhbnMtc2VyaWYiIGZpbGwtb3BhY2l0eT0iMSIgZmlsbD0iIzU2OTMzNCI+eDwvdGV4dD48dGV4dCB0cmFuc2Zvcm09Im1hdHJpeCgxIDAgMCAxIDIwMzMuNiAxOTApIiB0ZXh0LWRlY29yYXRpb249Im5vbmUiIHdyaXRpbmctbW9kZT0ibHItdGIiIGRpcmVjdGlvbj0ibHRyIiB0ZXh0LWFuY2hvcj0ic3RhcnQiIGZvbnQtc2l6ZT0iMzIiIGZvbnQtc3RyZXRjaD0ibm9ybWFsIiBmb250LXdlaWdodD0iMzAwIiBmb250LXZhcmlhbnQ9Im5vcm1hbCIgZm9udC1zdHlsZT0ibm9ybWFsIiBmb250LWZhbWlseT0iQ2lzY29TYW5zVFQgTGlnaHQsQ2lzY29TYW5zVFQgTGlnaHRfTVNGb250U2VydmljZSxzYW5zLXNlcmlmIiBmaWxsLW9wYWNpdHk9IjEiIGZpbGw9IiM1NjkzMzQiPlJlc29sdmVyTWV0YWRhdGFfeDwvdGV4dD48dGV4dCB0cmFuc2Zvcm09Im1hdHJpeCgxIDAgMCAxIDE4MjMuNjcgMTkwKSIgdGV4dC1kZWNvcmF0aW9uPSJub25lIiB3cml0aW5nLW1vZGU9ImxyLXRiIiBkaXJlY3Rpb249Imx0ciIgdGV4dC1hbmNob3I9InN0YXJ0IiBmb250LXNpemU9IjMyIiBmb250LXN0cmV0Y2g9Im5vcm1hbCIgZm9udC13ZWlnaHQ9IjMwMCIgZm9udC12YXJpYW50PSJub3JtYWwiIGZvbnQtc3R5bGU9Im5vcm1hbCIgZm9udC1mYW1pbHk9IkNpc2NvU2Fuc1RUIExpZ2h0LENpc2NvU2Fuc1RUIExpZ2h0X01TRm9udFNlcnZpY2Usc2Fucy1zZXJpZiIgZmlsbC1vcGFjaXR5PSIxIiBmaWxsPSIjNTY5MzM0Ij5JRF94PC90ZXh0Pjx0ZXh0IHRyYW5zZm9ybT0ibWF0cml4KDEgMCAwIDEgMTYyMC40MSAxOTApIiB0ZXh0LWRlY29yYXRpb249Im5vbmUiIHdyaXRpbmctbW9kZT0ibHItdGIiIGRpcmVjdGlvbj0ibHRyIiB0ZXh0LWFuY2hvcj0ic3RhcnQiIGZvbnQtc2l6ZT0iMzIiIGZvbnQtc3RyZXRjaD0ibm9ybWFsIiBmb250LXdlaWdodD0iNzAwIiBmb250LXZhcmlhbnQ9Im5vcm1hbCIgZm9udC1zdHlsZT0ibm9ybWFsIiBmb250LWZhbWlseT0iQ2lzY29TYW5zVFQsQ2lzY29TYW5zVFRfTVNGb250U2VydmljZSxzYW5zLXNlcmlmIiBmaWxsLW9wYWNpdHk9IjEiIGZpbGw9IiM1NjkzMzQiPlB1YktleTwvdGV4dD48dGV4dCB0cmFuc2Zvcm09Im1hdHJpeCgxIDAgMCAxIDEzNTIuMSAxOTApIiB0ZXh0LWRlY29yYXRpb249Im5vbmUiIHdyaXRpbmctbW9kZT0ibHItdGIiIGRpcmVjdGlvbj0ibHRyIiB0ZXh0LWFuY2hvcj0ic3RhcnQiIGZvbnQtc2l6ZT0iMzIiIGZvbnQtc3RyZXRjaD0ibm9ybWFsIiBmb250LXdlaWdodD0iNzAwIiBmb250LXZhcmlhbnQ9Im5vcm1hbCIgZm9udC1zdHlsZT0ibm9ybWFsIiBmb250LWZhbWlseT0iQ2lzY29TYW5zVFQsQ2lzY29TYW5zVFRfTVNGb250U2VydmljZSxzYW5zLXNlcmlmIiBmaWxsLW9wYWNpdHk9IjEiIGZpbGw9IiM1NjkzMzQiPm9yZzpzdWI8L3RleHQ+PHRleHQgdHJhbnNmb3JtPSJtYXRyaXgoMSAwIDAgMSAxNDcxLjI2IDE5MCkiIHRleHQtZGVjb3JhdGlvbj0ibm9uZSIgd3JpdGluZy1tb2RlPSJsci10YiIgZGlyZWN0aW9uPSJsdHIiIHRleHQtYW5jaG9yPSJzdGFydCIgZm9udC1zaXplPSIzMiIgZm9udC1zdHJldGNoPSJub3JtYWwiIGZvbnQtd2VpZ2h0PSI3MDAiIGZvbnQtdmFyaWFudD0ibm9ybWFsIiBmb250LXN0eWxlPSJub3JtYWwiIGZvbnQtZmFtaWx5PSJDaXNjb1NhbnNUVCxDaXNjb1NhbnNUVF9NU0ZvbnRTZXJ2aWNlLHNhbnMtc2VyaWYiIGZpbGwtb3BhY2l0eT0iMSIgZmlsbD0iIzU2OTMzNCI+LTwvdGV4dD48dGV4dCB0cmFuc2Zvcm09Im1hdHJpeCgxIDAgMCAxIDE0ODguNDUgMTkwKSIgdGV4dC1kZWNvcmF0aW9uPSJub25lIiB3cml0aW5nLW1vZGU9ImxyLXRiIiBkaXJlY3Rpb249Imx0ciIgdGV4dC1hbmNob3I9InN0YXJ0IiBmb250LXNpemU9IjMyIiBmb250LXN0cmV0Y2g9Im5vcm1hbCIgZm9udC13ZWlnaHQ9IjcwMCIgZm9udC12YXJpYW50PSJub3JtYWwiIGZvbnQtc3R5bGU9Im5vcm1hbCIgZm9udC1mYW1pbHk9IkNpc2NvU2Fuc1RULENpc2NvU2Fuc1RUX01TRm9udFNlcnZpY2Usc2Fucy1zZXJpZiIgZmlsbC1vcGFjaXR5PSIxIiBmaWxsPSIjNTY5MzM0Ij5vcmc8L3RleHQ+PHBhdGggZmlsbC1ydWxlPSJldmVub2RkIiBmaWxsPSJub25lIiBzdHJva2Utb3BhY2l0eT0iMSIgc3Ryb2tlLW1pdGVybGltaXQ9IjgiIHN0cm9rZS1saW5lam9pbj0ibWl0ZXIiIHN0cm9rZS1saW5lY2FwPSJidXR0IiBzdHJva2Utd2lkdGg9IjIuMjkxNjciIHN0cm9rZT0iIzQxNDI0NCIgZD0iTTIyMjUgNDM3LjY2N0MyMjI1IDQyMS4yODIgMjIzOC4yOCA0MDggMjI1NC42NyA0MDhMMjM3My4zMyA0MDhDMjM4OS43MiA0MDggMjQwMyA0MjEuMjgyIDI0MDMgNDM3LjY2N0wyNDAzIDE2NTcuMzNDMjQwMyAxNjczLjcyIDIzODkuNzIgMTY4NyAyMzczLjMzIDE2ODdMMjI1NC42NyAxNjg3QzIyMzguMjggMTY4NyAyMjI1IDE2NzMuNzIgMjIyNSAxNjU3LjMzWiIvPjx0ZXh0IHRyYW5zZm9ybT0ibWF0cml4KDEgMCAwIDEgMjI4MC4wNSAxMDE1KSIgdGV4dC1kZWNvcmF0aW9uPSJub25lIiB3cml0aW5nLW1vZGU9ImxyLXRiIiBkaXJlY3Rpb249Imx0ciIgdGV4dC1hbmNob3I9InN0YXJ0IiBmb250LXNpemU9IjMyIiBmb250LXN0cmV0Y2g9Im5vcm1hbCIgZm9udC13ZWlnaHQ9IjcwMCIgZm9udC12YXJpYW50PSJub3JtYWwiIGZvbnQtc3R5bGU9Im5vcm1hbCIgZm9udC1mYW1pbHk9IkNpc2NvU2Fuc1RULENpc2NvU2Fuc1RUX01TRm9udFNlcnZpY2Usc2Fucy1zZXJpZiIgZmlsbC1vcGFjaXR5PSIxIiBmaWxsPSIjMDAwMDAwIj5BRFMgPC90ZXh0Pjx0ZXh0IHRyYW5zZm9ybT0ibWF0cml4KDEgMCAwIDEgMjI2MC41NyAxMDYxKSIgdGV4dC1kZWNvcmF0aW9uPSJub25lIiB3cml0aW5nLW1vZGU9ImxyLXRiIiBkaXJlY3Rpb249Imx0ciIgdGV4dC1hbmNob3I9InN0YXJ0IiBmb250LXNpemU9IjMyIiBmb250LXN0cmV0Y2g9Im5vcm1hbCIgZm9udC13ZWlnaHQ9IjcwMCIgZm9udC12YXJpYW50PSJub3JtYWwiIGZvbnQtc3R5bGU9Im5vcm1hbCIgZm9udC1mYW1pbHk9IkNpc2NvU2Fuc1RULENpc2NvU2Fuc1RUX01TRm9udFNlcnZpY2Usc2Fucy1zZXJpZiIgZmlsbC1vcGFjaXR5PSIxIiBmaWxsPSIjMDAwMDAwIj5jbGllbnQgLyA8L3RleHQ+PHRleHQgdHJhbnNmb3JtPSJtYXRyaXgoMSAwIDAgMSAyMjg4LjA3IDExMDcpIiB0ZXh0LWRlY29yYXRpb249Im5vbmUiIHdyaXRpbmctbW9kZT0ibHItdGIiIGRpcmVjdGlvbj0ibHRyIiB0ZXh0LWFuY2hvcj0ic3RhcnQiIGZvbnQtc2l6ZT0iMzIiIGZvbnQtc3RyZXRjaD0ibm9ybWFsIiBmb250LXdlaWdodD0iNzAwIiBmb250LXZhcmlhbnQ9Im5vcm1hbCIgZm9udC1zdHlsZT0ibm9ybWFsIiBmb250LWZhbWlseT0iQ2lzY29TYW5zVFQsQ2lzY29TYW5zVFRfTVNGb250U2VydmljZSxzYW5zLXNlcmlmIiBmaWxsLW9wYWNpdHk9IjEiIGZpbGw9IiMwMDAwMDAiPkNMSTwvdGV4dD48dGV4dCB0cmFuc2Zvcm09Im1hdHJpeCgxIDAgMCAxIDIwMjIuMzMgNDE1KSIgdGV4dC1kZWNvcmF0aW9uPSJub25lIiB3cml0aW5nLW1vZGU9ImxyLXRiIiBkaXJlY3Rpb249Imx0ciIgdGV4dC1hbmNob3I9InN0YXJ0IiBmb250LXNpemU9IjMyIiBmb250LXN0cmV0Y2g9Im5vcm1hbCIgZm9udC13ZWlnaHQ9IjcwMCIgZm9udC12YXJpYW50PSJub3JtYWwiIGZvbnQtc3R5bGU9Im5vcm1hbCIgZm9udC1mYW1pbHk9IkNpc2NvU2Fuc1RUIEV4dHJhTGlnaHQsQ2lzY29TYW5zVFQgRXh0cmFMaWdodF9NU0ZvbnRTZXJ2aWNlLHNhbnMtc2VyaWYiIGZpbGwtb3BhY2l0eT0iMSIgZmlsbD0iIzAwNzBDMCI+KDEpPC90ZXh0PjxwYXRoIGZpbGwtb3BhY2l0eT0iMSIgZmlsbC1ydWxlPSJub256ZXJvIiBmaWxsPSIjMDA3MEMwIiBkPSJNMTg4NiA1NzkuODU0IDIxNjMuOTQgNTc5Ljg1NCAyMTYzLjk0IDU4Mi4xNDYgMTg4NiA1ODIuMTQ2Wk0yMTU5LjM1IDU3MS44MzQgMjE4Ni44NSA1ODEgMjE1OS4zNSA1OTAuMTY3WiIvPjx0ZXh0IHRyYW5zZm9ybT0ibWF0cml4KDEgMCAwIDEgMTkyNS4yMiA0NzgpIiB0ZXh0LWRlY29yYXRpb249Im5vbmUiIHdyaXRpbmctbW9kZT0ibHItdGIiIGRpcmVjdGlvbj0ibHRyIiB0ZXh0LWFuY2hvcj0ic3RhcnQiIGZvbnQtc2l6ZT0iMzIiIGZvbnQtc3RyZXRjaD0ibm9ybWFsIiBmb250LXdlaWdodD0iMzAwIiBmb250LXZhcmlhbnQ9Im5vcm1hbCIgZm9udC1zdHlsZT0ibm9ybWFsIiBmb250LWZhbWlseT0iQ2lzY29TYW5zVFQgRXh0cmFMaWdodCxDaXNjb1NhbnNUVCBFeHRyYUxpZ2h0X01TRm9udFNlcnZpY2Usc2Fucy1zZXJpZiIgZmlsbC1vcGFjaXR5PSIxIiBmaWxsPSIjMDA3MEMwIj5RdWVyeSBzZWFyY2hpbmcgPC90ZXh0Pjx0ZXh0IHRyYW5zZm9ybT0ibWF0cml4KDEgMCAwIDEgMTk0MC4zOSA1MTcpIiB0ZXh0LWRlY29yYXRpb249Im5vbmUiIHdyaXRpbmctbW9kZT0ibHItdGIiIGRpcmVjdGlvbj0ibHRyIiB0ZXh0LWFuY2hvcj0ic3RhcnQiIGZvbnQtc2l6ZT0iMzIiIGZvbnQtc3RyZXRjaD0ibm9ybWFsIiBmb250LXdlaWdodD0iMzAwIiBmb250LXZhcmlhbnQ9Im5vcm1hbCIgZm9udC1zdHlsZT0ibm9ybWFsIiBmb250LWZhbWlseT0iQ2lzY29TYW5zVFQgRXh0cmFMaWdodCxDaXNjb1NhbnNUVCBFeHRyYUxpZ2h0X01TRm9udFNlcnZpY2Usc2Fucy1zZXJpZiIgZmlsbC1vcGFjaXR5PSIxIiBmaWxsPSIjMDA3MEMwIj5mb3IgYSBnaXZlbiBzZXQgPC90ZXh0Pjx0ZXh0IHRyYW5zZm9ybT0ibWF0cml4KDEgMCAwIDEgMTk5MC44MSA1NTUpIiB0ZXh0LWRlY29yYXRpb249Im5vbmUiIHdyaXRpbmctbW9kZT0ibHItdGIiIGRpcmVjdGlvbj0ibHRyIiB0ZXh0LWFuY2hvcj0ic3RhcnQiIGZvbnQtc2l6ZT0iMzIiIGZvbnQtc3RyZXRjaD0ibm9ybWFsIiBmb250LXdlaWdodD0iMzAwIiBmb250LXZhcmlhbnQ9Im5vcm1hbCIgZm9udC1zdHlsZT0ibm9ybWFsIiBmb250LWZhbWlseT0iQ2lzY29TYW5zVFQgRXh0cmFMaWdodCxDaXNjb1NhbnNUVCBFeHRyYUxpZ2h0X01TRm9udFNlcnZpY2Usc2Fucy1zZXJpZiIgZmlsbC1vcGFjaXR5PSIxIiBmaWxsPSIjMDA3MEMwIj5vZiBza2lsbHM8L3RleHQ+PHBhdGggZmlsbC1ydWxlPSJldmVub2RkIiBmaWxsPSJub25lIiBzdHJva2Utb3BhY2l0eT0iMSIgc3Ryb2tlLW1pdGVybGltaXQ9IjgiIHN0cm9rZS1saW5lam9pbj0ibWl0ZXIiIHN0cm9rZS1saW5lY2FwPSJidXR0IiBzdHJva2Utd2lkdGg9IjIuMjkxNjciIHN0cm9rZT0iIzQxNDI0NCIgZD0iTTE2NTggNDQ0LjE2N0MxNjU4IDQyNC4xOTMgMTY3NC4xOSA0MDggMTY5NC4xNyA0MDhMMTgzOC44MyA0MDhDMTg1OC44MSA0MDggMTg3NSA0MjQuMTkzIDE4NzUgNDQ0LjE2N0wxODc1IDEzMzAuODNDMTg3NSAxMzUwLjgxIDE4NTguODEgMTM2NyAxODM4LjgzIDEzNjdMMTY5NC4xNyAxMzY3QzE2NzQuMTkgMTM2NyAxNjU4IDEzNTAuODEgMTY1OCAxMzMwLjgzWiIvPjx0ZXh0IHRyYW5zZm9ybT0ibWF0cml4KDEgMCAwIDEgMTcxOS43MSA4NzgpIiB0ZXh0LWRlY29yYXRpb249Im5vbmUiIHdyaXRpbmctbW9kZT0ibHItdGIiIGRpcmVjdGlvbj0ibHRyIiB0ZXh0LWFuY2hvcj0ic3RhcnQiIGZvbnQtc2l6ZT0iMzIiIGZvbnQtc3RyZXRjaD0ibm9ybWFsIiBmb250LXdlaWdodD0iNzAwIiBmb250LXZhcmlhbnQ9Im5vcm1hbCIgZm9udC1zdHlsZT0ibm9ybWFsIiBmb250LWZhbWlseT0iQ2lzY29TYW5zVFQsQ2lzY29TYW5zVFRfTVNGb250U2VydmljZSxzYW5zLXNlcmlmIiBmaWxsLW9wYWNpdHk9IjEiIGZpbGw9IiMwMDAwMDAiPkFnZW50PC90ZXh0Pjx0ZXh0IHRyYW5zZm9ybT0ibWF0cml4KDEgMCAwIDEgMTY4NS42MSA5MjQpIiB0ZXh0LWRlY29yYXRpb249Im5vbmUiIHdyaXRpbmctbW9kZT0ibHItdGIiIGRpcmVjdGlvbj0ibHRyIiB0ZXh0LWFuY2hvcj0ic3RhcnQiIGZvbnQtc2l6ZT0iMzIiIGZvbnQtc3RyZXRjaD0ibm9ybWFsIiBmb250LXdlaWdodD0iNzAwIiBmb250LXZhcmlhbnQ9Im5vcm1hbCIgZm9udC1zdHlsZT0ibm9ybWFsIiBmb250LWZhbWlseT0iQ2lzY29TYW5zVFQsQ2lzY29TYW5zVFRfTVNGb250U2VydmljZSxzYW5zLXNlcmlmIiBmaWxsLW9wYWNpdHk9IjEiIGZpbGw9IiMwMDAwMDAiPkNvbnN1bWVyPC90ZXh0PjxwYXRoIHRyYW5zZm9ybT0ibWF0cml4KDEgMCAwIC0xIDk4NCAyNjQuNTQzKSIgZmlsbC1vcGFjaXR5PSIxIiBmaWxsLXJ1bGU9Im5vbnplcm8iIGZpbGw9IiM1NjkzMzQiIGQ9Ik0wLjMwNDU1My0xLjEwNDYyIDI2My4wODkgNzEuMzQ3NSAyNjIuNDggNzMuNTU2OC0wLjMwNDU1MyAxLjEwNDYyWk0yNjAuODAyIDYyLjM5NjkgMjg0Ljg3NyA3OC41NDMyIDI1NS45MyA4MC4wNzA4WiIvPjxwYXRoIGZpbGwtb3BhY2l0eT0iMSIgZmlsbC1ydWxlPSJub256ZXJvIiBmaWxsPSIjNTY5MzM0IiBkPSJNMTI1MS4wNSA3OTQuNDE3IDExMjcuNTIgNjU3Ljc2OCAxMTI5LjIyIDY1Ni4yMzIgMTI1Mi43NSA3OTIuODhaTTExMjQuNjQgNjY2LjU0NyAxMTEzIDY0MCAxMTM4LjI0IDY1NC4yNTNaIi8+PHJlY3QgZmlsbC1vcGFjaXR5PSIxIiBmaWxsPSIjNTY5MzM0IiBzdHJva2Utb3BhY2l0eT0iMSIgc3Ryb2tlLW1pdGVybGltaXQ9IjEwIiBzdHJva2UtbGluZWpvaW49InJvdW5kIiBzdHJva2UtbGluZWNhcD0iYnV0dCIgc3Ryb2tlLXdpZHRoPSIyLjI5MTY3IiBzdHJva2U9IiM0MTQyNDQiIGhlaWdodD0iMTQ3IiB3aWR0aD0iMjg5IiB5PSI0MzgiIHg9Ijg1NCIvPjx0ZXh0IHRyYW5zZm9ybT0ibWF0cml4KDEgMCAwIDEgOTYyLjMxMyA1MDMpIiB0ZXh0LWRlY29yYXRpb249Im5vbmUiIHdyaXRpbmctbW9kZT0ibHItdGIiIGRpcmVjdGlvbj0ibHRyIiB0ZXh0LWFuY2hvcj0ic3RhcnQiIGZvbnQtc2l6ZT0iMzIiIGZvbnQtc3RyZXRjaD0ibm9ybWFsIiBmb250LXdlaWdodD0iMzAwIiBmb250LXZhcmlhbnQ9Im5vcm1hbCIgZm9udC1zdHlsZT0ibm9ybWFsIiBmb250LWZhbWlseT0iQ2lzY29TYW5zVFQgRXh0cmFMaWdodCxDaXNjb1NhbnNUVCBFeHRyYUxpZ2h0X01TRm9udFNlcnZpY2Usc2Fucy1zZXJpZiIgZmlsbC1vcGFjaXR5PSIxIiBmaWxsPSIjRkZGRkZGIj5UcnVzdCA8L3RleHQ+PHRleHQgdHJhbnNmb3JtPSJtYXRyaXgoMSAwIDAgMSA5MzkuMTIyIDU0MikiIHRleHQtZGVjb3JhdGlvbj0ibm9uZSIgd3JpdGluZy1tb2RlPSJsci10YiIgZGlyZWN0aW9uPSJsdHIiIHRleHQtYW5jaG9yPSJzdGFydCIgZm9udC1zaXplPSIzMiIgZm9udC1zdHJldGNoPSJub3JtYWwiIGZvbnQtd2VpZ2h0PSIzMDAiIGZvbnQtdmFyaWFudD0ibm9ybWFsIiBmb250LXN0eWxlPSJub3JtYWwiIGZvbnQtZmFtaWx5PSJDaXNjb1NhbnNUVCBFeHRyYUxpZ2h0LENpc2NvU2Fuc1RUIEV4dHJhTGlnaHRfTVNGb250U2VydmljZSxzYW5zLXNlcmlmIiBmaWxsLW9wYWNpdHk9IjEiIGZpbGw9IiNGRkZGRkYiPkFuY2hvcnM8L3RleHQ+PHJlY3QgZmlsbC1vcGFjaXR5PSIxIiBmaWxsPSIjNTY5MzM0IiBzdHJva2Utb3BhY2l0eT0iMSIgc3Ryb2tlLW1pdGVybGltaXQ9IjEwIiBzdHJva2UtbGluZWpvaW49InJvdW5kIiBzdHJva2UtbGluZWNhcD0iYnV0dCIgc3Ryb2tlLXdpZHRoPSIyLjI5MTY3IiBzdHJva2U9IiM0MTQyNDQiIGhlaWdodD0iMTQ3IiB3aWR0aD0iMjg5IiB5PSI0NTYiIHg9Ijg4NiIvPjx0ZXh0IHRyYW5zZm9ybT0ibWF0cml4KDEgMCAwIDEgOTk0LjM5MSA1MjEpIiB0ZXh0LWRlY29yYXRpb249Im5vbmUiIHdyaXRpbmctbW9kZT0ibHItdGIiIGRpcmVjdGlvbj0ibHRyIiB0ZXh0LWFuY2hvcj0ic3RhcnQiIGZvbnQtc2l6ZT0iMzIiIGZvbnQtc3RyZXRjaD0ibm9ybWFsIiBmb250LXdlaWdodD0iMzAwIiBmb250LXZhcmlhbnQ9Im5vcm1hbCIgZm9udC1zdHlsZT0ibm9ybWFsIiBmb250LWZhbWlseT0iQ2lzY29TYW5zVFQgRXh0cmFMaWdodCxDaXNjb1NhbnNUVCBFeHRyYUxpZ2h0X01TRm9udFNlcnZpY2Usc2Fucy1zZXJpZiIgZmlsbC1vcGFjaXR5PSIxIiBmaWxsPSIjRkZGRkZGIj5UcnVzdCA8L3RleHQ+PHRleHQgdHJhbnNmb3JtPSJtYXRyaXgoMSAwIDAgMSA5NzEuMiA1NjApIiB0ZXh0LWRlY29yYXRpb249Im5vbmUiIHdyaXRpbmctbW9kZT0ibHItdGIiIGRpcmVjdGlvbj0ibHRyIiB0ZXh0LWFuY2hvcj0ic3RhcnQiIGZvbnQtc2l6ZT0iMzIiIGZvbnQtc3RyZXRjaD0ibm9ybWFsIiBmb250LXdlaWdodD0iMzAwIiBmb250LXZhcmlhbnQ9Im5vcm1hbCIgZm9udC1zdHlsZT0ibm9ybWFsIiBmb250LWZhbWlseT0iQ2lzY29TYW5zVFQgRXh0cmFMaWdodCxDaXNjb1NhbnNUVCBFeHRyYUxpZ2h0X01TRm9udFNlcnZpY2Usc2Fucy1zZXJpZiIgZmlsbC1vcGFjaXR5PSIxIiBmaWxsPSIjRkZGRkZGIj5BbmNob3JzPC90ZXh0PjxyZWN0IGZpbGwtb3BhY2l0eT0iMSIgZmlsbD0iIzU2OTMzNCIgc3Ryb2tlLW9wYWNpdHk9IjEiIHN0cm9rZS1taXRlcmxpbWl0PSIxMCIgc3Ryb2tlLWxpbmVqb2luPSJyb3VuZCIgc3Ryb2tlLWxpbmVjYXA9ImJ1dHQiIHN0cm9rZS13aWR0aD0iMi4yOTE2NyIgc3Ryb2tlPSIjNDE0MjQ0IiBoZWlnaHQ9IjE0NyIgd2lkdGg9IjI4OSIgeT0iNDc4IiB4PSI5MjQiLz48dGV4dCB0cmFuc2Zvcm09Im1hdHJpeCgxIDAgMCAxIDk1OC4xOTQgNTQxKSIgdGV4dC1kZWNvcmF0aW9uPSJub25lIiB3cml0aW5nLW1vZGU9ImxyLXRiIiBkaXJlY3Rpb249Imx0ciIgdGV4dC1hbmNob3I9InN0YXJ0IiBmb250LXNpemU9IjMyIiBmb250LXN0cmV0Y2g9Im5vcm1hbCIgZm9udC13ZWlnaHQ9IjUwMCIgZm9udC12YXJpYW50PSJub3JtYWwiIGZvbnQtc3R5bGU9Im5vcm1hbCIgZm9udC1mYW1pbHk9IkNpc2NvU2Fuc1RUIE1lZGl1bSxDaXNjb1NhbnNUVCBNZWRpdW1fTVNGb250U2VydmljZSxzYW5zLXNlcmlmIiBmaWxsLW9wYWNpdHk9IjEiIGZpbGw9IiNGRkZGRkYiPklkZW50aXR5IE5vZGVzIDwvdGV4dD48dGV4dCB0cmFuc2Zvcm09Im1hdHJpeCgxIDAgMCAxIDEwMzMuNTIgNTgwKSIgdGV4dC1kZWNvcmF0aW9uPSJub25lIiB3cml0aW5nLW1vZGU9ImxyLXRiIiBkaXJlY3Rpb249Imx0ciIgdGV4dC1hbmNob3I9InN0YXJ0IiBmb250LXNpemU9IjMyIiBmb250LXN0cmV0Y2g9Im5vcm1hbCIgZm9udC13ZWlnaHQ9IjUwMCIgZm9udC12YXJpYW50PSJub3JtYWwiIGZvbnQtc3R5bGU9Im5vcm1hbCIgZm9udC1mYW1pbHk9IkNpc2NvU2Fuc1RUIE1lZGl1bSxDaXNjb1NhbnNUVCBNZWRpdW1fTVNGb250U2VydmljZSxzYW5zLXNlcmlmIiBmaWxsLW9wYWNpdHk9IjEiIGZpbGw9IiNGRkZGRkYiPihJTnMpPC90ZXh0Pjx0ZXh0IHRyYW5zZm9ybT0ibWF0cml4KDEgMCAwIDEgMTI4MS44MSA2OTEpIiB0ZXh0LWRlY29yYXRpb249Im5vbmUiIHdyaXRpbmctbW9kZT0ibHItdGIiIGRpcmVjdGlvbj0ibHRyIiB0ZXh0LWFuY2hvcj0ic3RhcnQiIGZvbnQtc2l6ZT0iMzIiIGZvbnQtc3RyZXRjaD0ibm9ybWFsIiBmb250LXdlaWdodD0iMzAwIiBmb250LXZhcmlhbnQ9Im5vcm1hbCIgZm9udC1zdHlsZT0ibm9ybWFsIiBmb250LWZhbWlseT0iQ2lzY29TYW5zVFQgRXh0cmFMaWdodCxDaXNjb1NhbnNUVCBFeHRyYUxpZ2h0X01TRm9udFNlcnZpY2Usc2Fucy1zZXJpZiIgZmlsbC1vcGFjaXR5PSIxIiBmaWxsPSIjNTY5MzM0Ij5leHRyYWN0IElEIDwvdGV4dD48dGV4dCB0cmFuc2Zvcm09Im1hdHJpeCgxIDAgMCAxIDEyMDMuNzMgNjkxKSIgdGV4dC1kZWNvcmF0aW9uPSJub25lIiB3cml0aW5nLW1vZGU9ImxyLXRiIiBkaXJlY3Rpb249Imx0ciIgdGV4dC1hbmNob3I9InN0YXJ0IiBmb250LXNpemU9IjMyIiBmb250LXN0cmV0Y2g9Im5vcm1hbCIgZm9udC13ZWlnaHQ9IjcwMCIgZm9udC12YXJpYW50PSJub3JtYWwiIGZvbnQtc3R5bGU9Im5vcm1hbCIgZm9udC1mYW1pbHk9IkNpc2NvU2Fuc1RUIEV4dHJhTGlnaHQsQ2lzY29TYW5zVFQgRXh0cmFMaWdodF9NU0ZvbnRTZXJ2aWNlLHNhbnMtc2VyaWYiIGZpbGwtb3BhY2l0eT0iMSIgZmlsbD0iIzU2OTMzNCI+KDdhKTwvdGV4dD48cGF0aCBmaWxsLW9wYWNpdHk9IjEiIGZpbGwtcnVsZT0ibm9uemVybyIgZmlsbD0iIzU2OTMzNCIgZD0iTTEwMjkuODUgNjI3LjIzNCAxMjQ1LjgzIDg2Ny43NTkgMTI0NC4xMyA4NjkuMjkgMTAyOC4xNSA2MjguNzY2Wk0xMjQ4Ljc0IDg1OC45OSAxMjYwLjI5IDg4NS41NzUgMTIzNS4xIDg3MS4yMzlaIi8+PHRleHQgdHJhbnNmb3JtPSJtYXRyaXgoMSAwIDAgMSAxMDQxLjA4IDExMDgpIiB0ZXh0LWRlY29yYXRpb249Im5vbmUiIHdyaXRpbmctbW9kZT0ibHItdGIiIGRpcmVjdGlvbj0ibHRyIiB0ZXh0LWFuY2hvcj0ic3RhcnQiIGZvbnQtc2l6ZT0iMzIiIGZvbnQtc3RyZXRjaD0ibm9ybWFsIiBmb250LXdlaWdodD0iMzAwIiBmb250LXZhcmlhbnQ9Im5vcm1hbCIgZm9udC1zdHlsZT0ibm9ybWFsIiBmb250LWZhbWlseT0iQ2lzY29TYW5zVFQgRXh0cmFMaWdodCxDaXNjb1NhbnNUVCBFeHRyYUxpZ2h0X01TRm9udFNlcnZpY2Usc2Fucy1zZXJpZiIgZmlsbC1vcGFjaXR5PSIxIiBmaWxsPSIjNTY5MzM0Ij5wcmVzZW50PC90ZXh0Pjx0ZXh0IHRyYW5zZm9ybT0ibWF0cml4KDEgMCAwIDEgMTAzMy4zMyAxMTQ3KSIgdGV4dC1kZWNvcmF0aW9uPSJub25lIiB3cml0aW5nLW1vZGU9ImxyLXRiIiBkaXJlY3Rpb249Imx0ciIgdGV4dC1hbmNob3I9InN0YXJ0IiBmb250LXNpemU9IjMyIiBmb250LXN0cmV0Y2g9Im5vcm1hbCIgZm9udC13ZWlnaHQ9IjMwMCIgZm9udC12YXJpYW50PSJub3JtYWwiIGZvbnQtc3R5bGU9Im5vcm1hbCIgZm9udC1mYW1pbHk9IkNpc2NvU2Fuc1RUIEV4dHJhTGlnaHQsQ2lzY29TYW5zVFQgRXh0cmFMaWdodF9NU0ZvbnRTZXJ2aWNlLHNhbnMtc2VyaWYiIGZpbGwtb3BhY2l0eT0iMSIgZmlsbD0iIzU2OTMzNCI+UmVzb2x2ZXIgPC90ZXh0Pjx0ZXh0IHRyYW5zZm9ybT0ibWF0cml4KDEgMCAwIDEgMTAyOC40NyAxMTg1KSIgdGV4dC1kZWNvcmF0aW9uPSJub25lIiB3cml0aW5nLW1vZGU9ImxyLXRiIiBkaXJlY3Rpb249Imx0ciIgdGV4dC1hbmNob3I9InN0YXJ0IiBmb250LXNpemU9IjMyIiBmb250LXN0cmV0Y2g9Im5vcm1hbCIgZm9udC13ZWlnaHQ9IjMwMCIgZm9udC12YXJpYW50PSJub3JtYWwiIGZvbnQtc3R5bGU9Im5vcm1hbCIgZm9udC1mYW1pbHk9IkNpc2NvU2Fuc1RUIEV4dHJhTGlnaHQsQ2lzY29TYW5zVFQgRXh0cmFMaWdodF9NU0ZvbnRTZXJ2aWNlLHNhbnMtc2VyaWYiIGZpbGwtb3BhY2l0eT0iMSIgZmlsbD0iIzU2OTMzNCI+TWV0YWRhdGEgPC90ZXh0Pjx0ZXh0IHRyYW5zZm9ybT0ibWF0cml4KDEgMCAwIDEgMTAyMS42IDEyMjQpIiB0ZXh0LWRlY29yYXRpb249Im5vbmUiIHdyaXRpbmctbW9kZT0ibHItdGIiIGRpcmVjdGlvbj0ibHRyIiB0ZXh0LWFuY2hvcj0ic3RhcnQiIGZvbnQtc2l6ZT0iMzIiIGZvbnQtc3RyZXRjaD0ibm9ybWFsIiBmb250LXdlaWdodD0iMzAwIiBmb250LXZhcmlhbnQ9Im5vcm1hbCIgZm9udC1zdHlsZT0ibm9ybWFsIiBmb250LWZhbWlseT0iQ2lzY29TYW5zVFQgRXh0cmFMaWdodCxDaXNjb1NhbnNUVCBFeHRyYUxpZ2h0X01TRm9udFNlcnZpY2Usc2Fucy1zZXJpZiIgZmlsbC1vcGFjaXR5PSIxIiBmaWxsPSIjNTY5MzM0Ij5hbmQgQWdlbnQgPC90ZXh0Pjx0ZXh0IHRyYW5zZm9ybT0ibWF0cml4KDEgMCAwIDEgMTA0OS4zNyAxMjYyKSIgdGV4dC1kZWNvcmF0aW9uPSJub25lIiB3cml0aW5nLW1vZGU9ImxyLXRiIiBkaXJlY3Rpb249Imx0ciIgdGV4dC1hbmNob3I9InN0YXJ0IiBmb250LXNpemU9IjMyIiBmb250LXN0cmV0Y2g9Im5vcm1hbCIgZm9udC13ZWlnaHQ9IjMwMCIgZm9udC12YXJpYW50PSJub3JtYWwiIGZvbnQtc3R5bGU9Im5vcm1hbCIgZm9udC1mYW1pbHk9IkNpc2NvU2Fuc1RUIEV4dHJhTGlnaHQsQ2lzY29TYW5zVFQgRXh0cmFMaWdodF9NU0ZvbnRTZXJ2aWNlLHNhbnMtc2VyaWYiIGZpbGwtb3BhY2l0eT0iMSIgZmlsbD0iIzU2OTMzNCI+QmFkZ2U8L3RleHQ+PHRleHQgdHJhbnNmb3JtPSJtYXRyaXgoMSAwIDAgMSA5OTIuNjAzIDc3MikiIHRleHQtZGVjb3JhdGlvbj0ibm9uZSIgd3JpdGluZy1tb2RlPSJsci10YiIgZGlyZWN0aW9uPSJsdHIiIHRleHQtYW5jaG9yPSJzdGFydCIgZm9udC1zaXplPSIzMiIgZm9udC1zdHJldGNoPSJub3JtYWwiIGZvbnQtd2VpZ2h0PSI3MDAiIGZvbnQtdmFyaWFudD0ibm9ybWFsIiBmb250LXN0eWxlPSJub3JtYWwiIGZvbnQtZmFtaWx5PSJDaXNjb1NhbnNUVCBFeHRyYUxpZ2h0LENpc2NvU2Fuc1RUIEV4dHJhTGlnaHRfTVNGb250U2VydmljZSxzYW5zLXNlcmlmIiBmaWxsLW9wYWNpdHk9IjEiIGZpbGw9IiM1NjkzMzQiPig4KTwvdGV4dD48dGV4dCB0cmFuc2Zvcm09Im1hdHJpeCgxIDAgMCAxIDE5OTIuNTUgMTkwNCkiIHRleHQtZGVjb3JhdGlvbj0ibm9uZSIgd3JpdGluZy1tb2RlPSJsci10YiIgZGlyZWN0aW9uPSJsdHIiIHRleHQtYW5jaG9yPSJzdGFydCIgZm9udC1zaXplPSIzMiIgZm9udC1zdHJldGNoPSJub3JtYWwiIGZvbnQtd2VpZ2h0PSI1MDAiIGZvbnQtdmFyaWFudD0ibm9ybWFsIiBmb250LXN0eWxlPSJub3JtYWwiIGZvbnQtZmFtaWx5PSJDaXNjb1NhbnNUVCBNZWRpdW0sQ2lzY29TYW5zVFQgTWVkaXVtX01TRm9udFNlcnZpY2Usc2Fucy1zZXJpZiIgZmlsbC1vcGFjaXR5PSIxIiBmaWxsPSIjNTY5MzM0Ij5UaGUgUmVzb2x2ZXIgcHJvdmlkZXMgdHJ1c3R3b3J0aHkgYW5kIGF1dG9tYXRlZCBtZWFucyB0byA8L3RleHQ+PHRleHQgdHJhbnNmb3JtPSJtYXRyaXgoMSAwIDAgMSAyOTE0LjM3IDE5MDQpIiB0ZXh0LWRlY29yYXRpb249InVuZGVybGluZSIgd3JpdGluZy1tb2RlPSJsci10YiIgZGlyZWN0aW9uPSJsdHIiIHRleHQtYW5jaG9yPSJzdGFydCIgZm9udC1zaXplPSIzMiIgZm9udC1zdHJldGNoPSJub3JtYWwiIGZvbnQtd2VpZ2h0PSI3MDAiIGZvbnQtdmFyaWFudD0ibm9ybWFsIiBmb250LXN0eWxlPSJub3JtYWwiIGZvbnQtZmFtaWx5PSJDaXNjb1NhbnNUVCBNZWRpdW0sQ2lzY29TYW5zVFQgTWVkaXVtX01TRm9udFNlcnZpY2Usc2Fucy1zZXJpZiIgZmlsbC1vcGFjaXR5PSIxIiBmaWxsPSIjNTY5MzM0Ij5yZXNvbHZlPC90ZXh0Pjx0ZXh0IHRyYW5zZm9ybT0ibWF0cml4KDEgMCAwIDEgMzAzOS4yNyAxOTA0KSIgdGV4dC1kZWNvcmF0aW9uPSJub25lIiB3cml0aW5nLW1vZGU9ImxyLXRiIiBkaXJlY3Rpb249Imx0ciIgdGV4dC1hbmNob3I9InN0YXJ0IiBmb250LXNpemU9IjMyIiBmb250LXN0cmV0Y2g9Im5vcm1hbCIgZm9udC13ZWlnaHQ9IjUwMCIgZm9udC12YXJpYW50PSJub3JtYWwiIGZvbnQtc3R5bGU9Im5vcm1hbCIgZm9udC1mYW1pbHk9IkNpc2NvU2Fuc1RUIE1lZGl1bSxDaXNjb1NhbnNUVCBNZWRpdW1fTVNGb250U2VydmljZSxzYW5zLXNlcmlmIiBmaWxsLW9wYWNpdHk9IjEiIGZpbGw9IiM1NjkzMzQiPmFuZCA8L3RleHQ+PHRleHQgdHJhbnNmb3JtPSJtYXRyaXgoMSAwIDAgMSAxOTkyLjU1IDE5NDIpIiB0ZXh0LWRlY29yYXRpb249InVuZGVybGluZSIgd3JpdGluZy1tb2RlPSJsci10YiIgZGlyZWN0aW9uPSJsdHIiIHRleHQtYW5jaG9yPSJzdGFydCIgZm9udC1zaXplPSIzMiIgZm9udC1zdHJldGNoPSJub3JtYWwiIGZvbnQtd2VpZ2h0PSI3MDAiIGZvbnQtdmFyaWFudD0ibm9ybWFsIiBmb250LXN0eWxlPSJub3JtYWwiIGZvbnQtZmFtaWx5PSJDaXNjb1NhbnNUVCBNZWRpdW0sQ2lzY29TYW5zVFQgTWVkaXVtX01TRm9udFNlcnZpY2Usc2Fucy1zZXJpZiIgZmlsbC1vcGFjaXR5PSIxIiBmaWxsPSIjNTY5MzM0Ij52ZXJpZnk8L3RleHQ+PHRleHQgdHJhbnNmb3JtPSJtYXRyaXgoMSAwIDAgMSAyMDg5LjM3IDE5NDIpIiB0ZXh0LWRlY29yYXRpb249Im5vbmUiIHdyaXRpbmctbW9kZT0ibHItdGIiIGRpcmVjdGlvbj0ibHRyIiB0ZXh0LWFuY2hvcj0ic3RhcnQiIGZvbnQtc2l6ZT0iMzIiIGZvbnQtc3RyZXRjaD0ibm9ybWFsIiBmb250LXdlaWdodD0iNTAwIiBmb250LXZhcmlhbnQ9Im5vcm1hbCIgZm9udC1zdHlsZT0ibm9ybWFsIiBmb250LWZhbWlseT0iQ2lzY29TYW5zVFQgTWVkaXVtLENpc2NvU2Fuc1RUIE1lZGl1bV9NU0ZvbnRTZXJ2aWNlLHNhbnMtc2VyaWYiIGZpbGwtb3BhY2l0eT0iMSIgZmlsbD0iIzU2OTMzNCI+dGhlIEFnZW50IHN1YmplY3Q6IDwvdGV4dD48dGV4dCB0cmFuc2Zvcm09Im1hdHJpeCgxIDAgMCAxIDIwMTAuMiAyMDE5KSIgdGV4dC1kZWNvcmF0aW9uPSJub25lIiB3cml0aW5nLW1vZGU9ImxyLXRiIiBkaXJlY3Rpb249Imx0ciIgdGV4dC1hbmNob3I9InN0YXJ0IiBmb250LXNpemU9IjI5IiBmb250LXN0cmV0Y2g9Im5vcm1hbCIgZm9udC13ZWlnaHQ9IjQwMCIgZm9udC12YXJpYW50PSJub3JtYWwiIGZvbnQtc3R5bGU9Im5vcm1hbCIgZm9udC1mYW1pbHk9IkFyaWFsLEFyaWFsX01TRm9udFNlcnZpY2Usc2Fucy1zZXJpZiIgZmlsbC1vcGFjaXR5PSIxIiBmaWxsPSIjNTY5MzM0Ij7igKI8L3RleHQ+PHRleHQgdHJhbnNmb3JtPSJtYXRyaXgoMSAwIDAgMSAyMDQxLjgyIDIwMTkpIiB0ZXh0LWRlY29yYXRpb249Im5vbmUiIHdyaXRpbmctbW9kZT0ibHItdGIiIGRpcmVjdGlvbj0ibHRyIiB0ZXh0LWFuY2hvcj0ic3RhcnQiIGZvbnQtc2l6ZT0iMzIiIGZvbnQtc3RyZXRjaD0ibm9ybWFsIiBmb250LXdlaWdodD0iNTAwIiBmb250LXZhcmlhbnQ9Im5vcm1hbCIgZm9udC1zdHlsZT0ibm9ybWFsIiBmb250LWZhbWlseT0iQ2lzY29TYW5zVFQgTWVkaXVtLENpc2NvU2Fuc1RUIE1lZGl1bV9NU0ZvbnRTZXJ2aWNlLHNhbnMtc2VyaWYiIGZpbGwtb3BhY2l0eT0iMSIgZmlsbD0iIzU2OTMzNCI+VXNlcyB0aGUgbWV0aG9kIGRldGFpbGVkIGluIHRoZSBBZ2VudCBCYWRnZSB0byBjb21wdXRlIHRoZSBkaWdlc3QgPC90ZXh0Pjx0ZXh0IHRyYW5zZm9ybT0ibWF0cml4KDEgMCAwIDEgMjA0MS44MiAyMDU4KSIgdGV4dC1kZWNvcmF0aW9uPSJub25lIiB3cml0aW5nLW1vZGU9ImxyLXRiIiBkaXJlY3Rpb249Imx0ciIgdGV4dC1hbmNob3I9InN0YXJ0IiBmb250LXNpemU9IjMyIiBmb250LXN0cmV0Y2g9Im5vcm1hbCIgZm9udC13ZWlnaHQ9IjUwMCIgZm9udC12YXJpYW50PSJub3JtYWwiIGZvbnQtc3R5bGU9Im5vcm1hbCIgZm9udC1mYW1pbHk9IkNpc2NvU2Fuc1RUIE1lZGl1bSxDaXNjb1NhbnNUVCBNZWRpdW1fTVNGb250U2VydmljZSxzYW5zLXNlcmlmIiBmaWxsLW9wYWNpdHk9IjEiIGZpbGw9IiM1NjkzMzQiPihDYXRhbG9nPC90ZXh0Pjx0ZXh0IHRyYW5zZm9ybT0ibWF0cml4KDEgMCAwIDEgMjE2OS41OCAyMDU4KSIgdGV4dC1kZWNvcmF0aW9uPSJub25lIiB3cml0aW5nLW1vZGU9ImxyLXRiIiBkaXJlY3Rpb249Imx0ciIgdGV4dC1hbmNob3I9InN0YXJ0IiBmb250LXNpemU9IjMyIiBmb250LXN0cmV0Y2g9Im5vcm1hbCIgZm9udC13ZWlnaHQ9IjUwMCIgZm9udC12YXJpYW50PSJub3JtYWwiIGZvbnQtc3R5bGU9Im5vcm1hbCIgZm9udC1mYW1pbHk9IkNpc2NvU2Fuc1RUIE1lZGl1bSxDaXNjb1NhbnNUVCBNZWRpdW1fTVNGb250U2VydmljZSxzYW5zLXNlcmlmIiBmaWxsLW9wYWNpdHk9IjEiIGZpbGw9IiM1NjkzMzQiPi08L3RleHQ+PHRleHQgdHJhbnNmb3JtPSJtYXRyaXgoMSAwIDAgMSAyMTg2Ljc3IDIwNTgpIiB0ZXh0LWRlY29yYXRpb249Im5vbmUiIHdyaXRpbmctbW9kZT0ibHItdGIiIGRpcmVjdGlvbj0ibHRyIiB0ZXh0LWFuY2hvcj0ic3RhcnQiIGZvbnQtc2l6ZT0iMzIiIGZvbnQtc3RyZXRjaD0ibm9ybWFsIiBmb250LXdlaWdodD0iNTAwIiBmb250LXZhcmlhbnQ9Im5vcm1hbCIgZm9udC1zdHlsZT0ibm9ybWFsIiBmb250LWZhbWlseT0iQ2lzY29TYW5zVFQgTWVkaXVtLENpc2NvU2Fuc1RUIE1lZGl1bV9NU0ZvbnRTZXJ2aWNlLHNhbnMtc2VyaWYiIGZpbGwtb3BhY2l0eT0iMSIgZmlsbD0iIzU2OTMzNCI+SUQpPC90ZXh0Pjx0ZXh0IHRyYW5zZm9ybT0ibWF0cml4KDEgMCAwIDEgMjAxMC4yIDIxMTApIiB0ZXh0LWRlY29yYXRpb249Im5vbmUiIHdyaXRpbmctbW9kZT0ibHItdGIiIGRpcmVjdGlvbj0ibHRyIiB0ZXh0LWFuY2hvcj0ic3RhcnQiIGZvbnQtc2l6ZT0iMjkiIGZvbnQtc3RyZXRjaD0ibm9ybWFsIiBmb250LXdlaWdodD0iNDAwIiBmb250LXZhcmlhbnQ9Im5vcm1hbCIgZm9udC1zdHlsZT0ibm9ybWFsIiBmb250LWZhbWlseT0iQXJpYWwsQXJpYWxfTVNGb250U2VydmljZSxzYW5zLXNlcmlmIiBmaWxsLW9wYWNpdHk9IjEiIGZpbGw9IiM1NjkzMzQiPuKAojwvdGV4dD48dGV4dCB0cmFuc2Zvcm09Im1hdHJpeCgxIDAgMCAxIDIwNDEuODIgMjExMCkiIHRleHQtZGVjb3JhdGlvbj0ibm9uZSIgd3JpdGluZy1tb2RlPSJsci10YiIgZGlyZWN0aW9uPSJsdHIiIHRleHQtYW5jaG9yPSJzdGFydCIgZm9udC1zaXplPSIzMiIgZm9udC1zdHJldGNoPSJub3JtYWwiIGZvbnQtd2VpZ2h0PSI1MDAiIGZvbnQtdmFyaWFudD0ibm9ybWFsIiBmb250LXN0eWxlPSJub3JtYWwiIGZvbnQtZmFtaWx5PSJDaXNjb1NhbnNUVCBNZWRpdW0sQ2lzY29TYW5zVFQgTWVkaXVtX01TRm9udFNlcnZpY2Usc2Fucy1zZXJpZiIgZmlsbC1vcGFjaXR5PSIxIiBmaWxsPSIjNTY5MzM0Ij5Vc2VzIHRoZSA8L3RleHQ+PHRleHQgdHJhbnNmb3JtPSJtYXRyaXgoMSAwIDAgMSAyMTg1LjA1IDIxMTApIiB0ZXh0LWRlY29yYXRpb249Im5vbmUiIHdyaXRpbmctbW9kZT0ibHItdGIiIGRpcmVjdGlvbj0ibHRyIiB0ZXh0LWFuY2hvcj0ic3RhcnQiIGZvbnQtc2l6ZT0iMzIiIGZvbnQtc3RyZXRjaD0ibm9ybWFsIiBmb250LXdlaWdodD0iNTAwIiBmb250LXZhcmlhbnQ9Im5vcm1hbCIgZm9udC1zdHlsZT0ibm9ybWFsIiBmb250LWZhbWlseT0iQ2lzY29TYW5zVFQgTWVkaXVtLENpc2NvU2Fuc1RUIE1lZGl1bV9NU0ZvbnRTZXJ2aWNlLHNhbnMtc2VyaWYiIGZpbGwtb3BhY2l0eT0iMSIgZmlsbD0iIzU2OTMzNCI+UmVzb2x2ZXJNYW5pZmVzdDwvdGV4dD48dGV4dCB0cmFuc2Zvcm09Im1hdHJpeCgxIDAgMCAxIDI0NTcuNzYgMjExMCkiIHRleHQtZGVjb3JhdGlvbj0ibm9uZSIgd3JpdGluZy1tb2RlPSJsci10YiIgZGlyZWN0aW9uPSJsdHIiIHRleHQtYW5jaG9yPSJzdGFydCIgZm9udC1zaXplPSIzMiIgZm9udC1zdHJldGNoPSJub3JtYWwiIGZvbnQtd2VpZ2h0PSI1MDAiIGZvbnQtdmFyaWFudD0ibm9ybWFsIiBmb250LXN0eWxlPSJub3JtYWwiIGZvbnQtZmFtaWx5PSJDaXNjb1NhbnNUVCBNZWRpdW0sQ2lzY29TYW5zVFQgTWVkaXVtX01TRm9udFNlcnZpY2Usc2Fucy1zZXJpZiIgZmlsbC1vcGFjaXR5PSIxIiBmaWxsPSIjNTY5MzM0Ij50byBvYnRhaW4gdGhlIDwvdGV4dD48dGV4dCB0cmFuc2Zvcm09Im1hdHJpeCgxIDAgMCAxIDI2NTkuNDMgMjExMCkiIHRleHQtZGVjb3JhdGlvbj0ibm9uZSIgd3JpdGluZy1tb2RlPSJsci10YiIgZGlyZWN0aW9uPSJsdHIiIHRleHQtYW5jaG9yPSJzdGFydCIgZm9udC1zaXplPSIzMiIgZm9udC1zdHJldGNoPSJub3JtYWwiIGZvbnQtd2VpZ2h0PSI3MDAiIGZvbnQtdmFyaWFudD0ibm9ybWFsIiBmb250LXN0eWxlPSJub3JtYWwiIGZvbnQtZmFtaWx5PSJDaXNjb1NhbnNUVCxDaXNjb1NhbnNUVF9NU0ZvbnRTZXJ2aWNlLHNhbnMtc2VyaWYiIGZpbGwtb3BhY2l0eT0iMSIgZmlsbD0iIzU2OTMzNCI+UHViS2V5PC90ZXh0Pjx0ZXh0IHRyYW5zZm9ybT0ibWF0cml4KDEgMCAwIDEgMjc5MC4wNSAyMTEwKSIgdGV4dC1kZWNvcmF0aW9uPSJub25lIiB3cml0aW5nLW1vZGU9ImxyLXRiIiBkaXJlY3Rpb249Imx0ciIgdGV4dC1hbmNob3I9InN0YXJ0IiBmb250LXNpemU9IjMyIiBmb250LXN0cmV0Y2g9Im5vcm1hbCIgZm9udC13ZWlnaHQ9IjUwMCIgZm9udC12YXJpYW50PSJub3JtYWwiIGZvbnQtc3R5bGU9Im5vcm1hbCIgZm9udC1mYW1pbHk9IkNpc2NvU2Fuc1RUIE1lZGl1bSxDaXNjb1NhbnNUVCBNZWRpdW1fTVNGb250U2VydmljZSxzYW5zLXNlcmlmIiBmaWxsLW9wYWNpdHk9IjEiIGZpbGw9IiM1NjkzMzQiPmFuZCBjcnlwdG8gPC90ZXh0Pjx0ZXh0IHRyYW5zZm9ybT0ibWF0cml4KDEgMCAwIDEgMjA0MS44MiAyMTQ4KSIgdGV4dC1kZWNvcmF0aW9uPSJub25lIiB3cml0aW5nLW1vZGU9ImxyLXRiIiBkaXJlY3Rpb249Imx0ciIgdGV4dC1hbmNob3I9InN0YXJ0IiBmb250LXNpemU9IjMyIiBmb250LXN0cmV0Y2g9Im5vcm1hbCIgZm9udC13ZWlnaHQ9IjUwMCIgZm9udC12YXJpYW50PSJub3JtYWwiIGZvbnQtc3R5bGU9Im5vcm1hbCIgZm9udC1mYW1pbHk9IkNpc2NvU2Fuc1RUIE1lZGl1bSxDaXNjb1NhbnNUVCBNZWRpdW1fTVNGb250U2VydmljZSxzYW5zLXNlcmlmIiBmaWxsLW9wYWNpdHk9IjEiIGZpbGw9IiM1NjkzMzQiPm1ldGhvZCB0byBkZWNyeXB0IHRoZSBmaW5nZXJwcmludCBpbiB0aGUgPC90ZXh0Pjx0ZXh0IHRyYW5zZm9ybT0ibWF0cml4KDEgMCAwIDEgMjY1My4xMiAyMTQ4KSIgdGV4dC1kZWNvcmF0aW9uPSJub25lIiB3cml0aW5nLW1vZGU9ImxyLXRiIiBkaXJlY3Rpb249Imx0ciIgdGV4dC1hbmNob3I9InN0YXJ0IiBmb250LXNpemU9IjMyIiBmb250LXN0cmV0Y2g9Im5vcm1hbCIgZm9udC13ZWlnaHQ9IjUwMCIgZm9udC12YXJpYW50PSJub3JtYWwiIGZvbnQtc3R5bGU9Im5vcm1hbCIgZm9udC1mYW1pbHk9IkNpc2NvU2Fuc1RUIE1lZGl1bSxDaXNjb1NhbnNUVCBNZWRpdW1fTVNGb250U2VydmljZSxzYW5zLXNlcmlmIiBmaWxsLW9wYWNpdHk9IjEiIGZpbGw9IiM1NjkzMzQiPkFnZW50IEJhZGdlICA8L3RleHQ+PHRleHQgdHJhbnNmb3JtPSJtYXRyaXgoMSAwIDAgMSAyMDEwLjIgMjIwMSkiIHRleHQtZGVjb3JhdGlvbj0ibm9uZSIgd3JpdGluZy1tb2RlPSJsci10YiIgZGlyZWN0aW9uPSJsdHIiIHRleHQtYW5jaG9yPSJzdGFydCIgZm9udC1zaXplPSIyOSIgZm9udC1zdHJldGNoPSJub3JtYWwiIGZvbnQtd2VpZ2h0PSI0MDAiIGZvbnQtdmFyaWFudD0ibm9ybWFsIiBmb250LXN0eWxlPSJub3JtYWwiIGZvbnQtZmFtaWx5PSJBcmlhbCxBcmlhbF9NU0ZvbnRTZXJ2aWNlLHNhbnMtc2VyaWYiIGZpbGwtb3BhY2l0eT0iMSIgZmlsbD0iIzU2OTMzNCI+4oCiPC90ZXh0Pjx0ZXh0IHRyYW5zZm9ybT0ibWF0cml4KDEgMCAwIDEgMjA0MS44MiAyMjAxKSIgdGV4dC1kZWNvcmF0aW9uPSJub25lIiB3cml0aW5nLW1vZGU9ImxyLXRiIiBkaXJlY3Rpb249Imx0ciIgdGV4dC1hbmNob3I9InN0YXJ0IiBmb250LXNpemU9IjMyIiBmb250LXN0cmV0Y2g9Im5vcm1hbCIgZm9udC13ZWlnaHQ9IjUwMCIgZm9udC12YXJpYW50PSJub3JtYWwiIGZvbnQtc3R5bGU9Im5vcm1hbCIgZm9udC1mYW1pbHk9IkNpc2NvU2Fuc1RUIE1lZGl1bSxDaXNjb1NhbnNUVCBNZWRpdW1fTVNGb250U2VydmljZSxzYW5zLXNlcmlmIiBmaWxsLW9wYWNpdHk9IjEiIGZpbGw9IiM1NjkzMzQiPkZyb20gdGhlIGRlY3J5cHRlZCBmaW5nZXJwcmludCBpdCBleHRyYWN0cyB0aGUgZGlnZXN0IChjbGFpbWVkIDwvdGV4dD48dGV4dCB0cmFuc2Zvcm09Im1hdHJpeCgxIDAgMCAxIDIwNDEuODIgMjIzOSkiIHRleHQtZGVjb3JhdGlvbj0ibm9uZSIgd3JpdGluZy1tb2RlPSJsci10YiIgZGlyZWN0aW9uPSJsdHIiIHRleHQtYW5jaG9yPSJzdGFydCIgZm9udC1zaXplPSIzMiIgZm9udC1zdHJldGNoPSJub3JtYWwiIGZvbnQtd2VpZ2h0PSI1MDAiIGZvbnQtdmFyaWFudD0ibm9ybWFsIiBmb250LXN0eWxlPSJub3JtYWwiIGZvbnQtZmFtaWx5PSJDaXNjb1NhbnNUVCBNZWRpdW0sQ2lzY29TYW5zVFQgTWVkaXVtX01TRm9udFNlcnZpY2Usc2Fucy1zZXJpZiIgZmlsbC1vcGFjaXR5PSIxIiBmaWxsPSIjNTY5MzM0Ij5DYXRhbG9nPC90ZXh0Pjx0ZXh0IHRyYW5zZm9ybT0ibWF0cml4KDEgMCAwIDEgMjE1OC43IDIyMzkpIiB0ZXh0LWRlY29yYXRpb249Im5vbmUiIHdyaXRpbmctbW9kZT0ibHItdGIiIGRpcmVjdGlvbj0ibHRyIiB0ZXh0LWFuY2hvcj0ic3RhcnQiIGZvbnQtc2l6ZT0iMzIiIGZvbnQtc3RyZXRjaD0ibm9ybWFsIiBmb250LXdlaWdodD0iNTAwIiBmb250LXZhcmlhbnQ9Im5vcm1hbCIgZm9udC1zdHlsZT0ibm9ybWFsIiBmb250LWZhbWlseT0iQ2lzY29TYW5zVFQgTWVkaXVtLENpc2NvU2Fuc1RUIE1lZGl1bV9NU0ZvbnRTZXJ2aWNlLHNhbnMtc2VyaWYiIGZpbGwtb3BhY2l0eT0iMSIgZmlsbD0iIzU2OTMzNCI+LTwvdGV4dD48dGV4dCB0cmFuc2Zvcm09Im1hdHJpeCgxIDAgMCAxIDIxNzUuODggMjIzOSkiIHRleHQtZGVjb3JhdGlvbj0ibm9uZSIgd3JpdGluZy1tb2RlPSJsci10YiIgZGlyZWN0aW9uPSJsdHIiIHRleHQtYW5jaG9yPSJzdGFydCIgZm9udC1zaXplPSIzMiIgZm9udC1zdHJldGNoPSJub3JtYWwiIGZvbnQtd2VpZ2h0PSI1MDAiIGZvbnQtdmFyaWFudD0ibm9ybWFsIiBmb250LXN0eWxlPSJub3JtYWwiIGZvbnQtZmFtaWx5PSJDaXNjb1NhbnNUVCBNZWRpdW0sQ2lzY29TYW5zVFQgTWVkaXVtX01TRm9udFNlcnZpY2Usc2Fucy1zZXJpZiIgZmlsbC1vcGFjaXR5PSIxIiBmaWxsPSIjNTY5MzM0Ij5JRCkgIDwvdGV4dD48dGV4dCB0cmFuc2Zvcm09Im1hdHJpeCgxIDAgMCAxIDIwMTAuMiAyMjkxKSIgdGV4dC1kZWNvcmF0aW9uPSJub25lIiB3cml0aW5nLW1vZGU9ImxyLXRiIiBkaXJlY3Rpb249Imx0ciIgdGV4dC1hbmNob3I9InN0YXJ0IiBmb250LXNpemU9IjI5IiBmb250LXN0cmV0Y2g9Im5vcm1hbCIgZm9udC13ZWlnaHQ9IjQwMCIgZm9udC12YXJpYW50PSJub3JtYWwiIGZvbnQtc3R5bGU9Im5vcm1hbCIgZm9udC1mYW1pbHk9IkFyaWFsLEFyaWFsX01TRm9udFNlcnZpY2Usc2Fucy1zZXJpZiIgZmlsbC1vcGFjaXR5PSIxIiBmaWxsPSIjNTY5MzM0Ij7igKI8L3RleHQ+PHRleHQgdHJhbnNmb3JtPSJtYXRyaXgoMSAwIDAgMSAyMDQxLjgyIDIyOTEpIiB0ZXh0LWRlY29yYXRpb249Im5vbmUiIHdyaXRpbmctbW9kZT0ibHItdGIiIGRpcmVjdGlvbj0ibHRyIiB0ZXh0LWFuY2hvcj0ic3RhcnQiIGZvbnQtc2l6ZT0iMzIiIGZvbnQtc3RyZXRjaD0ibm9ybWFsIiBmb250LXdlaWdodD0iNTAwIiBmb250LXZhcmlhbnQ9Im5vcm1hbCIgZm9udC1zdHlsZT0ibm9ybWFsIiBmb250LWZhbWlseT0iQ2lzY29TYW5zVFQgTWVkaXVtLENpc2NvU2Fuc1RUIE1lZGl1bV9NU0ZvbnRTZXJ2aWNlLHNhbnMtc2VyaWYiIGZpbGwtb3BhY2l0eT0iMSIgZmlsbD0iIzU2OTMzNCI+Q29tcGFyZXMgdGhlIGNvbXB1dGVkIGRpZ2VzdCAoQ2F0YWxvZzwvdGV4dD48dGV4dCB0cmFuc2Zvcm09Im1hdHJpeCgxIDAgMCAxIDI2NjEuNzIgMjI5MSkiIHRleHQtZGVjb3JhdGlvbj0ibm9uZSIgd3JpdGluZy1tb2RlPSJsci10YiIgZGlyZWN0aW9uPSJsdHIiIHRleHQtYW5jaG9yPSJzdGFydCIgZm9udC1zaXplPSIzMiIgZm9udC1zdHJldGNoPSJub3JtYWwiIGZvbnQtd2VpZ2h0PSI1MDAiIGZvbnQtdmFyaWFudD0ibm9ybWFsIiBmb250LXN0eWxlPSJub3JtYWwiIGZvbnQtZmFtaWx5PSJDaXNjb1NhbnNUVCBNZWRpdW0sQ2lzY29TYW5zVFQgTWVkaXVtX01TRm9udFNlcnZpY2Usc2Fucy1zZXJpZiIgZmlsbC1vcGFjaXR5PSIxIiBmaWxsPSIjNTY5MzM0Ij4tPC90ZXh0Pjx0ZXh0IHRyYW5zZm9ybT0ibWF0cml4KDEgMCAwIDEgMjY3OC45MSAyMjkxKSIgdGV4dC1kZWNvcmF0aW9uPSJub25lIiB3cml0aW5nLW1vZGU9ImxyLXRiIiBkaXJlY3Rpb249Imx0ciIgdGV4dC1hbmNob3I9InN0YXJ0IiBmb250LXNpemU9IjMyIiBmb250LXN0cmV0Y2g9Im5vcm1hbCIgZm9udC13ZWlnaHQ9IjUwMCIgZm9udC12YXJpYW50PSJub3JtYWwiIGZvbnQtc3R5bGU9Im5vcm1hbCIgZm9udC1mYW1pbHk9IkNpc2NvU2Fuc1RUIE1lZGl1bSxDaXNjb1NhbnNUVCBNZWRpdW1fTVNGb250U2VydmljZSxzYW5zLXNlcmlmIiBmaWxsLW9wYWNpdHk9IjEiIGZpbGw9IiM1NjkzMzQiPklEKSB3aXRoIHRoZSBkZWNyeXB0ZWQgPC90ZXh0Pjx0ZXh0IHRyYW5zZm9ybT0ibWF0cml4KDEgMCAwIDEgMjA0MS44MiAyMzMwKSIgdGV4dC1kZWNvcmF0aW9uPSJub25lIiB3cml0aW5nLW1vZGU9ImxyLXRiIiBkaXJlY3Rpb249Imx0ciIgdGV4dC1hbmNob3I9InN0YXJ0IiBmb250LXNpemU9IjMyIiBmb250LXN0cmV0Y2g9Im5vcm1hbCIgZm9udC13ZWlnaHQ9IjUwMCIgZm9udC12YXJpYW50PSJub3JtYWwiIGZvbnQtc3R5bGU9Im5vcm1hbCIgZm9udC1mYW1pbHk9IkNpc2NvU2Fuc1RUIE1lZGl1bSxDaXNjb1NhbnNUVCBNZWRpdW1fTVNGb250U2VydmljZSxzYW5zLXNlcmlmIiBmaWxsLW9wYWNpdHk9IjEiIGZpbGw9IiM1NjkzMzQiPmRpZ2VzdCAoY2xhaW1lZCBDYXRhbG9nPC90ZXh0Pjx0ZXh0IHRyYW5zZm9ybT0ibWF0cml4KDEgMCAwIDEgMjQwMi4xOSAyMzMwKSIgdGV4dC1kZWNvcmF0aW9uPSJub25lIiB3cml0aW5nLW1vZGU9ImxyLXRiIiBkaXJlY3Rpb249Imx0ciIgdGV4dC1hbmNob3I9InN0YXJ0IiBmb250LXNpemU9IjMyIiBmb250LXN0cmV0Y2g9Im5vcm1hbCIgZm9udC13ZWlnaHQ9IjUwMCIgZm9udC12YXJpYW50PSJub3JtYWwiIGZvbnQtc3R5bGU9Im5vcm1hbCIgZm9udC1mYW1pbHk9IkNpc2NvU2Fuc1RUIE1lZGl1bSxDaXNjb1NhbnNUVCBNZWRpdW1fTVNGb250U2VydmljZSxzYW5zLXNlcmlmIiBmaWxsLW9wYWNpdHk9IjEiIGZpbGw9IiM1NjkzMzQiPi08L3RleHQ+PHRleHQgdHJhbnNmb3JtPSJtYXRyaXgoMSAwIDAgMSAyNDE5LjM3IDIzMzApIiB0ZXh0LWRlY29yYXRpb249Im5vbmUiIHdyaXRpbmctbW9kZT0ibHItdGIiIGRpcmVjdGlvbj0ibHRyIiB0ZXh0LWFuY2hvcj0ic3RhcnQiIGZvbnQtc2l6ZT0iMzIiIGZvbnQtc3RyZXRjaD0ibm9ybWFsIiBmb250LXdlaWdodD0iNTAwIiBmb250LXZhcmlhbnQ9Im5vcm1hbCIgZm9udC1zdHlsZT0ibm9ybWFsIiBmb250LWZhbWlseT0iQ2lzY29TYW5zVFQgTWVkaXVtLENpc2NvU2Fuc1RUIE1lZGl1bV9NU0ZvbnRTZXJ2aWNlLHNhbnMtc2VyaWYiIGZpbGwtb3BhY2l0eT0iMSIgZmlsbD0iIzU2OTMzNCI+SUQpPC90ZXh0Pjx0ZXh0IHRyYW5zZm9ybT0ibWF0cml4KDEgMCAwIDEgMjAxMC4yIDIzODIpIiB0ZXh0LWRlY29yYXRpb249Im5vbmUiIHdyaXRpbmctbW9kZT0ibHItdGIiIGRpcmVjdGlvbj0ibHRyIiB0ZXh0LWFuY2hvcj0ic3RhcnQiIGZvbnQtc2l6ZT0iMjkiIGZvbnQtc3RyZXRjaD0ibm9ybWFsIiBmb250LXdlaWdodD0iNDAwIiBmb250LXZhcmlhbnQ9Im5vcm1hbCIgZm9udC1zdHlsZT0ibm9ybWFsIiBmb250LWZhbWlseT0iQXJpYWwsQXJpYWxfTVNGb250U2VydmljZSxzYW5zLXNlcmlmIiBmaWxsLW9wYWNpdHk9IjEiIGZpbGw9IiM1NjkzMzQiPuKAojwvdGV4dD48dGV4dCB0cmFuc2Zvcm09Im1hdHJpeCgxIDAgMCAxIDIwNDEuODIgMjM4MikiIHRleHQtZGVjb3JhdGlvbj0ibm9uZSIgd3JpdGluZy1tb2RlPSJsci10YiIgZGlyZWN0aW9uPSJsdHIiIHRleHQtYW5jaG9yPSJzdGFydCIgZm9udC1zaXplPSIzMiIgZm9udC1zdHJldGNoPSJub3JtYWwiIGZvbnQtd2VpZ2h0PSI1MDAiIGZvbnQtdmFyaWFudD0ibm9ybWFsIiBmb250LXN0eWxlPSJub3JtYWwiIGZvbnQtZmFtaWx5PSJDaXNjb1NhbnNUVCBNZWRpdW0sQ2lzY29TYW5zVFQgTWVkaXVtX01TRm9udFNlcnZpY2Usc2Fucy1zZXJpZiIgZmlsbC1vcGFjaXR5PSIxIiBmaWxsPSIjNTY5MzM0Ij5PdXRwdXRzIHRoZSByZXN1bHQgYW5kIGxvZ3Mgd2hldGhlciB0aGV5IG1hdGNoIG9yIHRoZXkgZG9u4oCZdCA8L3RleHQ+PHJlY3QgZmlsbD0ibm9uZSIgc3Ryb2tlLW9wYWNpdHk9IjEiIHN0cm9rZS1kYXNoYXJyYXk9IjkuMTY2NjcgNi44NzUiIHN0cm9rZS1taXRlcmxpbWl0PSIxMCIgc3Ryb2tlLWxpbmVqb2luPSJyb3VuZCIgc3Ryb2tlLWxpbmVjYXA9ImJ1dHQiIHN0cm9rZS13aWR0aD0iMi4yOTE2NyIgc3Ryb2tlPSIjNTY5MzM0IiBoZWlnaHQ9IjYzMyIgd2lkdGg9IjEyMzMiIHk9IjE4MTIiIHg9IjE5MjAiLz48cGF0aCBmaWxsLXJ1bGU9ImV2ZW5vZGQiIGZpbGw9Im5vbmUiIHN0cm9rZS1vcGFjaXR5PSIxIiBzdHJva2UtZGFzaGFycmF5PSI5LjE2NjY3IDYuODc1IiBzdHJva2UtbWl0ZXJsaW1pdD0iMTAiIHN0cm9rZS1saW5lam9pbj0icm91bmQiIHN0cm9rZS1saW5lY2FwPSJidXR0IiBzdHJva2Utd2lkdGg9IjIuMjkxNjciIHN0cm9rZT0iIzU2OTMzNCIgZD0iTTEzNTYgMTg0NSAxOTIwLjQgMjEyOC4xNyIvPjxwYXRoIGZpbGwtb3BhY2l0eT0iMSIgZmlsbC1ydWxlPSJub256ZXJvIiBmaWxsPSIjNTY5MzM0IiBkPSJNMTI4Ny4wOCAxNTk4LjE0IDEyNzkuNDcgMTU5OC42NiAxMjcyLjA2IDE2MDAuMTYgMTI2NC43NiAxNjAyLjU2IDEyNTcuNjMgMTYwNS44MiAxMjUwLjcxIDE2MDkuODYgMTI0NC4wOSAxNjE0LjYzIDEyMzcuODEgMTYyMC4wNSAxMjMxLjkzIDE2MjYuMDcgMTIyNi41MyAxNjMyLjYyIDEyMjEuNjUgMTYzOS42MiAxMjE3LjM3IDE2NDcuMDIgMTIxMy43MyAxNjU0Ljc0IDEyMTAuOCAxNjYyLjcyIDEyMDguNjQgMTY3MC44OSAxMjA3LjMxIDE2NzkuMTggMTIwNi44NSAxNjg3LjUzIDEyMDcuNDEgMTY5NS44NyAxMjA5LjAzIDE3MDQuMTMgMTIxMS42MyAxNzEyLjI3IDEyMTUuMTUgMTcyMC4yMyAxMjE5LjUyIDE3MjcuOTMgMTIyNC42NyAxNzM1LjMyIDEyMzAuNTQgMTc0Mi4zMiAxMjM3LjA0IDE3NDguODYgMTI0NC4xMSAxNzU0Ljg4IDEyNTEuNjggMTc2MC4zMSAxMjU5LjY3IDE3NjUuMDkgMTI2OC4wMSAxNzY5LjE0IDEyNzYuNjMgMTc3Mi40IDEyODUuNDUgMTc3NC44IDEyOTQuNDEgMTc3Ni4yOSAxMzAzLjQzIDE3NzYuOCAxMzEyLjQ1IDE3NzYuMzIgMTMyMS40MSAxNzc0Ljk2IDEzMzAuMjMgMTc3Mi43NSAxMzM4Ljg1IDE3NjkuNzcgMTM0Ny4xOSAxNzY2LjA3IDEzNTUuMTcgMTc2MS43MSAxMzYyLjc0IDE3NTYuNzUgMTM2OS44IDE3NTEuMjYgMTM3Ni4zIDE3NDUuMjggMTM4Mi4xNSAxNzM4LjkgMTM4Ny4zIDE3MzIuMTYgMTM5MS42NiAxNzI1LjEzIDEzOTEuNTUgMTcyNS4zNSAxMzk0LjQgMTcxNy4zIDEzOTYuNTYgMTcxOC4wNiAxMzkzLjcxIDE3MjYuMTJDMTM5My42OCAxNzI2LjIgMTM5My42NSAxNzI2LjI3IDEzOTMuNiAxNzI2LjM0TDEzODkuMTIgMTczMy41NSAxMzgzLjg0IDE3NDAuNDUgMTM3Ny44NSAxNzQ2Ljk3IDEzNzEuMjEgMTc1My4wNyAxMzYzLjk5IDE3NTguNjcgMTM1Ni4yNyAxNzYzLjcyIDEzNDguMTIgMTc2OC4xNiAxMzM5LjYgMTc3MS45NCAxMzMwLjc5IDE3NzQuOTggMTMyMS43NSAxNzc3LjIyIDEzMTIuNTcgMTc3OC42MSAxMzAzLjMgMTc3OS4wOSAxMjk0LjAzIDE3NzguNTUgMTI4NC44NSAxNzc3LjAyIDEyNzUuODIgMTc3NC41NCAxMjY3LjAxIDE3NzEuMiAxMjU4LjQ5IDE3NjcuMDUgMTI1MC4zNCAxNzYyLjE3IDEyNDIuNjIgMTc1Ni42MyAxMjM1LjQxIDE3NTAuNDggMTIyOC43OCAxNzQzLjc5IDEyMjIuNzkgMTczNi42MyAxMjE3LjUzIDE3MjkuMDYgMTIxMy4wNSAxNzIxLjE1IDEyMDkuNDUgMTcxMi45NyAxMjA2Ljc4IDE3MDQuNTYgMTIwNS4xMyAxNjk2LjAyIDEyMDQuNTYgMTY4Ny40MSAxMjA1LjA0IDE2NzguODIgMTIwNi40MyAxNjcwLjMgMTIwOC42NSAxNjYxLjkzIDEyMTEuNjYgMTY1My43NiAxMjE1LjM5IDE2NDUuODcgMTIxOS43NyAxNjM4LjMxIDEyMjQuNzYgMTYzMS4xNiAxMjMwLjI5IDE2MjQuNDcgMTIzNi4zMSAxNjE4LjMyIDEyNDIuNzUgMTYxMi43NyAxMjQ5LjU2IDE2MDcuODggMTI1Ni42OCAxNjAzLjczIDEyNjQuMDUgMTYwMC4zOCAxMjcxLjYxIDE1OTcuOTEgMTI3OS4zMSAxNTk2LjM4IDEyODYuOTIgMTU5NS44NlpNMTM4NS40OCAxNzE5LjkxIDE0MDEuMDIgMTY5NS40NCAxNDAzLjI3IDE3MjQuMzRaIi8+PHRleHQgdHJhbnNmb3JtPSJtYXRyaXgoMSAwIDAgMSAxMjg0LjE4IDE4MzQpIiB0ZXh0LWRlY29yYXRpb249Im5vbmUiIHdyaXRpbmctbW9kZT0ibHItdGIiIGRpcmVjdGlvbj0ibHRyIiB0ZXh0LWFuY2hvcj0ic3RhcnQiIGZvbnQtc2l6ZT0iMzIiIGZvbnQtc3RyZXRjaD0ibm9ybWFsIiBmb250LXdlaWdodD0iNzAwIiBmb250LXZhcmlhbnQ9Im5vcm1hbCIgZm9udC1zdHlsZT0ibm9ybWFsIiBmb250LWZhbWlseT0iQ2lzY29TYW5zVFQgRXh0cmFMaWdodCxDaXNjb1NhbnNUVCBFeHRyYUxpZ2h0X01TRm9udFNlcnZpY2Usc2Fucy1zZXJpZiIgZmlsbC1vcGFjaXR5PSIxIiBmaWxsPSIjNTY5MzM0Ij4oOSk8L3RleHQ+PHBhdGggZmlsbC1vcGFjaXR5PSIxIiBmaWxsLXJ1bGU9Im5vbnplcm8iIGZpbGw9IiM1NjkzMzQiIGQ9Ik0xNTU3IDE2MjUuODUgMjE2NC42MSAxNjI1Ljg1IDIxNjQuNjEgMTYyOC4xNSAxNTU3IDE2MjguMTVaTTIxNjAuMDIgMTYxNy44MyAyMTg3LjUyIDE2MjcgMjE2MC4wMiAxNjM2LjE3WiIvPjx0ZXh0IHRyYW5zZm9ybT0ibWF0cml4KDEgMCAwIDEgMTU5NC41OSAxNzU3KSIgdGV4dC1kZWNvcmF0aW9uPSJub25lIiB3cml0aW5nLW1vZGU9ImxyLXRiIiBkaXJlY3Rpb249Imx0ciIgdGV4dC1hbmNob3I9InN0YXJ0IiBmb250LXNpemU9IjMyIiBmb250LXN0cmV0Y2g9Im5vcm1hbCIgZm9udC13ZWlnaHQ9IjMwMCIgZm9udC12YXJpYW50PSJub3JtYWwiIGZvbnQtc3R5bGU9Im5vcm1hbCIgZm9udC1mYW1pbHk9IkNpc2NvU2Fuc1RUIEV4dHJhTGlnaHQsQ2lzY29TYW5zVFQgRXh0cmFMaWdodF9NU0ZvbnRTZXJ2aWNlLHNhbnMtc2VyaWYiIGZpbGwtb3BhY2l0eT0iMSIgZmlsbD0iIzU2OTMzNCI+VmVyaWZpZWQ8L3RleHQ+PHRleHQgdHJhbnNmb3JtPSJtYXRyaXgoMSAwIDAgMSAxNTU1LjM2IDE3OTYpIiB0ZXh0LWRlY29yYXRpb249Im5vbmUiIHdyaXRpbmctbW9kZT0ibHItdGIiIGRpcmVjdGlvbj0ibHRyIiB0ZXh0LWFuY2hvcj0ic3RhcnQiIGZvbnQtc2l6ZT0iMzIiIGZvbnQtc3RyZXRjaD0ibm9ybWFsIiBmb250LXdlaWdodD0iMzAwIiBmb250LXZhcmlhbnQ9Im5vcm1hbCIgZm9udC1zdHlsZT0ibm9ybWFsIiBmb250LWZhbWlseT0iQ2lzY29TYW5zVFQgRXh0cmFMaWdodCxDaXNjb1NhbnNUVCBFeHRyYUxpZ2h0X01TRm9udFNlcnZpY2Usc2Fucy1zZXJpZiIgZmlsbC1vcGFjaXR5PSIxIiBmaWxsPSIjNTY5MzM0Ij5BZ2VudCBCYWRnZSA8L3RleHQ+PHRleHQgdHJhbnNmb3JtPSJtYXRyaXgoMSAwIDAgMSAxNjE3LjggMTY5OCkiIHRleHQtZGVjb3JhdGlvbj0ibm9uZSIgd3JpdGluZy1tb2RlPSJsci10YiIgZGlyZWN0aW9uPSJsdHIiIHRleHQtYW5jaG9yPSJzdGFydCIgZm9udC1zaXplPSIzMiIgZm9udC1zdHJldGNoPSJub3JtYWwiIGZvbnQtd2VpZ2h0PSI3MDAiIGZvbnQtdmFyaWFudD0ibm9ybWFsIiBmb250LXN0eWxlPSJub3JtYWwiIGZvbnQtZmFtaWx5PSJDaXNjb1NhbnNUVCBFeHRyYUxpZ2h0LENpc2NvU2Fuc1RUIEV4dHJhTGlnaHRfTVNGb250U2VydmljZSxzYW5zLXNlcmlmIiBmaWxsLW9wYWNpdHk9IjEiIGZpbGw9IiM1NjkzMzQiPigxMCk8L3RleHQ+PHBhdGggdHJhbnNmb3JtPSJtYXRyaXgoLTEgMCAwIDEgMjE4Ni44NSAxMzA2KSIgZmlsbC1vcGFjaXR5PSIxIiBmaWxsLXJ1bGU9Im5vbnplcm8iIGZpbGw9IiNEOTg3MDQiIGQ9Ik0xLjM3NDQ5ZS0wNi0xLjE0NTgzIDI3Ny45MzgtMS4xNDU1IDI3Ny45MzggMS4xNDYxNy0xLjM3NDQ5ZS0wNiAxLjE0NTgzWk0yNzMuMzU1LTkuMTY2MzQgMzAwLjg1NSAwLjAwMDM2MDg5MiAyNzMuMzU1IDkuMTY2OTlaIi8+PHRleHQgdHJhbnNmb3JtPSJtYXRyaXgoMSAwIDAgMSAyMDE1LjQgMTE4NikiIHRleHQtZGVjb3JhdGlvbj0ibm9uZSIgd3JpdGluZy1tb2RlPSJsci10YiIgZGlyZWN0aW9uPSJsdHIiIHRleHQtYW5jaG9yPSJzdGFydCIgZm9udC1zaXplPSIzMiIgZm9udC1zdHJldGNoPSJub3JtYWwiIGZvbnQtd2VpZ2h0PSI3MDAiIGZvbnQtdmFyaWFudD0ibm9ybWFsIiBmb250LXN0eWxlPSJub3JtYWwiIGZvbnQtZmFtaWx5PSJDaXNjb1NhbnNUVCBFeHRyYUxpZ2h0LENpc2NvU2Fuc1RUIEV4dHJhTGlnaHRfTVNGb250U2VydmljZSxzYW5zLXNlcmlmIiBmaWxsLW9wYWNpdHk9IjEiIGZpbGw9IiNEOTg3MDQiPigxMSk8L3RleHQ+PHRleHQgdHJhbnNmb3JtPSJtYXRyaXgoMSAwIDAgMSAxOTMzLjc2IDEyMzkpIiB0ZXh0LWRlY29yYXRpb249Im5vbmUiIHdyaXRpbmctbW9kZT0ibHItdGIiIGRpcmVjdGlvbj0ibHRyIiB0ZXh0LWFuY2hvcj0ic3RhcnQiIGZvbnQtc2l6ZT0iMzIiIGZvbnQtc3RyZXRjaD0ibm9ybWFsIiBmb250LXdlaWdodD0iMzAwIiBmb250LXZhcmlhbnQ9Im5vcm1hbCIgZm9udC1zdHlsZT0ibm9ybWFsIiBmb250LWZhbWlseT0iQ2lzY29TYW5zVFQgRXh0cmFMaWdodCxDaXNjb1NhbnNUVCBFeHRyYUxpZ2h0X01TRm9udFNlcnZpY2Usc2Fucy1zZXJpZiIgZmlsbC1vcGFjaXR5PSIxIiBmaWxsPSIjRDk4NzA0Ij5HZXQgdGhlIFZlcmlmaWVkIDwvdGV4dD48dGV4dCB0cmFuc2Zvcm09Im1hdHJpeCgxIDAgMCAxIDE5NTIuOTYgMTI3OCkiIHRleHQtZGVjb3JhdGlvbj0ibm9uZSIgd3JpdGluZy1tb2RlPSJsci10YiIgZGlyZWN0aW9uPSJsdHIiIHRleHQtYW5jaG9yPSJzdGFydCIgZm9udC1zaXplPSIzMiIgZm9udC1zdHJldGNoPSJub3JtYWwiIGZvbnQtd2VpZ2h0PSIzMDAiIGZvbnQtdmFyaWFudD0ibm9ybWFsIiBmb250LXN0eWxlPSJub3JtYWwiIGZvbnQtZmFtaWx5PSJDaXNjb1NhbnNUVCBFeHRyYUxpZ2h0LENpc2NvU2Fuc1RUIEV4dHJhTGlnaHRfTVNGb250U2VydmljZSxzYW5zLXNlcmlmIiBmaWxsLW9wYWNpdHk9IjEiIGZpbGw9IiNEOTg3MDQiPkFnZW50IEJhZGdlPC90ZXh0Pjx0ZXh0IHRyYW5zZm9ybT0ibWF0cml4KDEgMCAwIDEgODYwLjM2OCAyNzYpIiB0ZXh0LWRlY29yYXRpb249Im5vbmUiIHdyaXRpbmctbW9kZT0ibHItdGIiIGRpcmVjdGlvbj0ibHRyIiB0ZXh0LWFuY2hvcj0ic3RhcnQiIGZvbnQtc2l6ZT0iMzIiIGZvbnQtc3RyZXRjaD0ibm9ybWFsIiBmb250LXdlaWdodD0iNzAwIiBmb250LXZhcmlhbnQ9Im5vcm1hbCIgZm9udC1zdHlsZT0ibm9ybWFsIiBmb250LWZhbWlseT0iQ2lzY29TYW5zVFQgRXh0cmFMaWdodCxDaXNjb1NhbnNUVCBFeHRyYUxpZ2h0X01TRm9udFNlcnZpY2Usc2Fucy1zZXJpZiIgZmlsbC1vcGFjaXR5PSIxIiBmaWxsPSIjNTY5MzM0Ij4oN2IpPC90ZXh0PjxwYXRoIGZpbGwtcnVsZT0iZXZlbm9kZCIgZmlsbD0ibm9uZSIgc3Ryb2tlLW9wYWNpdHk9IjEiIHN0cm9rZS1taXRlcmxpbWl0PSIxMCIgc3Ryb2tlLWxpbmVqb2luPSJyb3VuZCIgc3Ryb2tlLWxpbmVjYXA9ImJ1dHQiIHN0cm9rZS13aWR0aD0iMy40Mzc1IiBzdHJva2U9IiM1NjkzMzQiIGQ9Ik0xMTAyLjUgOTcyLjgzM0MxMTAyLjUgOTY1LjQ3IDExMDguNDcgOTU5LjUgMTExNS44MyA5NTkuNUwxMTY5LjE3IDk1OS41QzExNzYuNTMgOTU5LjUgMTE4Mi41IDk2NS40NyAxMTgyLjUgOTcyLjgzM0wxMTgyLjUgMTAzMC4xN0MxMTgyLjUgMTAzNy41MyAxMTc2LjUzIDEwNDMuNSAxMTY5LjE3IDEwNDMuNUwxMTE1LjgzIDEwNDMuNUMxMTA4LjQ3IDEwNDMuNSAxMTAyLjUgMTAzNy41MyAxMTAyLjUgMTAzMC4xN1oiLz48cGF0aCBmaWxsLXJ1bGU9ImV2ZW5vZGQiIGZpbGw9Im5vbmUiIHN0cm9rZS1vcGFjaXR5PSIxIiBzdHJva2UtbWl0ZXJsaW1pdD0iMTAiIHN0cm9rZS1saW5lam9pbj0icm91bmQiIHN0cm9rZS1saW5lY2FwPSJidXR0IiBzdHJva2Utd2lkdGg9IjYuODc1IiBzdHJva2U9IiM1NjkzMzQiIGQ9Ik0xMTE4LjUgOTc4LjUgMTE2NC4wNCA5NzguNTAxIi8+PHBhdGggZmlsbC1ydWxlPSJldmVub2RkIiBmaWxsPSJub25lIiBzdHJva2Utb3BhY2l0eT0iMSIgc3Ryb2tlLW1pdGVybGltaXQ9IjEwIiBzdHJva2UtbGluZWpvaW49InJvdW5kIiBzdHJva2UtbGluZWNhcD0iYnV0dCIgc3Ryb2tlLXdpZHRoPSI2Ljg3NSIgc3Ryb2tlPSIjNTY5MzM0IiBkPSJNMTExOS41IDk5OC41IDExNjUuMDQgOTk4LjUiLz48cGF0aCBmaWxsLXJ1bGU9ImV2ZW5vZGQiIGZpbGw9Im5vbmUiIHN0cm9rZS1vcGFjaXR5PSIxIiBzdHJva2UtbWl0ZXJsaW1pdD0iMTAiIHN0cm9rZS1saW5lam9pbj0icm91bmQiIHN0cm9rZS1saW5lY2FwPSJidXR0IiBzdHJva2Utd2lkdGg9IjYuODc1IiBzdHJva2U9IiM1NjkzMzQiIGQ9Ik0xMTE4LjUgMTAxOC41IDExNjQuMDQgMTAxOC41Ii8+PHBhdGggZmlsbC1ydWxlPSJldmVub2RkIiBmaWxsPSJub25lIiBzdHJva2Utb3BhY2l0eT0iMSIgc3Ryb2tlLWRhc2hhcnJheT0iOS4xNjY2NyA2Ljg3NSIgc3Ryb2tlLW1pdGVybGltaXQ9IjEwIiBzdHJva2UtbGluZWpvaW49InJvdW5kIiBzdHJva2UtbGluZWNhcD0iYnV0dCIgc3Ryb2tlLXdpZHRoPSIyLjI5MTY3IiBzdHJva2U9IiM0MTQyNDQiIGQ9Ik0yNzI3IDg0N0MyNzI3IDU5Mi4zOTcgMjkzMy42MiAzODYgMzE4OC41IDM4NiAzNDQzLjM4IDM4NiAzNjUwIDU5Mi4zOTcgMzY1MCA4NDcgMzY1MCAxMTAxLjYgMzQ0My4zOCAxMzA4IDMxODguNSAxMzA4IDI5MzMuNjIgMTMwOCAyNzI3IDExMDEuNiAyNzI3IDg0N1oiLz48cmVjdCBmaWxsLW9wYWNpdHk9IjEiIGZpbGw9IiNGRkZGRkYiIHN0cm9rZS1vcGFjaXR5PSIxIiBzdHJva2UtbWl0ZXJsaW1pdD0iMTAiIHN0cm9rZS1saW5lam9pbj0icm91bmQiIHN0cm9rZS1saW5lY2FwPSJidXR0IiBzdHJva2Utd2lkdGg9IjQuNTgzMzMiIHN0cm9rZT0iIzQxNDI0NCIgaGVpZ2h0PSIxMjAiIHdpZHRoPSIyMTMiIHk9IjUwNi41IiB4PSIyNjYyLjUiLz48dGV4dCB0cmFuc2Zvcm09Im1hdHJpeCgxIDAgMCAxIDI3NDEuMjIgNTc1KSIgdGV4dC1kZWNvcmF0aW9uPSJub25lIiB3cml0aW5nLW1vZGU9ImxyLXRiIiBkaXJlY3Rpb249Imx0ciIgdGV4dC1hbmNob3I9InN0YXJ0IiBmb250LXNpemU9IjI4IiBmb250LXN0cmV0Y2g9Im5vcm1hbCIgZm9udC13ZWlnaHQ9IjMwMCIgZm9udC12YXJpYW50PSJub3JtYWwiIGZvbnQtc3R5bGU9Im5vcm1hbCIgZm9udC1mYW1pbHk9IkNpc2NvU2Fuc1RUIEV4dHJhTGlnaHQsQ2lzY29TYW5zVFQgRXh0cmFMaWdodF9NU0ZvbnRTZXJ2aWNlLHNhbnMtc2VyaWYiIGZpbGwtb3BhY2l0eT0iMSIgZmlsbD0iIzQxNDI0NCI+QURTPC90ZXh0PjxwYXRoIGZpbGwtb3BhY2l0eT0iMSIgZmlsbC1ydWxlPSJldmVub2RkIiBmaWxsPSIjRkZGRkZGIiBzdHJva2Utb3BhY2l0eT0iMSIgc3Ryb2tlLW1pdGVybGltaXQ9IjEwIiBzdHJva2UtbGluZWpvaW49InJvdW5kIiBzdHJva2UtbGluZWNhcD0iYnV0dCIgc3Ryb2tlLXdpZHRoPSI0LjU4MzMzIiBzdHJva2U9IiM0MTQyNDQiIGQ9Ik0yNjgxLjMzIDQ0Ny41IDI4MTkuNjcgNDQ3LjVDMjgyNS4xIDQ0Ny41IDI4MjkuNSA0NTEuOTAzIDI4MjkuNSA0NTcuMzM0TDI4MjkuNSA1MDYuNSAyNjcxLjUgNTA2LjUgMjY3MS41IDQ1Ny4zMzRDMjY3MS41IDQ1MS45MDMgMjY3NS45IDQ0Ny41IDI2ODEuMzMgNDQ3LjVaIi8+PHRleHQgdHJhbnNmb3JtPSJtYXRyaXgoMSAwIDAgMSAyNzQxLjY3IDQ4NykiIHRleHQtZGVjb3JhdGlvbj0ibm9uZSIgd3JpdGluZy1tb2RlPSJsci10YiIgZGlyZWN0aW9uPSJsdHIiIHRleHQtYW5jaG9yPSJzdGFydCIgZm9udC1zaXplPSIyOCIgZm9udC1zdHJldGNoPSJub3JtYWwiIGZvbnQtd2VpZ2h0PSIzMDAiIGZvbnQtdmFyaWFudD0ibm9ybWFsIiBmb250LXN0eWxlPSJub3JtYWwiIGZvbnQtZmFtaWx5PSJDaXNjb1NhbnNUVCBFeHRyYUxpZ2h0LENpc2NvU2Fuc1RUIEV4dHJhTGlnaHRfTVNGb250U2VydmljZSxzYW5zLXNlcmlmIiBmaWxsLW9wYWNpdHk9IjEiIGZpbGw9IiM0MTQyNDQiPlggPC90ZXh0PjxwYXRoIGZpbGwtb3BhY2l0eT0iMSIgZmlsbC1ydWxlPSJldmVub2RkIiBmaWxsPSIjRkZGRkZGIiBkPSJNMjY5Mi41IDY2My4zNzVDMjY5Mi41IDY3My4yNDcgMjcyOS4yMSA2ODEuMjUgMjc3NC41IDY4MS4yNSAyODE5Ljc5IDY4MS4yNSAyODU2LjUgNjczLjI0NyAyODU2LjUgNjYzLjM3NUwyODU2LjUgNzcwLjYyNUMyODU2LjUgNzgwLjQ5NyAyODE5Ljc5IDc4OC41IDI3NzQuNSA3ODguNSAyNzI5LjIxIDc4OC41IDI2OTIuNSA3ODAuNDk3IDI2OTIuNSA3NzAuNjI1WiIvPjxwYXRoIGZpbGwtb3BhY2l0eT0iMSIgZmlsbC1ydWxlPSJldmVub2RkIiBmaWxsPSIjRkZGRkZGIiBkPSJNMjY5Mi41IDY2My4zNzVDMjY5Mi41IDY1My41MDMgMjcyOS4yMSA2NDUuNSAyNzc0LjUgNjQ1LjUgMjgxOS43OSA2NDUuNSAyODU2LjUgNjUzLjUwMyAyODU2LjUgNjYzLjM3NSAyODU2LjUgNjczLjI0NyAyODE5Ljc5IDY4MS4yNSAyNzc0LjUgNjgxLjI1IDI3MjkuMjEgNjgxLjI1IDI2OTIuNSA2NzMuMjQ3IDI2OTIuNSA2NjMuMzc1WiIvPjxwYXRoIGZpbGwtcnVsZT0iZXZlbm9kZCIgZmlsbD0ibm9uZSIgc3Ryb2tlLW9wYWNpdHk9IjEiIHN0cm9rZS1taXRlcmxpbWl0PSIxMCIgc3Ryb2tlLWxpbmVqb2luPSJyb3VuZCIgc3Ryb2tlLWxpbmVjYXA9ImJ1dHQiIHN0cm9rZS13aWR0aD0iNC41ODMzMyIgc3Ryb2tlPSIjMjAyMTIyIiBkPSJNMjg1Ni41IDY2My4zNzVDMjg1Ni41IDY3My4yNDcgMjgxOS43OSA2ODEuMjUgMjc3NC41IDY4MS4yNSAyNzI5LjIxIDY4MS4yNSAyNjkyLjUgNjczLjI0NyAyNjkyLjUgNjYzLjM3NSAyNjkyLjUgNjUzLjUwMyAyNzI5LjIxIDY0NS41IDI3NzQuNSA2NDUuNSAyODE5Ljc5IDY0NS41IDI4NTYuNSA2NTMuNTAzIDI4NTYuNSA2NjMuMzc1TDI4NTYuNSA3NzAuNjI1QzI4NTYuNSA3ODAuNDk3IDI4MTkuNzkgNzg4LjUgMjc3NC41IDc4OC41IDI3MjkuMjEgNzg4LjUgMjY5Mi41IDc4MC40OTcgMjY5Mi41IDc3MC42MjVMMjY5Mi41IDY2My4zNzUiLz48dGV4dCB0cmFuc2Zvcm09Im1hdHJpeCgxIDAgMCAxIDI3NTAuNjcgNzE4KSIgdGV4dC1kZWNvcmF0aW9uPSJub25lIiB3cml0aW5nLW1vZGU9ImxyLXRiIiBkaXJlY3Rpb249Imx0ciIgdGV4dC1hbmNob3I9InN0YXJ0IiBmb250LXNpemU9IjI4IiBmb250LXN0cmV0Y2g9Im5vcm1hbCIgZm9udC13ZWlnaHQ9IjMwMCIgZm9udC12YXJpYW50PSJub3JtYWwiIGZvbnQtc3R5bGU9Im5vcm1hbCIgZm9udC1mYW1pbHk9IkNpc2NvU2Fuc1RUIEV4dHJhTGlnaHQsQ2lzY29TYW5zVFQgRXh0cmFMaWdodF9NU0ZvbnRTZXJ2aWNlLHNhbnMtc2VyaWYiIGZpbGwtb3BhY2l0eT0iMSIgZmlsbD0iIzQxNDI0NCI+T0NJIDwvdGV4dD48dGV4dCB0cmFuc2Zvcm09Im1hdHJpeCgxIDAgMCAxIDI3MjguNjMgNzUxKSIgdGV4dC1kZWNvcmF0aW9uPSJub25lIiB3cml0aW5nLW1vZGU9ImxyLXRiIiBkaXJlY3Rpb249Imx0ciIgdGV4dC1hbmNob3I9InN0YXJ0IiBmb250LXNpemU9IjI4IiBmb250LXN0cmV0Y2g9Im5vcm1hbCIgZm9udC13ZWlnaHQ9IjMwMCIgZm9udC12YXJpYW50PSJub3JtYWwiIGZvbnQtc3R5bGU9Im5vcm1hbCIgZm9udC1mYW1pbHk9IkNpc2NvU2Fuc1RUIEV4dHJhTGlnaHQsQ2lzY29TYW5zVFQgRXh0cmFMaWdodF9NU0ZvbnRTZXJ2aWNlLHNhbnMtc2VyaWYiIGZpbGwtb3BhY2l0eT0iMSIgZmlsbD0iIzQxNDI0NCI+cmVnaXN0cnk8L3RleHQ+PHJlY3QgZmlsbC1vcGFjaXR5PSIxIiBmaWxsPSIjRkZGRkZGIiBzdHJva2Utb3BhY2l0eT0iMSIgc3Ryb2tlLW1pdGVybGltaXQ9IjEwIiBzdHJva2UtbGluZWpvaW49InJvdW5kIiBzdHJva2UtbGluZWNhcD0iYnV0dCIgc3Ryb2tlLXdpZHRoPSI0LjU4MzMzIiBzdHJva2U9IiM0MTQyNDQiIGhlaWdodD0iMTIwIiB3aWR0aD0iMjEzIiB5PSI3OTMuNSIgeD0iMzUyOC41Ii8+PHRleHQgdHJhbnNmb3JtPSJtYXRyaXgoMSAwIDAgMSAzNjA3LjQgODYyKSIgdGV4dC1kZWNvcmF0aW9uPSJub25lIiB3cml0aW5nLW1vZGU9ImxyLXRiIiBkaXJlY3Rpb249Imx0ciIgdGV4dC1hbmNob3I9InN0YXJ0IiBmb250LXNpemU9IjI4IiBmb250LXN0cmV0Y2g9Im5vcm1hbCIgZm9udC13ZWlnaHQ9IjMwMCIgZm9udC12YXJpYW50PSJub3JtYWwiIGZvbnQtc3R5bGU9Im5vcm1hbCIgZm9udC1mYW1pbHk9IkNpc2NvU2Fuc1RUIEV4dHJhTGlnaHQsQ2lzY29TYW5zVFQgRXh0cmFMaWdodF9NU0ZvbnRTZXJ2aWNlLHNhbnMtc2VyaWYiIGZpbGwtb3BhY2l0eT0iMSIgZmlsbD0iIzQxNDI0NCI+QURTPC90ZXh0PjxwYXRoIGZpbGwtb3BhY2l0eT0iMSIgZmlsbC1ydWxlPSJldmVub2RkIiBmaWxsPSIjRkZGRkZGIiBzdHJva2Utb3BhY2l0eT0iMSIgc3Ryb2tlLW1pdGVybGltaXQ9IjEwIiBzdHJva2UtbGluZWpvaW49InJvdW5kIiBzdHJva2UtbGluZWNhcD0iYnV0dCIgc3Ryb2tlLXdpZHRoPSI0LjU4MzMzIiBzdHJva2U9IiM0MTQyNDQiIGQ9Ik0zNTQ3LjMzIDczNC41IDM2ODUuNjcgNzM0LjVDMzY5MS4xIDczNC41IDM2OTUuNSA3MzguOTAzIDM2OTUuNSA3NDQuMzM0TDM2OTUuNSA3OTMuNSAzNTM3LjUgNzkzLjUgMzUzNy41IDc0NC4zMzRDMzUzNy41IDczOC45MDMgMzU0MS45IDczNC41IDM1NDcuMzMgNzM0LjVaIi8+PHRleHQgdHJhbnNmb3JtPSJtYXRyaXgoMSAwIDAgMSAzNjA3LjU3IDc3NCkiIHRleHQtZGVjb3JhdGlvbj0ibm9uZSIgd3JpdGluZy1tb2RlPSJsci10YiIgZGlyZWN0aW9uPSJsdHIiIHRleHQtYW5jaG9yPSJzdGFydCIgZm9udC1zaXplPSIyOCIgZm9udC1zdHJldGNoPSJub3JtYWwiIGZvbnQtd2VpZ2h0PSIzMDAiIGZvbnQtdmFyaWFudD0ibm9ybWFsIiBmb250LXN0eWxlPSJub3JtYWwiIGZvbnQtZmFtaWx5PSJDaXNjb1NhbnNUVCBFeHRyYUxpZ2h0LENpc2NvU2Fuc1RUIEV4dHJhTGlnaHRfTVNGb250U2VydmljZSxzYW5zLXNlcmlmIiBmaWxsLW9wYWNpdHk9IjEiIGZpbGw9IiM0MTQyNDQiPlkgPC90ZXh0PjxwYXRoIGZpbGwtb3BhY2l0eT0iMSIgZmlsbC1ydWxlPSJldmVub2RkIiBmaWxsPSIjRkZGRkZGIiBkPSJNMzU1OS41IDk1MC4zNzVDMzU1OS41IDk2MC4yNDcgMzU5NS45OSA5NjguMjUgMzY0MSA5NjguMjUgMzY4Ni4wMSA5NjguMjUgMzcyMi41IDk2MC4yNDcgMzcyMi41IDk1MC4zNzVMMzcyMi41IDEwNTcuNjNDMzcyMi41IDEwNjcuNSAzNjg2LjAxIDEwNzUuNSAzNjQxIDEwNzUuNSAzNTk1Ljk5IDEwNzUuNSAzNTU5LjUgMTA2Ny41IDM1NTkuNSAxMDU3LjYzWiIvPjxwYXRoIGZpbGwtb3BhY2l0eT0iMSIgZmlsbC1ydWxlPSJldmVub2RkIiBmaWxsPSIjRkZGRkZGIiBkPSJNMzU1OS41IDk1MC4zNzVDMzU1OS41IDk0MC41MDMgMzU5NS45OSA5MzIuNSAzNjQxIDkzMi41IDM2ODYuMDEgOTMyLjUgMzcyMi41IDk0MC41MDMgMzcyMi41IDk1MC4zNzUgMzcyMi41IDk2MC4yNDcgMzY4Ni4wMSA5NjguMjUgMzY0MSA5NjguMjUgMzU5NS45OSA5NjguMjUgMzU1OS41IDk2MC4yNDcgMzU1OS41IDk1MC4zNzVaIi8+PHBhdGggZmlsbC1ydWxlPSJldmVub2RkIiBmaWxsPSJub25lIiBzdHJva2Utb3BhY2l0eT0iMSIgc3Ryb2tlLW1pdGVybGltaXQ9IjEwIiBzdHJva2UtbGluZWpvaW49InJvdW5kIiBzdHJva2UtbGluZWNhcD0iYnV0dCIgc3Ryb2tlLXdpZHRoPSI0LjU4MzMzIiBzdHJva2U9IiMyMDIxMjIiIGQ9Ik0zNzIyLjUgOTUwLjM3NUMzNzIyLjUgOTYwLjI0NyAzNjg2LjAxIDk2OC4yNSAzNjQxIDk2OC4yNSAzNTk1Ljk5IDk2OC4yNSAzNTU5LjUgOTYwLjI0NyAzNTU5LjUgOTUwLjM3NSAzNTU5LjUgOTQwLjUwMyAzNTk1Ljk5IDkzMi41IDM2NDEgOTMyLjUgMzY4Ni4wMSA5MzIuNSAzNzIyLjUgOTQwLjUwMyAzNzIyLjUgOTUwLjM3NUwzNzIyLjUgMTA1Ny42M0MzNzIyLjUgMTA2Ny41IDM2ODYuMDEgMTA3NS41IDM2NDEgMTA3NS41IDM1OTUuOTkgMTA3NS41IDM1NTkuNSAxMDY3LjUgMzU1OS41IDEwNTcuNjNMMzU1OS41IDk1MC4zNzUiLz48dGV4dCB0cmFuc2Zvcm09Im1hdHJpeCgxIDAgMCAxIDM2MTYuODYgMTAwNSkiIHRleHQtZGVjb3JhdGlvbj0ibm9uZSIgd3JpdGluZy1tb2RlPSJsci10YiIgZGlyZWN0aW9uPSJsdHIiIHRleHQtYW5jaG9yPSJzdGFydCIgZm9udC1zaXplPSIyOCIgZm9udC1zdHJldGNoPSJub3JtYWwiIGZvbnQtd2VpZ2h0PSIzMDAiIGZvbnQtdmFyaWFudD0ibm9ybWFsIiBmb250LXN0eWxlPSJub3JtYWwiIGZvbnQtZmFtaWx5PSJDaXNjb1NhbnNUVCBFeHRyYUxpZ2h0LENpc2NvU2Fuc1RUIEV4dHJhTGlnaHRfTVNGb250U2VydmljZSxzYW5zLXNlcmlmIiBmaWxsLW9wYWNpdHk9IjEiIGZpbGw9IiM0MTQyNDQiPk9DSSA8L3RleHQ+PHRleHQgdHJhbnNmb3JtPSJtYXRyaXgoMSAwIDAgMSAzNTk0LjgxIDEwMzgpIiB0ZXh0LWRlY29yYXRpb249Im5vbmUiIHdyaXRpbmctbW9kZT0ibHItdGIiIGRpcmVjdGlvbj0ibHRyIiB0ZXh0LWFuY2hvcj0ic3RhcnQiIGZvbnQtc2l6ZT0iMjgiIGZvbnQtc3RyZXRjaD0ibm9ybWFsIiBmb250LXdlaWdodD0iMzAwIiBmb250LXZhcmlhbnQ9Im5vcm1hbCIgZm9udC1zdHlsZT0ibm9ybWFsIiBmb250LWZhbWlseT0iQ2lzY29TYW5zVFQgRXh0cmFMaWdodCxDaXNjb1NhbnNUVCBFeHRyYUxpZ2h0X01TRm9udFNlcnZpY2Usc2Fucy1zZXJpZiIgZmlsbC1vcGFjaXR5PSIxIiBmaWxsPSIjNDE0MjQ0Ij5yZWdpc3RyeTwvdGV4dD48cmVjdCBmaWxsLW9wYWNpdHk9IjEiIGZpbGw9IiNGRkZGRkYiIHN0cm9rZS1vcGFjaXR5PSIxIiBzdHJva2UtbWl0ZXJsaW1pdD0iMTAiIHN0cm9rZS1saW5lam9pbj0icm91bmQiIHN0cm9rZS1saW5lY2FwPSJidXR0IiBzdHJva2Utd2lkdGg9IjQuNTgzMzMiIHN0cm9rZT0iIzQxNDI0NCIgaGVpZ2h0PSIxMjAiIHdpZHRoPSIyMTMiIHk9IjEyMDYuNSIgeD0iMjg5Ni41Ii8+PHRleHQgdHJhbnNmb3JtPSJtYXRyaXgoMSAwIDAgMSAyOTc1LjI4IDEyNzYpIiB0ZXh0LWRlY29yYXRpb249Im5vbmUiIHdyaXRpbmctbW9kZT0ibHItdGIiIGRpcmVjdGlvbj0ibHRyIiB0ZXh0LWFuY2hvcj0ic3RhcnQiIGZvbnQtc2l6ZT0iMjgiIGZvbnQtc3RyZXRjaD0ibm9ybWFsIiBmb250LXdlaWdodD0iMzAwIiBmb250LXZhcmlhbnQ9Im5vcm1hbCIgZm9udC1zdHlsZT0ibm9ybWFsIiBmb250LWZhbWlseT0iQ2lzY29TYW5zVFQgRXh0cmFMaWdodCxDaXNjb1NhbnNUVCBFeHRyYUxpZ2h0X01TRm9udFNlcnZpY2Usc2Fucy1zZXJpZiIgZmlsbC1vcGFjaXR5PSIxIiBmaWxsPSIjNDE0MjQ0Ij5BRFM8L3RleHQ+PHBhdGggZmlsbC1vcGFjaXR5PSIxIiBmaWxsLXJ1bGU9ImV2ZW5vZGQiIGZpbGw9IiNGRkZGRkYiIHN0cm9rZS1vcGFjaXR5PSIxIiBzdHJva2UtbWl0ZXJsaW1pdD0iMTAiIHN0cm9rZS1saW5lam9pbj0icm91bmQiIHN0cm9rZS1saW5lY2FwPSJidXR0IiBzdHJva2Utd2lkdGg9IjQuNTgzMzMiIHN0cm9rZT0iIzQxNDI0NCIgZD0iTTI5MTUuMzMgMTE0Ny41IDMwNTMuNjcgMTE0Ny41QzMwNTkuMSAxMTQ3LjUgMzA2My41IDExNTEuOSAzMDYzLjUgMTE1Ny4zM0wzMDYzLjUgMTIwNi41IDI5MDUuNSAxMjA2LjUgMjkwNS41IDExNTcuMzNDMjkwNS41IDExNTEuOSAyOTA5LjkgMTE0Ny41IDI5MTUuMzMgMTE0Ny41WiIvPjx0ZXh0IHRyYW5zZm9ybT0ibWF0cml4KDEgMCAwIDEgMjk3NS4xNiAxMTg4KSIgdGV4dC1kZWNvcmF0aW9uPSJub25lIiB3cml0aW5nLW1vZGU9ImxyLXRiIiBkaXJlY3Rpb249Imx0ciIgdGV4dC1hbmNob3I9InN0YXJ0IiBmb250LXNpemU9IjI4IiBmb250LXN0cmV0Y2g9Im5vcm1hbCIgZm9udC13ZWlnaHQ9IjMwMCIgZm9udC12YXJpYW50PSJub3JtYWwiIGZvbnQtc3R5bGU9Im5vcm1hbCIgZm9udC1mYW1pbHk9IkNpc2NvU2Fuc1RUIEV4dHJhTGlnaHQsQ2lzY29TYW5zVFQgRXh0cmFMaWdodF9NU0ZvbnRTZXJ2aWNlLHNhbnMtc2VyaWYiIGZpbGwtb3BhY2l0eT0iMSIgZmlsbD0iIzQxNDI0NCI+WiA8L3RleHQ+PHBhdGggZmlsbC1vcGFjaXR5PSIxIiBmaWxsLXJ1bGU9ImV2ZW5vZGQiIGZpbGw9IiNGRkZGRkYiIGQ9Ik0yOTI3LjUgMTM2My41QzI5MjcuNSAxMzczLjQ0IDI5NjMuOTkgMTM4MS41IDMwMDkgMTM4MS41IDMwNTQuMDEgMTM4MS41IDMwOTAuNSAxMzczLjQ0IDMwOTAuNSAxMzYzLjVMMzA5MC41IDE0NzEuNUMzMDkwLjUgMTQ4MS40NCAzMDU0LjAxIDE0ODkuNSAzMDA5IDE0ODkuNSAyOTYzLjk5IDE0ODkuNSAyOTI3LjUgMTQ4MS40NCAyOTI3LjUgMTQ3MS41WiIvPjxwYXRoIGZpbGwtb3BhY2l0eT0iMSIgZmlsbC1ydWxlPSJldmVub2RkIiBmaWxsPSIjRkZGRkZGIiBkPSJNMjkyNy41IDEzNjMuNUMyOTI3LjUgMTM1My41NiAyOTYzLjk5IDEzNDUuNSAzMDA5IDEzNDUuNSAzMDU0LjAxIDEzNDUuNSAzMDkwLjUgMTM1My41NiAzMDkwLjUgMTM2My41IDMwOTAuNSAxMzczLjQ0IDMwNTQuMDEgMTM4MS41IDMwMDkgMTM4MS41IDI5NjMuOTkgMTM4MS41IDI5MjcuNSAxMzczLjQ0IDI5MjcuNSAxMzYzLjVaIi8+PHBhdGggZmlsbC1ydWxlPSJldmVub2RkIiBmaWxsPSJub25lIiBzdHJva2Utb3BhY2l0eT0iMSIgc3Ryb2tlLW1pdGVybGltaXQ9IjEwIiBzdHJva2UtbGluZWpvaW49InJvdW5kIiBzdHJva2UtbGluZWNhcD0iYnV0dCIgc3Ryb2tlLXdpZHRoPSI0LjU4MzMzIiBzdHJva2U9IiMyMDIxMjIiIGQ9Ik0zMDkwLjUgMTM2My41QzMwOTAuNSAxMzczLjQ0IDMwNTQuMDEgMTM4MS41IDMwMDkgMTM4MS41IDI5NjMuOTkgMTM4MS41IDI5MjcuNSAxMzczLjQ0IDI5MjcuNSAxMzYzLjUgMjkyNy41IDEzNTMuNTYgMjk2My45OSAxMzQ1LjUgMzAwOSAxMzQ1LjUgMzA1NC4wMSAxMzQ1LjUgMzA5MC41IDEzNTMuNTYgMzA5MC41IDEzNjMuNUwzMDkwLjUgMTQ3MS41QzMwOTAuNSAxNDgxLjQ0IDMwNTQuMDEgMTQ4OS41IDMwMDkgMTQ4OS41IDI5NjMuOTkgMTQ4OS41IDI5MjcuNSAxNDgxLjQ0IDI5MjcuNSAxNDcxLjVMMjkyNy41IDEzNjMuNSIvPjx0ZXh0IHRyYW5zZm9ybT0ibWF0cml4KDEgMCAwIDEgMjk4NC43NCAxNDE5KSIgdGV4dC1kZWNvcmF0aW9uPSJub25lIiB3cml0aW5nLW1vZGU9ImxyLXRiIiBkaXJlY3Rpb249Imx0ciIgdGV4dC1hbmNob3I9InN0YXJ0IiBmb250LXNpemU9IjI4IiBmb250LXN0cmV0Y2g9Im5vcm1hbCIgZm9udC13ZWlnaHQ9IjMwMCIgZm9udC12YXJpYW50PSJub3JtYWwiIGZvbnQtc3R5bGU9Im5vcm1hbCIgZm9udC1mYW1pbHk9IkNpc2NvU2Fuc1RUIEV4dHJhTGlnaHQsQ2lzY29TYW5zVFQgRXh0cmFMaWdodF9NU0ZvbnRTZXJ2aWNlLHNhbnMtc2VyaWYiIGZpbGwtb3BhY2l0eT0iMSIgZmlsbD0iIzQxNDI0NCI+T0NJIDwvdGV4dD48dGV4dCB0cmFuc2Zvcm09Im1hdHJpeCgxIDAgMCAxIDI5NjIuNjkgMTQ1MikiIHRleHQtZGVjb3JhdGlvbj0ibm9uZSIgd3JpdGluZy1tb2RlPSJsci10YiIgZGlyZWN0aW9uPSJsdHIiIHRleHQtYW5jaG9yPSJzdGFydCIgZm9udC1zaXplPSIyOCIgZm9udC1zdHJldGNoPSJub3JtYWwiIGZvbnQtd2VpZ2h0PSIzMDAiIGZvbnQtdmFyaWFudD0ibm9ybWFsIiBmb250LXN0eWxlPSJub3JtYWwiIGZvbnQtZmFtaWx5PSJDaXNjb1NhbnNUVCBFeHRyYUxpZ2h0LENpc2NvU2Fuc1RUIEV4dHJhTGlnaHRfTVNGb250U2VydmljZSxzYW5zLXNlcmlmIiBmaWxsLW9wYWNpdHk9IjEiIGZpbGw9IiM0MTQyNDQiPnJlZ2lzdHJ5PC90ZXh0PjxwYXRoIGZpbGwtcnVsZT0iZXZlbm9kZCIgZmlsbD0ibm9uZSIgc3Ryb2tlLW9wYWNpdHk9IjEiIHN0cm9rZS1taXRlcmxpbWl0PSIxMCIgc3Ryb2tlLWxpbmVqb2luPSJyb3VuZCIgc3Ryb2tlLWxpbmVjYXA9ImJ1dHQiIHN0cm9rZS13aWR0aD0iOS4xNjY2NyIgc3Ryb2tlPSIjQkZCRkJGIiBkPSJNMzA0My41IDgzMEMzMDQzLjUgNzUyLjk1NiAzMTA2LjE4IDY5MC41IDMxODMuNSA2OTAuNSAzMjYwLjgyIDY5MC41IDMzMjMuNSA3NTIuOTU2IDMzMjMuNSA4MzAgMzMyMy41IDkwNy4wNDQgMzI2MC44MiA5NjkuNSAzMTgzLjUgOTY5LjUgMzEwNi4xOCA5NjkuNSAzMDQzLjUgOTA3LjA0NCAzMDQzLjUgODMwWiIvPjxwYXRoIHRyYW5zZm9ybT0ibWF0cml4KDEgMCAwIC0xIDMwNDUuNSA3ODMuNSkiIGZpbGwtb3BhY2l0eT0iMSIgZmlsbC1ydWxlPSJldmVub2RkIiBmaWxsPSIjRDlEOUQ5IiBzdHJva2Utb3BhY2l0eT0iMSIgc3Ryb2tlLW1pdGVybGltaXQ9IjEwIiBzdHJva2UtbGluZWpvaW49InJvdW5kIiBzdHJva2UtbGluZWNhcD0iYnV0dCIgc3Ryb2tlLXdpZHRoPSI5LjE2NjY3IiBzdHJva2U9IiNCRkJGQkYiIGQ9Ik0wIDExLjVDLTIuODAwODllLTE1IDUuMTQ4NzMgNC45MjQ4Ny0xLjQ2NDExZS0xNSAxMS0xLjQ2NDExZS0xNSAxNy4wNzUxLTIuOTI4MjFlLTE1IDIyIDUuMTQ4NzMgMjIgMTEuNSAyMiAxNy44NTEzIDE3LjA3NTEgMjMgMTEgMjMgNC45MjQ4NyAyMy01LjYwMTc5ZS0xNSAxNy44NTEzIDAgMTEuNVoiLz48cGF0aCB0cmFuc2Zvcm09Im1hdHJpeCgxIDAgMCAtMSAzMDU3LjUgOTE5LjUpIiBmaWxsLW9wYWNpdHk9IjEiIGZpbGwtcnVsZT0iZXZlbm9kZCIgZmlsbD0iI0Q5RDlEOSIgc3Ryb2tlLW9wYWNpdHk9IjEiIHN0cm9rZS1taXRlcmxpbWl0PSIxMCIgc3Ryb2tlLWxpbmVqb2luPSJyb3VuZCIgc3Ryb2tlLWxpbmVjYXA9ImJ1dHQiIHN0cm9rZS13aWR0aD0iOS4xNjY2NyIgc3Ryb2tlPSIjQkZCRkJGIiBkPSJNMCAxMS41Qy0yLjkyODE2ZS0xNSA1LjE0ODczIDUuMTQ4NjUtMS40NjQxMWUtMTUgMTEuNDk5OC0xLjQ2NDExZS0xNSAxNy44NTEtMi45MjgyMWUtMTUgMjIuOTk5NyA1LjE0ODczIDIyLjk5OTcgMTEuNSAyMi45OTk3IDE3Ljg1MTMgMTcuODUxIDIzIDExLjQ5OTggMjMgNS4xNDg2NSAyMy01Ljg1NjMzZS0xNSAxNy44NTEzIDAgMTEuNVoiLz48cGF0aCB0cmFuc2Zvcm09Im1hdHJpeCgxIDAgMCAtMSAzMjMzLjUgOTY2LjUpIiBmaWxsLW9wYWNpdHk9IjEiIGZpbGwtcnVsZT0iZXZlbm9kZCIgZmlsbD0iI0Q5RDlEOSIgc3Ryb2tlLW9wYWNpdHk9IjEiIHN0cm9rZS1taXRlcmxpbWl0PSIxMCIgc3Ryb2tlLWxpbmVqb2luPSJyb3VuZCIgc3Ryb2tlLWxpbmVjYXA9ImJ1dHQiIHN0cm9rZS13aWR0aD0iOS4xNjY2NyIgc3Ryb2tlPSIjQkZCRkJGIiBkPSJNMCAxMS41Qy0yLjkyODE2ZS0xNSA1LjE0ODczIDUuMTQ4NjUtMS40NjQxMWUtMTUgMTEuNDk5OC0xLjQ2NDExZS0xNSAxNy44NTEtMi45MjgyMWUtMTUgMjIuOTk5NyA1LjE0ODczIDIyLjk5OTcgMTEuNSAyMi45OTk3IDE3Ljg1MTMgMTcuODUxIDIzIDExLjQ5OTggMjMgNS4xNDg2NSAyMy01Ljg1NjMzZS0xNSAxNy44NTEzIDAgMTEuNVoiLz48cGF0aCB0cmFuc2Zvcm09Im1hdHJpeCgxIDAgMCAtMSAzMzA0LjUgODgyLjUpIiBmaWxsLW9wYWNpdHk9IjEiIGZpbGwtcnVsZT0iZXZlbm9kZCIgZmlsbD0iI0Q5RDlEOSIgc3Ryb2tlLW9wYWNpdHk9IjEiIHN0cm9rZS1taXRlcmxpbWl0PSIxMCIgc3Ryb2tlLWxpbmVqb2luPSJyb3VuZCIgc3Ryb2tlLWxpbmVjYXA9ImJ1dHQiIHN0cm9rZS13aWR0aD0iOS4xNjY2NyIgc3Ryb2tlPSIjQkZCRkJGIiBkPSJNMCAxMS41Qy0yLjkyODIxZS0xNSA1LjE0ODczIDUuMTQ4NzMtMS40NjQxMWUtMTUgMTEuNS0xLjQ2NDExZS0xNSAxNy44NTEzLTIuOTI4MjFlLTE1IDIzIDUuMTQ4NzMgMjMgMTEuNSAyMyAxNy44NTEzIDE3Ljg1MTMgMjMgMTEuNSAyMyA1LjE0ODczIDIzLTUuODU2NDJlLTE1IDE3Ljg1MTMgMCAxMS41WiIvPjxwYXRoIHRyYW5zZm9ybT0ibWF0cml4KDEgMCAwIC0xIDMyNjIuNSA3MzUuNSkiIGZpbGwtb3BhY2l0eT0iMSIgZmlsbC1ydWxlPSJldmVub2RkIiBmaWxsPSIjRDlEOUQ5IiBzdHJva2Utb3BhY2l0eT0iMSIgc3Ryb2tlLW1pdGVybGltaXQ9IjEwIiBzdHJva2UtbGluZWpvaW49InJvdW5kIiBzdHJva2UtbGluZWNhcD0iYnV0dCIgc3Ryb2tlLXdpZHRoPSI5LjE2NjY3IiBzdHJva2U9IiNCRkJGQkYiIGQ9Ik0wIDExLjVDLTIuOTI4MjFlLTE1IDUuMTQ4NzMgNS4xNDg3My0xLjQ2NDExZS0xNSAxMS41LTEuNDY0MTFlLTE1IDE3Ljg1MTMtMi45MjgyMWUtMTUgMjMgNS4xNDg3MyAyMyAxMS41IDIzIDE3Ljg1MTMgMTcuODUxMyAyMyAxMS41IDIzIDUuMTQ4NzMgMjMtNS44NTY0MmUtMTUgMTcuODUxMyAwIDExLjVaIi8+PHRleHQgdHJhbnNmb3JtPSJtYXRyaXgoMSAwIDAgMSAzMDE0LjQ5IDc0OSkiIHRleHQtZGVjb3JhdGlvbj0ibm9uZSIgd3JpdGluZy1tb2RlPSJsci10YiIgZGlyZWN0aW9uPSJsdHIiIHRleHQtYW5jaG9yPSJzdGFydCIgZm9udC1zaXplPSIyMyIgZm9udC1zdHJldGNoPSJub3JtYWwiIGZvbnQtd2VpZ2h0PSIzMDAiIGZvbnQtdmFyaWFudD0ibm9ybWFsIiBmb250LXN0eWxlPSJub3JtYWwiIGZvbnQtZmFtaWx5PSJDaXNjb1NhbnNUVCBFeHRyYUxpZ2h0LENpc2NvU2Fuc1RUIEV4dHJhTGlnaHRfTVNGb250U2VydmljZSxzYW5zLXNlcmlmIiBmaWxsLW9wYWNpdHk9IjEiIGZpbGw9IiM0MTQyNDQiPm4xPC90ZXh0Pjx0ZXh0IHRyYW5zZm9ybT0ibWF0cml4KDEgMCAwIDEgMzAzOC45MiA5NjQpIiB0ZXh0LWRlY29yYXRpb249Im5vbmUiIHdyaXRpbmctbW9kZT0ibHItdGIiIGRpcmVjdGlvbj0ibHRyIiB0ZXh0LWFuY2hvcj0ic3RhcnQiIGZvbnQtc2l6ZT0iMjMiIGZvbnQtc3RyZXRjaD0ibm9ybWFsIiBmb250LXdlaWdodD0iMzAwIiBmb250LXZhcmlhbnQ9Im5vcm1hbCIgZm9udC1zdHlsZT0ibm9ybWFsIiBmb250LWZhbWlseT0iQ2lzY29TYW5zVFQgRXh0cmFMaWdodCxDaXNjb1NhbnNUVCBFeHRyYUxpZ2h0X01TRm9udFNlcnZpY2Usc2Fucy1zZXJpZiIgZmlsbC1vcGFjaXR5PSIxIiBmaWxsPSIjNDE0MjQ0Ij5uMjwvdGV4dD48dGV4dCB0cmFuc2Zvcm09Im1hdHJpeCgxIDAgMCAxIDMzMzUuMSA5MTApIiB0ZXh0LWRlY29yYXRpb249Im5vbmUiIHdyaXRpbmctbW9kZT0ibHItdGIiIGRpcmVjdGlvbj0ibHRyIiB0ZXh0LWFuY2hvcj0ic3RhcnQiIGZvbnQtc2l6ZT0iMjMiIGZvbnQtc3RyZXRjaD0ibm9ybWFsIiBmb250LXdlaWdodD0iMzAwIiBmb250LXZhcmlhbnQ9Im5vcm1hbCIgZm9udC1zdHlsZT0ibm9ybWFsIiBmb250LWZhbWlseT0iQ2lzY29TYW5zVFQgRXh0cmFMaWdodCxDaXNjb1NhbnNUVCBFeHRyYUxpZ2h0X01TRm9udFNlcnZpY2Usc2Fucy1zZXJpZiIgZmlsbC1vcGFjaXR5PSIxIiBmaWxsPSIjNDE0MjQ0Ij5uNDwvdGV4dD48dGV4dCB0cmFuc2Zvcm09Im1hdHJpeCgxIDAgMCAxIDMzMDAuMDQgNzE3KSIgdGV4dC1kZWNvcmF0aW9uPSJub25lIiB3cml0aW5nLW1vZGU9ImxyLXRiIiBkaXJlY3Rpb249Imx0ciIgdGV4dC1hbmNob3I9InN0YXJ0IiBmb250LXNpemU9IjIzIiBmb250LXN0cmV0Y2g9Im5vcm1hbCIgZm9udC13ZWlnaHQ9IjMwMCIgZm9udC12YXJpYW50PSJub3JtYWwiIGZvbnQtc3R5bGU9Im5vcm1hbCIgZm9udC1mYW1pbHk9IkNpc2NvU2Fuc1RUIEV4dHJhTGlnaHQsQ2lzY29TYW5zVFQgRXh0cmFMaWdodF9NU0ZvbnRTZXJ2aWNlLHNhbnMtc2VyaWYiIGZpbGwtb3BhY2l0eT0iMSIgZmlsbD0iIzQxNDI0NCI+bjU8L3RleHQ+PHBhdGggZmlsbC1vcGFjaXR5PSIxIiBmaWxsLXJ1bGU9Im5vbnplcm8iIGZpbGw9IiMwMDcwQzAiIGQ9Ik0zMjY3LjUxIDc0MS41ODUgMzI2My40OCA3NTguNDU2IDMyNjEuODQgNzY2LjczNSAzMjYwLjYxIDc3NC44ODYgMzI1OS45NiA3ODIuODU2IDMyNjAgNzkwLjYwNCAzMjYwLjg4IDc5OC4wOSAzMjYyLjcxIDgwNS4yODEgMzI2Mi42NCA4MDUuMDUgMzI2NC4xOSA4MDguODI5IDMyNjYuMjggODEyLjY4MyAzMjY4LjkxIDgxNi43NjMgMzI3MS45NyA4MjAuOTgyIDMyNzguOTkgODI5LjU0NyAzMjg2LjUgODM3Ljc0NyAzMjkwLjE5IDg0MS41MzggMzI5My43MiA4NDUuMDUzIDMyOTYuOTggODQ4LjIxIDMyOTkuODcgODUwLjk0MiAzMzAyLjI5IDg1My4xODIgMzMwMy4yMSA4NTQuMDIgMzMwMC45IDg1Ni41NjMgMzI5OS45NSA4NTUuNzAzIDMyOTcuNTEgODUzLjQzOSAzMjk0LjU5IDg1MC42NzkgMzI5MS4zIDg0Ny40ODkgMzI4Ny43MyA4NDMuOTM1IDMyODMuOTcgODQwLjA2OSAzMjc2LjMzIDgzMS43MjYgMzI2OS4xOCA4MjIuOTk3IDMyNjYuMDIgODE4LjYyIDMyNjMuMjYgODE0LjMxOCAzMjYxLjAxIDgxMC4xMzUgMzI1OS40NiA4MDYuMzU2QzMyNTkuNDMgODA2LjI4MSAzMjU5LjQgODA2LjIwNCAzMjU5LjM4IDgwNi4xMjVMMzI1Ny40NiA3OTguNDg1IDMyNTYuNTYgNzkwLjYyIDMyNTYuNTMgNzgyLjU3MiAzMjU3LjIxIDc3NC4zNzYgMzI1OC40NiA3NjYuMDY0IDMyNjAuMTQgNzU3LjY1NyAzMjY0LjE3IDc0MC43ODdaTTMyOTMuOTYgODI0LjQ1MyAzMzA0LjU5IDg1Ny41NzIgMzI3MC41MyA4NTAuNTIzQzMyNjkuNiA4NTAuMzMxIDMyNjkgODQ5LjQyMSAzMjY5LjE5IDg0OC40OTIgMzI2OS4zOSA4NDcuNTYyIDMyNzAuMjkgODQ2Ljk2NCAzMjcxLjIyIDg0Ny4xNTdMMzMwMi40IDg1My42MDggMzMwMC40MiA4NTUuODE3IDMyOTAuNjkgODI1LjUwM0MzMjkwLjQgODI0LjU5OSAzMjkwLjg5IDgyMy42MzEgMzI5MS44IDgyMy4zNDEgMzI5Mi43IDgyMy4wNTEgMzI5My42NyA4MjMuNTQ5IDMyOTMuOTYgODI0LjQ1M1oiLz48cGF0aCBmaWxsLW9wYWNpdHk9IjEiIGZpbGwtcnVsZT0ibm9uemVybyIgZmlsbD0iIzAwNzBDMCIgZD0iTTMwNzUuNjYgNzcwLjA2OCAzMDk5LjIxIDc3Mi4yOTYgMzExMC45IDc3My4xMTYgMzEyMi41MiA3NzMuNTg5IDMxMzQuMDQgNzczLjYgMzE0NS40NCA3NzMuMDM1IDMxNTYuNyA3NzEuNzgxIDMxNjcuODIgNzY5LjcyNSAzMTczLjU1IDc2OC4xOTggMzE3OS44MiA3NjYuMTM4IDMxODYuNSA3NjMuNjI3IDMxOTMuNDQgNzYwLjc1MyAzMjA3LjY3IDc1NC4yNjQgMzIyMS40NiA3NDcuMzkxIDMyMjcuOSA3NDQuMDMxIDMyMzMuODggNzQwLjgzIDMyMzkuMjcgNzM3Ljg4MiAzMjQzLjk1IDczNS4yNzUgMzI0Ny43OSA3MzMuMDk1IDMyNTAuMjIgNzMxLjcwMiAzMjUxLjkzIDczNC42ODIgMzI0OS40OSA3MzYuMDg2IDMyNDUuNjIgNzM4LjI3OCAzMjQwLjkyIDc0MC44OTggMzIzNS41IDc0My44NjEgMzIyOS40OSA3NDcuMDc4IDMyMjMgNzUwLjQ2OCAzMjA5LjA5IDc1Ny4zOTIgMzE5NC43NiA3NjMuOTMgMzE4Ny43MSA3NjYuODQ0IDMxODAuOSA3NjkuNDA0IDMxNzQuNDQgNzcxLjUyMSAzMTY4LjQ0IDc3My4xMDUgMzE1Ny4wOCA3NzUuMTk3IDMxNDUuNjEgNzc2LjQ2OSAzMTM0LjAzIDc3Ny4wMzggMzEyMi4zOCA3NzcuMDI0IDMxMTAuNjYgNzc2LjU0NSAzMDk4Ljg5IDc3NS43MTggMzA3NS4zNCA3NzMuNDlaTTMyMTkuMjQgNzMxLjQzNCAzMjU0LjAzIDczMS40NzcgMzIzNi44NyA3NjEuNzM0QzMyMzYuNCA3NjIuNTU5IDMyMzUuMzUgNzYyLjg0OSAzMjM0LjUyIDc2Mi4zODEgMzIzMy43IDc2MS45MTMgMzIzMy40MSA3NjAuODY0IDMyMzMuODggNzYwLjAzOEwzMjQ5LjU4IDczMi4zNDQgMzI1MS4wNyA3MzQuOTExIDMyMTkuMjQgNzM0Ljg3MkMzMjE4LjI5IDczNC44NzEgMzIxNy41MiA3MzQuMSAzMjE3LjUyIDczMy4xNTEgMzIxNy41MiA3MzIuMjAyIDMyMTguMjkgNzMxLjQzMyAzMjE5LjI0IDczMS40MzRaIi8+PHRleHQgdHJhbnNmb3JtPSJtYXRyaXgoMSAwIDAgMSAzMTM1LjM3IDgwOCkiIHRleHQtZGVjb3JhdGlvbj0ibm9uZSIgd3JpdGluZy1tb2RlPSJsci10YiIgZGlyZWN0aW9uPSJsdHIiIHRleHQtYW5jaG9yPSJzdGFydCIgZm9udC1zaXplPSIyMyIgZm9udC1zdHJldGNoPSJub3JtYWwiIGZvbnQtd2VpZ2h0PSIzMDAiIGZvbnQtdmFyaWFudD0ibm9ybWFsIiBmb250LXN0eWxlPSJub3JtYWwiIGZvbnQtZmFtaWx5PSJDaXNjb1NhbnNUVCBFeHRyYUxpZ2h0LENpc2NvU2Fuc1RUIEV4dHJhTGlnaHRfTVNGb250U2VydmljZSxzYW5zLXNlcmlmIiBmaWxsLW9wYWNpdHk9IjEiIGZpbGw9IiMwMDcwQzAiPnJvdXRpbmc8L3RleHQ+PHRleHQgdHJhbnNmb3JtPSJtYXRyaXgoMSAwIDAgMSAzMjYwLjUgMTAwMCkiIHRleHQtZGVjb3JhdGlvbj0ibm9uZSIgd3JpdGluZy1tb2RlPSJsci10YiIgZGlyZWN0aW9uPSJsdHIiIHRleHQtYW5jaG9yPSJzdGFydCIgZm9udC1zaXplPSIyMyIgZm9udC1zdHJldGNoPSJub3JtYWwiIGZvbnQtd2VpZ2h0PSIzMDAiIGZvbnQtdmFyaWFudD0ibm9ybWFsIiBmb250LXN0eWxlPSJub3JtYWwiIGZvbnQtZmFtaWx5PSJDaXNjb1NhbnNUVCBFeHRyYUxpZ2h0LENpc2NvU2Fuc1RUIEV4dHJhTGlnaHRfTVNGb250U2VydmljZSxzYW5zLXNlcmlmIiBmaWxsLW9wYWNpdHk9IjEiIGZpbGw9IiM0MTQyNDQiPm4zPC90ZXh0PjxwYXRoIHRyYW5zZm9ybT0ibWF0cml4KDAuOTk0MDg3IC0wLjEwODU5IC0wLjEwODU5IC0wLjk5NDA4NyAzMDc2LjkgODkwLjM4KSIgZmlsbC1vcGFjaXR5PSIxIiBmaWxsLXJ1bGU9Im5vbnplcm8iIGZpbGw9IiNEOTg3MDQiIGQ9Ik0yLjk4MjQgMTAzLjkyNSA5LjAxOTc1IDkwLjk1MTkgMTEuNzUxMSA4NC41MTQ4IDE0LjE2MzEgNzguMDg2NCAxNi4xNDggNzEuNjc4NSAxNy42MDQ2IDY1LjI5MjggMTguNDM0IDU4LjkzMDMgMTguNTM5OCA1Mi41ODg5IDE4LjE5NjEgNDkuMzI5MSAxNy40ODMgNDUuNjc4MiAxNS4xMjIyIDM3LjUxNjYgMTEuOTA1NSAyOC45MDY5IDguMjY2MzYgMjAuNDQ4NiA0LjY1NTM0IDEyLjc4MjkgMy4wMDYwMyA5LjQ1NDQzIDEuNTI3MTUgNi41NDg4IDAuMjgwMzU0IDQuMTU1NTEgMC4wOTM1ODMxIDMuODA0MjkgMy4xMjg4NyAyLjE5MDc4IDMuMzI5MDIgMi41Njc0MSA0LjU5MDcyIDQuOTg5NjUgNi4wODYyNiA3LjkyODQ1IDcuNzY1MjYgMTEuMzE4MyAxMS40MjQzIDE5LjA5MDcgMTUuMTI2MiAyNy43MDU2IDE4LjQyNTEgMzYuNTY0MSAyMC44NTggNDUuMDI1NSAyMS42MTYgNDguOTgxNSAyMS45NzY3IDUyLjY1MjEgMjEuODQyMSA1OS4zNzg3IDIwLjk1NTQgNjYuMDU5OCAxOS40MzEyIDcyLjY5NyAxNy4zODEzIDc5LjI5NDcgMTQuOTE1MyA4NS44NTggMTIuMTM2MyA5Mi40MDIzIDYuMDk4OTMgMTA1LjM3NVpNLTEuMjE2MjQgMzQuNzU1MS0wLjAwMzc3MTU1LTAuMDA3MDE2MzUgMjkuNjU4NyAxOC4xNTkzQzMwLjQ2ODIgMTguNjU1MSAzMC43MjI1IDE5LjcxMzIgMzAuMjI2NyAyMC41MjI3IDI5LjczMSAyMS4zMzIyIDI4LjY3MjkgMjEuNTg2NSAyNy44NjM0IDIxLjA5MDdMMC43MTM1NzQgNC40NjMyNSAzLjMyODkzIDMuMDU3NDUgMi4yMTkxNyAzNC44NzQ5QzIuMTg2MDggMzUuODIzNiAxLjM5MDIxIDM2LjU2NTggMC40NDE1NDkgMzYuNTMyNy0wLjUwNzExMyAzNi40OTk2LTEuMjQ5MzMgMzUuNzAzOC0xLjIxNjI0IDM0Ljc1NTFaIi8+PHBhdGggdHJhbnNmb3JtPSJtYXRyaXgoMC4yMzA4MzUgLTAuOTcyOTkzIC0wLjk3Mjk5MyAtMC4yMzA4MzUgMzIyOC40MiA5NDYuNDM5KSIgZmlsbC1vcGFjaXR5PSIxIiBmaWxsLXJ1bGU9Im5vbnplcm8iIGZpbGw9IiNEOTg3MDQiIGQ9Ik0yLjkwNzIzIDE0OC4yMiA4Ljk0NDU4IDEyOS43OCAxMS42ODYzIDEyMC41OTcgMTQuMTEwNCAxMTEuNDE2IDE2LjExMDQgMTAyLjI0NSAxNy41ODMxIDkzLjA4MjggMTguNDI2NiA4My45MjcyIDE4LjUzOTcgNzQuNzc1NiAxOC4xOTE3IDY5Ljk5NDcgMTcuNDY3NCA2NC42OTczIDE1LjA4OTIgNTIuOTkzIDExLjg1MzQgNDAuNjcyNCA4LjIwMDIgMjguNTk5MyA2LjM2MDk0IDIyLjk0NjkgNC41ODE5IDE3LjY3OTMgMi45MjMxNCAxMi45MjAyIDEuNDQwNzcgOC43ODAwNyAwLjE5MDg4OCA1LjM2OTU3LTAuNDAyMjI4IDMuNzgzNjkgMi44MTc0OSAyLjU3OTYxIDMuNDE4NDggNC4xODY3NyA0LjY3NzA5IDcuNjIxMzUgNi4xNjkxNSAxMS43ODg5IDcuODM4NyAxNi41Nzk1IDkuNjI5ODEgMjEuODgzNSAxMS40OTA1IDI3LjYwNDEgMTUuMTc4MyAzOS43OTk5IDE4LjQ1ODEgNTIuMzA5NiAyMC44NzM2IDY0LjIzNCAyMS42MjA0IDY5Ljc0OTUgMjEuOTc2OSA3NC44MiAyMS44NDk1IDg0LjI0MzkgMjAuOTc2OSA5My42MjkzIDE5LjQ2ODggMTAyLjk3OCAxNy40MzM5IDExMi4yOTQgMTQuOTgwMSAxMjEuNTgxIDEyLjIxMTQgMTMwLjg1IDYuMTc0MSAxNDkuMjlaTS01LjcyNjczIDM0LjMwMTYtMC4wMDI4MjY4NS0wLjAwNzQ0NzQ5IDI3LjA0NDYgMjEuODYyOUMyNy43ODI3IDIyLjQ1OTcgMjcuODk3MyAyMy41NDIgMjcuMzAwNCAyNC4yODAxIDI2LjcwMzYgMjUuMDE4MiAyNS42MjE0IDI1LjEzMjcgMjQuODgzMyAyNC41MzU5TDAuMTI2OTQ5IDQuNTE4MTUgMi45MDI5NSAzLjQ2NDQ4LTIuMzM2MDkgMzQuODY3M0MtMi40OTIyOSAzNS44MDM2LTMuMzc3OTQgMzYuNDM2LTQuMzE0MjQgMzYuMjc5OC01LjI1MDU0IDM2LjEyMzYtNS44ODI5MyAzNS4yMzc5LTUuNzI2NzMgMzQuMzAxNloiLz48dGV4dCB0cmFuc2Zvcm09Im1hdHJpeCgxIDAgMCAxIDMxMzIuNjkgODg4KSIgdGV4dC1kZWNvcmF0aW9uPSJub25lIiB3cml0aW5nLW1vZGU9ImxyLXRiIiBkaXJlY3Rpb249Imx0ciIgdGV4dC1hbmNob3I9InN0YXJ0IiBmb250LXNpemU9IjIzIiBmb250LXN0cmV0Y2g9Im5vcm1hbCIgZm9udC13ZWlnaHQ9IjMwMCIgZm9udC12YXJpYW50PSJub3JtYWwiIGZvbnQtc3R5bGU9Im5vcm1hbCIgZm9udC1mYW1pbHk9IkNpc2NvU2Fuc1RUIEV4dHJhTGlnaHQsQ2lzY29TYW5zVFQgRXh0cmFMaWdodF9NU0ZvbnRTZXJ2aWNlLHNhbnMtc2VyaWYiIGZpbGwtb3BhY2l0eT0iMSIgZmlsbD0iI0Q5ODcwNCI+cm91dGluZzwvdGV4dD48cmVjdCBmaWxsPSJub25lIiBzdHJva2Utb3BhY2l0eT0iMSIgc3Ryb2tlLW1pdGVybGltaXQ9IjEwIiBzdHJva2UtbGluZWpvaW49InJvdW5kIiBzdHJva2UtbGluZWNhcD0iYnV0dCIgc3Ryb2tlLXdpZHRoPSI2Ljg3NSIgc3Ryb2tlPSIjNTY5MzM0IiBoZWlnaHQ9IjkwLjk5OTgiIHdpZHRoPSIxNDAiIHk9IjgzNS41IiB4PSI5OTQuNSIvPjxyZWN0IGZpbGw9Im5vbmUiIHN0cm9rZS1vcGFjaXR5PSIxIiBzdHJva2UtbWl0ZXJsaW1pdD0iMTAiIHN0cm9rZS1saW5lam9pbj0icm91bmQiIHN0cm9rZS1saW5lY2FwPSJidXR0IiBzdHJva2Utd2lkdGg9IjkuMTY2NjciIHN0cm9rZT0iIzU2OTMzNCIgaGVpZ2h0PSIxMy45OTk4IiB3aWR0aD0iMjguOTk5OSIgeT0iODIzLjUiIHg9IjEwNDkuNSIvPjxyZWN0IGZpbGw9Im5vbmUiIHN0cm9rZS1vcGFjaXR5PSIxIiBzdHJva2UtbWl0ZXJsaW1pdD0iMTAiIHN0cm9rZS1saW5lam9pbj0icm91bmQiIHN0cm9rZS1saW5lY2FwPSJidXR0IiBzdHJva2Utd2lkdGg9IjkuMTY2NjciIHN0cm9rZT0iIzU2OTMzNCIgaGVpZ2h0PSIxNC45OTk4IiB3aWR0aD0iMTIiIHk9IjgxMi41IiB4PSIxMDU4LjUiLz48cGF0aCBmaWxsLXJ1bGU9ImV2ZW5vZGQiIGZpbGw9Im5vbmUiIHN0cm9rZS1vcGFjaXR5PSIxIiBzdHJva2UtbWl0ZXJsaW1pdD0iMTAiIHN0cm9rZS1saW5lam9pbj0icm91bmQiIHN0cm9rZS1saW5lY2FwPSJidXR0IiBzdHJva2Utd2lkdGg9IjMuNDM3NSIgc3Ryb2tlPSIjNTY5MzM0IiBkPSJNMTA3NC41IDg2My41IDExMTQuODcgODYzLjUiLz48cGF0aCBmaWxsLXJ1bGU9ImV2ZW5vZGQiIGZpbGw9Im5vbmUiIHN0cm9rZS1vcGFjaXR5PSIxIiBzdHJva2UtbWl0ZXJsaW1pdD0iMTAiIHN0cm9rZS1saW5lam9pbj0icm91bmQiIHN0cm9rZS1saW5lY2FwPSJidXR0IiBzdHJva2Utd2lkdGg9IjMuNDM3NSIgc3Ryb2tlPSIjNTY5MzM0IiBkPSJNMTA3NC41IDg3OS41IDExMTQuODcgODc5LjUwMSIvPjxwYXRoIGZpbGwtcnVsZT0iZXZlbm9kZCIgZmlsbD0ibm9uZSIgc3Ryb2tlLW9wYWNpdHk9IjEiIHN0cm9rZS1taXRlcmxpbWl0PSIxMCIgc3Ryb2tlLWxpbmVqb2luPSJyb3VuZCIgc3Ryb2tlLWxpbmVjYXA9ImJ1dHQiIHN0cm9rZS13aWR0aD0iMy40Mzc1IiBzdHJva2U9IiM1NjkzMzQiIGQ9Ik0xMDc0LjUgODk3LjUgMTExNC44NyA4OTcuNSIvPjxwYXRoIGZpbGwtcnVsZT0iZXZlbm9kZCIgZmlsbD0ibm9uZSIgc3Ryb2tlLW9wYWNpdHk9IjEiIHN0cm9rZS1taXRlcmxpbWl0PSI4IiBzdHJva2UtbGluZWpvaW49Im1pdGVyIiBzdHJva2UtbGluZWNhcD0iYnV0dCIgc3Ryb2tlLXdpZHRoPSIzLjQzNzUiIHN0cm9rZT0iIzU2OTMzNCIgZD0iTTEwMzcgODgzLjkzOUMxMDM5LjE3IDg4My45MzkgMTA0MC45NCA4ODIuMTczIDEwNDAuOTQgODgwIDEwNDAuOTQgODc3LjgyNyAxMDM5LjE3IDg3Ni4wNjEgMTAzNyA4NzYuMDYxIDEwMzQuODMgODc2LjA2MSAxMDMzLjA2IDg3Ny44MjcgMTAzMy4wNiA4ODAgMTAzMy4wNiA4ODIuMTczIDEwMzQuODMgODgzLjkzOSAxMDM3IDg4My45MzlaTTEwMzcgODc3LjMwNUMxMDM4LjQ4IDg3Ny4zMDUgMTAzOS43IDg3OC41MTYgMTAzOS43IDg4MCAxMDM5LjcgODgxLjQ4NCAxMDM4LjQ4IDg4Mi42OTUgMTAzNyA4ODIuNjk1IDEwMzUuNTIgODgyLjY5NSAxMDM0LjMxIDg4MS40ODQgMTAzNC4zMSA4ODAgMTAzNC4zMSA4NzguNTE2IDEwMzUuNTIgODc3LjMwNSAxMDM3IDg3Ny4zMDVaTTEwMzIuOTkgODczLjA1OUMxMDMyLjI2IDg3My40ODIgMTAzMS4zNCA4NzMuNDQgMTAzMC42NCA4NzIuOTQzIDEwMzAuMSA4NzIuNTYyIDEwMjkuMzkgODcyLjYzNiAxMDI4Ljk3IDg3My4xMTcgMTAyOC4xMyA4NzQuMTA0IDEwMjcuNDggODc1LjIyMyAxMDI3LjA0IDg3Ni40NDIgMTAyNi44MiA4NzcuMDY0IDEwMjcuMTEgODc3LjczNiAxMDI3LjcxIDg3OC4wMTggMTAyOC40OCA4NzguMzc1IDEwMjguOTkgODc5LjE0NiAxMDI4Ljk5IDg4MCAxMDI4Ljk5IDg4MC44NTQgMTAyOC40OSA4ODEuNjI1IDEwMjcuNzEgODgxLjk4MiAxMDI3LjEyIDg4Mi4yNTYgMTAyNi44MyA4ODIuOTI3IDEwMjcuMDQgODgzLjU0OSAxMDI3LjI2IDg4NC4xNjMgMTAyNy41MiA4ODQuNzUyIDEwMjcuODQgODg1LjI5OSAxMDI4LjE1IDg4NS44MzggMTAyOC41MyA4ODYuMzY5IDEwMjguOTUgODg2Ljg2NiAxMDI5LjM3IDg4Ny4zNjQgMTAzMC4xIDg4Ny40NDcgMTAzMC42NCA4ODcuMDY1IDEwMzEuMzQgODg2LjU3NiAxMDMyLjI2IDg4Ni41MjYgMTAzMi45OSA4ODYuOTQ5IDEwMzMuNzIgODg3LjM3MiAxMDM0LjE1IDg4OC4xOTMgMTAzNC4wNiA4ODkuMDQ3IDEwMzQgODg5LjcxMSAxMDM0LjQ1IDg5MC4yOTkgMTAzNS4wOSA4OTAuNDE2IDEwMzUuNzIgODkwLjUzMiAxMDM2LjM2IDg5MC41OSAxMDM3IDg5MC41OSAxMDM3LjY0IDg5MC41OSAxMDM4LjMgODkwLjUzMiAxMDM4Ljk0IDg5MC40MDcgMTAzOS41NiA4OTAuMjkxIDEwMzkuOTkgODg5LjcwMiAxMDM5LjkzIDg4OS4wNDcgMTAzOS44NCA4ODguMjAxIDEwNDAuMjcgODg3LjM4IDEwNDEuMDEgODg2Ljk0OSAxMDQxLjc0IDg4Ni41MjYgMTA0Mi42NiA4ODYuNTY4IDEwNDMuMzYgODg3LjA2NSAxMDQzLjkgODg3LjQ0NyAxMDQ0LjYyIDg4Ny4zNzIgMTA0NS4wMyA4ODYuODkxIDEwNDUuODcgODg1LjkwNCAxMDQ2LjUyIDg4NC43ODUgMTA0Ni45NiA4ODMuNTY2IDEwNDcuMTggODgyLjk0NCAxMDQ2Ljg5IDg4Mi4yNzIgMTA0Ni4yOSA4ODEuOTkgMTA0NS41MiA4ODEuNjM0IDEwNDUuMDEgODgwLjg2MiAxMDQ1LjAxIDg4MC4wMDggMTA0NS4wMSA4NzkuMTU0IDEwNDUuNTEgODc4LjM4MyAxMDQ2LjI5IDg3OC4wMjYgMTA0Ni44OSA4NzcuNzUzIDEwNDcuMTggODc3LjA4MSAxMDQ2Ljk2IDg3Ni40NTkgMTA0Ni43NCA4NzUuODQ1IDEwNDYuNDggODc1LjI1NyAxMDQ2LjE2IDg3NC43MDkgMTA0NS44NSA4NzQuMTcgMTA0NS40OCA4NzMuNjQgMTA0NS4wNSA4NzMuMTQyIDEwNDQuNjMgODcyLjY0NCAxMDQzLjkgODcyLjU2MiAxMDQzLjM2IDg3Mi45NDMgMTA0Mi42NyA4NzMuNDQgMTA0MS43NCA4NzMuNDgyIDEwNDEuMDEgODczLjA1OSAxMDQwLjI4IDg3Mi42MzYgMTAzOS44NSA4NzEuODE1IDEwMzkuOTQgODcwLjk2MSAxMDQwIDg3MC4yOTggMTAzOS41NSA4NjkuNzA5IDEwMzguOTEgODY5LjU5MyAxMDM3LjYzIDg2OS4zNjEgMTAzNi4zNCA4NjkuMzYxIDEwMzUuMDYgODY5LjU5MyAxMDM0LjQ0IDg2OS43MDkgMTAzNC4wMSA4NzAuMjk4IDEwMzQuMDcgODcwLjk1MyAxMDM0LjE2IDg3MS43OTkgMTAzMy43MyA4NzIuNjIgMTAzMi45OSA4NzMuMDUxWk0xMDM1LjI4IDg3MC44MjhDMTAzNi40MSA4NzAuNjIxIDEwMzcuNTUgODcwLjYxMyAxMDM4LjY5IDg3MC44NDUgMTAzOC41NyA4NzIuMTggMTAzOS4yMyA4NzMuNDY1IDEwNDAuMzggODc0LjEzNyAxMDQxLjU0IDg3NC44MDEgMTA0Mi45OSA4NzQuNzM0IDEwNDQuMDggODczLjk1NSAxMDQ0LjEgODczLjkzOCAxMDQ0LjExIDg3My45NTUgMTA0NC4xMSA4NzMuOTU1IDEwNDQuNDggODc0LjM5NCAxMDQ0LjgxIDg3NC44NTkgMTA0NS4wOSA4NzUuMzMxIDEwNDUuMzYgODc1LjgwNCAxMDQ1LjYgODc2LjMyNiAxMDQ1Ljc3IDg3Ni44OSAxMDQ0LjU1IDg3Ny40NDYgMTA0My43OCA4NzguNjY1IDEwNDMuNzggODgwIDEwNDMuNzggODgxLjMzNSAxMDQ0LjU2IDg4Mi41NTQgMTA0NS44IDg4My4xMzUgMTA0NS40MiA4ODQuMjEzIDEwNDQuODQgODg1LjIgMTA0NC4wOSA4ODYuMDQ1IDEwNDMgODg1LjI2NiAxMDQxLjU1IDg4NS4yIDEwNDAuMzkgODg1Ljg2MyAxMDM5LjI0IDg4Ni41MzUgMTAzOC41OCA4ODcuODIgMTAzOC43MiA4ODkuMTcyIDEwMzcuNiA4ODkuMzc5IDEwMzYuNDYgODg5LjM4NyAxMDM1LjMyIDg4OS4xNTUgMTAzNS40NCA4ODcuODIgMTAzNC43OCA4ODYuNTM1IDEwMzMuNjIgODg1Ljg2MyAxMDMzLjA5IDg4NS41NTYgMTAzMi41MSA4ODUuNDA3IDEwMzEuOTIgODg1LjQwNyAxMDMxLjIxIDg4NS40MDcgMTAzMC41MSA4ODUuNjIyIDEwMjkuOSA4ODYuMDQ1IDEwMjkuNTMgODg1LjYwNiAxMDI5LjIgODg1LjE0MSAxMDI4LjkyIDg4NC42NjkgMTAyOC42NSA4ODQuMTk2IDEwMjguNDEgODgzLjY3NCAxMDI4LjIzIDg4My4xMSAxMDI5LjQ1IDg4Mi41NTQgMTAzMC4yMyA4ODEuMzM1IDEwMzAuMjMgODgwIDEwMzAuMjMgODc4LjY2NSAxMDI5LjQ1IDg3Ny40NDYgMTAyOC4yMSA4NzYuODY1IDEwMjguNTkgODc1Ljc4NyAxMDI5LjE2IDg3NC44MDEgMTAyOS45MiA4NzMuOTU1IDEwMzEuMDEgODc0LjczNCAxMDMyLjQ2IDg3NC44MDEgMTAzMy42MiA4NzQuMTM3IDEwMzQuNzggODczLjQ3NCAxMDM1LjQzIDg3Mi4xOCAxMDM1LjI4IDg3MC44MjhaTTEwMjUuMzkgODk3LjIwNyAxMDE5LjkyIDg5Ny4yMDdDMTAyNC40OSA5MDEuNzUyIDEwMzAuNTMgOTA0LjI1NiAxMDM3IDkwNC4yNTYgMTA1MC4zOCA5MDQuMjU2IDEwNjEuMjYgODkzLjM3NiAxMDYxLjI2IDg4MCAxMDYxLjI2IDg3Ni4wNjkgMTA2MC4zNCA4NzIuMzEzIDEwNTguNTQgODY4Ljg0NkwxMDU5LjY1IDg2OC4yNzRDMTA2MS41MSA4NzEuODY1IDEwNjIuNSA4NzUuOTIgMTA2Mi41IDg4MCAxMDYyLjUgODk0LjA2NCAxMDUxLjA2IDkwNS41IDEwMzcgOTA1LjUgMTAzMC4zNiA5MDUuNSAxMDI0LjE1IDkwMi45OTYgMTAxOS4zOCA4OTguNDI2TDEwMTkuMzggOTAzLjIxOSAxMDE4LjEzIDkwMy4yMTkgMTAxOC4xMyA4OTYuNTg1QzEwMTguMTMgODk2LjI0NSAxMDE4LjQyIDg5NS45NjMgMTAxOC43NiA4OTUuOTYzTDEwMjUuMzkgODk1Ljk2MyAxMDI1LjM5IDg5Ny4yMDdaTTEwMTEuNSA4ODBDMTAxMS41IDg2NS45MzYgMTAyMi45NCA4NTQuNSAxMDM3IDg1NC41IDEwNDMuNjQgODU0LjUgMTA0OS44NSA4NTcuMDA1IDEwNTQuNjIgODYxLjU3NEwxMDU0LjYyIDg1Ni43ODEgMTA1NS44NyA4NTYuNzgxIDEwNTUuODcgODYzLjQxNUMxMDU1Ljg3IDg2My43NTUgMTA1NS41OCA4NjQuMDM3IDEwNTUuMjQgODY0LjAzN0wxMDQ4LjYxIDg2NC4wMzcgMTA0OC42MSA4NjIuNzkzIDEwNTQuMDggODYyLjc5M0MxMDQ5LjUxIDg1OC4yNDggMTA0My40NyA4NTUuNzQ0IDEwMzcgODU1Ljc0NCAxMDIzLjYyIDg1NS43NDQgMTAxMi43NCA4NjYuNjI0IDEwMTIuNzQgODgwIDEwMTIuNzQgODgzLjkzMSAxMDEzLjY2IDg4Ny42ODcgMTAxNS40NiA4OTEuMTU0TDEwMTQuMzUgODkxLjcyNkMxMDEyLjQ5IDg4OC4xMzUgMTAxMS41IDg4NC4wOCAxMDExLjUgODgwWiIvPjwvZz48L2c+PC9zdmc+;" vertex="1" parent="1">
          <mxGeometry x="510" y="260" width="1200" height="930" as="geometry" />
        </mxCell>
      </root>
    </mxGraphModel>
  </diagram>
</mxfile>
